<svg width="2127" height="1944" viewBox="0 0 2127 1944" fill="none" xmlns="http://www.w3.org/2000/svg">
<g opacity="0.25">
<path d="M1320.7 753.3C1342.2 802.773 1411.59 808.235 1389.26 895.419C1371.85 949.196 1306.65 981.159 1259.78 949.747C1159.2 885.01 1104 774.644 1099.68 654.273C1102.46 536.688 1143.66 445.83 1223.49 372.275C1223.49 372.275 1292.07 429.948 1378.35 395.34C1464.64 360.732 1477.4 277.36 1477.4 277.36C1583.53 281.356 1680.74 331.622 1747.42 404.829C1791.61 456.909 1820.19 514.98 1832.28 582.386C1853.59 701.222 1821.28 773.521 1752.26 778.54C1683.24 783.56 1649.58 739.173 1655.97 668.458C1662.37 597.744 1592.19 458.145 1443.21 485.19C1294.23 512.235 1266.47 679.669 1320.7 753.3Z" fill="white"/>
<path d="M1505.11 482.193C1632.06 502.907 1660.83 624.442 1658.74 669.341C1748.16 473.997 1595.92 317.97 1466.29 309.771C1466.29 309.771 1447.62 366.598 1378.59 394.183C1309.57 421.767 1252.61 390.972 1252.61 390.972C1227.01 419.516 1207.46 454.166 1196.54 492.947C1163.01 611.994 1221.36 739.997 1343.87 789.874C1276.06 712.733 1284.47 627.419 1321.5 563.959C1337.36 536.785 1402.26 465.411 1505.11 482.193Z" fill="white"/>
<ellipse cx="123.615" cy="123.833" rx="123.615" ry="123.833" transform="matrix(0.674239 0.738514 -0.737827 0.67499 1327.71 71.3037)" fill="white"/>
<path d="M1447.6 802.519C1425.95 753.111 1356.55 747.857 1378.62 660.607C1395.87 606.778 1460.98 574.621 1507.93 605.892C1608.71 670.327 1664.24 780.527 1668.92 900.884C1666.49 1018.48 1625.56 1109.46 1545.95 1183.25C1545.95 1183.25 1477.2 1125.78 1391.02 1160.65C1304.84 1195.51 1292.32 1278.92 1292.32 1278.92C1186.19 1275.25 1088.82 1225.27 1021.93 1152.26C977.576 1100.32 948.822 1042.33 936.534 974.963C914.87 856.193 946.963 783.798 1015.97 778.572C1084.97 773.345 1118.77 817.631 1112.58 888.364C1106.4 959.097 1176.99 1098.48 1325.89 1070.99C1474.8 1043.5 1502.05 875.987 1447.6 802.519Z" fill="white"/>
<path d="M1263.7 1073.9C1136.74 1053.19 1107.97 931.652 1110.06 886.752C1020.65 1082.1 1172.89 1238.12 1302.52 1246.32C1302.52 1246.32 1321.19 1189.5 1390.21 1161.91C1459.24 1134.33 1516.2 1165.12 1516.2 1165.12C1541.79 1136.58 1561.34 1101.93 1572.27 1063.15C1605.79 944.1 1547.44 816.097 1424.94 766.219C1492.74 843.361 1484.33 928.675 1447.3 992.135C1431.45 1019.31 1366.54 1090.68 1263.7 1073.9Z" fill="white"/>
<ellipse cx="123.615" cy="123.833" rx="123.615" ry="123.833" transform="matrix(-0.674239 -0.738513 0.737827 -0.67499 1441.1 1484.79)" fill="white"/>
</g>
<g opacity="0.25">
<path d="M644.857 1242.28C595.965 1219.49 540.395 1261.4 499.321 1181.32C476.707 1129.51 504.338 1062.36 560.249 1054.81C678.467 1036.61 792.963 1082.65 875.987 1169.91C951.852 1259.79 981.231 1355.13 970.224 1463.12C970.224 1463.12 880.645 1465.4 838.983 1548.51C797.321 1631.61 843.031 1702.5 843.031 1702.5C760.927 1769.85 654.82 1796.66 556.369 1786.05C488.756 1776.35 428.863 1751.82 375.13 1709.37C280.401 1634.52 256.666 1558.97 305.014 1509.46C353.362 1459.95 407.991 1470.86 450.078 1528.05C492.164 1585.23 637.245 1643.24 730.864 1524.23C824.483 1405.22 734.271 1261.46 644.857 1242.28Z" fill="white"/>
<path d="M686.504 1567.5C577.72 1636.15 475.617 1564.23 447.418 1529.22C509.965 1734.75 727.375 1750.66 829.868 1670.86C829.868 1670.86 806.175 1615.94 839.569 1549.53C872.963 1483.13 936.026 1468.42 936.026 1468.42C936.268 1430.08 927.935 1391.18 910.405 1354.9C856.594 1243.55 728.054 1186.39 603.27 1230.25C705.171 1243.06 755.428 1312.51 769.772 1384.57C775.914 1415.43 774.632 1511.89 686.504 1567.5Z" fill="white"/>
<ellipse cx="123.615" cy="123.833" rx="123.615" ry="123.833" transform="matrix(-0.994367 -0.105991 0.104978 -0.994475 1091.7 1757.55)" fill="white"/>
<path d="M517.225 1289.55C566.185 1312.19 621.63 1270.12 662.942 1350.07C685.71 1401.81 658.28 1469.05 602.392 1476.76C484.229 1495.32 369.597 1449.62 286.312 1362.61C210.18 1272.96 180.516 1177.71 191.201 1069.69C191.201 1069.69 280.772 1067.14 322.186 983.904C363.599 900.67 317.679 829.923 317.679 829.923C399.581 762.322 505.607 735.197 604.089 745.512C671.731 755.006 731.697 779.36 785.556 821.655C880.507 896.22 904.468 971.697 856.268 1021.35C808.068 1071.01 753.407 1060.25 711.15 1003.19C668.893 946.136 523.64 888.569 430.377 1007.86C337.114 1127.15 427.755 1270.64 517.225 1289.55Z" fill="white"/>
<path d="M475.018 964.452C583.801 895.805 685.905 967.73 714.104 1002.73C651.557 797.203 434.146 781.3 331.654 861.092C331.654 861.092 355.346 916.015 321.953 982.423C288.559 1048.83 225.496 1063.54 225.496 1063.54C225.254 1101.87 233.586 1140.78 251.116 1177.05C304.928 1288.41 433.468 1345.57 558.251 1301.71C456.35 1288.89 406.093 1219.44 391.75 1147.38C385.608 1116.53 386.889 1020.06 475.018 964.452Z" fill="white"/>
<ellipse cx="123.615" cy="123.833" rx="123.615" ry="123.833" transform="matrix(0.994367 0.105991 -0.104978 0.994475 69.8223 774.408)" fill="white"/>
</g>
</svg>
