<svg width="981" height="728" viewBox="0 0 981 728" fill="none" xmlns="http://www.w3.org/2000/svg">
<path d="M641.291 473.593C619.822 531.126 580.865 576.148 528.899 612.344C454.769 660.09 370.068 672.52 285.325 650.478C285.325 650.478 296.202 579.96 233.359 535.319C170.516 490.677 110.09 519.634 110.09 519.634C66.4703 445.879 58.1237 357.96 78.6686 280.742C94.6993 228.008 124.537 180.075 165.682 143.199C220.065 94.458 290.159 61.155 330.041 114.242C369.922 167.329 328.832 213.177 292.255 227.47C255.678 241.764 235.864 274.525 228.204 311.927C208.867 367.427 235.47 439.176 283.795 472.395C357.515 523.069 461.222 502.55 503.52 419.3C527.69 383.104 503.52 332.43 569.988 309.506C616.894 297.433 659.419 330.017 661.836 377.072C661.216 410.382 653.079 442.005 641.291 473.593Z" fill="url(#paint0_linear_37_79)"/>
<path d="M688.743 501.53C725.32 487.236 745.134 454.475 752.794 417.073C772.131 361.573 745.528 289.824 697.203 256.605C623.483 205.931 521.967 227.649 479.669 310.899C455.499 347.095 482.086 396.562 413.201 419.486C369.123 431.159 318.977 400.874 319.823 355.355C319.823 258.833 370.581 173.17 450.343 117.67C531.314 68.2028 610.93 56.48 695.673 78.5219C695.673 78.5219 686.495 150.246 747.639 193.681C808.784 237.116 870.908 209.366 870.908 209.366C914.528 283.121 922.874 371.04 902.329 448.258C886.299 500.992 856.461 548.925 815.316 585.801C760.933 634.542 690.839 667.845 650.958 614.758C611.076 561.671 652.166 515.823 688.743 501.53Z" fill="url(#paint1_linear_37_79)"/>
<defs>
<linearGradient id="paint0_linear_37_79" x1="472.098" y1="181.926" x2="266.537" y2="495.677" gradientUnits="userSpaceOnUse">
<stop stop-color="#2734AE"/>
<stop offset="1" stop-color="#D1D5F8"/>
</linearGradient>
<linearGradient id="paint1_linear_37_79" x1="510.769" y1="437.399" x2="932.938" y2="-61.5834" gradientUnits="userSpaceOnUse">
<stop stop-color="#0CADBB"/>
<stop offset="0.5" stop-color="#C2F2F2"/>
<stop offset="1" stop-color="#0CADBB"/>
</linearGradient>
</defs>
</svg>
