<svg width="147" height="73" viewBox="0 0 147 73" fill="none" xmlns="http://www.w3.org/2000/svg">
<path fill-rule="evenodd" clip-rule="evenodd" d="M18.9055 28.7699L30.7773 22.6064L42.7766 28.7699L30.7773 34.9488L18.9055 28.7699ZM90.175 31.7628V31.6139C90.175 29.5858 91.3681 28.9353 93.3776 29.0794V25.371C88.5636 25.0775 86.282 27.4893 86.282 31.6139V31.7628H84.1049V35.4717H86.282V46.6984H90.175V35.4717H94.6545V46.6984H98.5475V35.4717H101.75V31.7628H98.5475V31.6139C98.5475 29.5858 99.7198 28.9353 101.75 29.0794V25.371C96.9361 25.0775 94.6545 27.4893 94.6545 31.6139V31.7628H90.175ZM62.9637 35.8239C64.1984 34.8421 64.9519 33.4388 64.9519 31.6353C64.9519 28.1397 62.1052 25.7498 58.5259 25.7498H50.2158V46.6557H59.1955C62.8586 46.6557 65.7891 44.1852 65.7891 40.6048C65.7474 38.4438 64.6589 36.7892 62.9637 35.8239ZM58.5467 29.6236C59.8865 29.6236 60.8075 30.6102 60.8075 31.9287C60.8075 33.2515 59.8444 34.2333 58.5467 34.2333H54.3815V29.6236H58.5467ZM59.1747 42.8246H54.3815V37.899H59.1747C60.5983 37.899 61.6239 38.9449 61.6239 40.3482C61.6239 41.7734 60.5983 42.8246 59.1747 42.8246ZM77.9298 31.7414V39.8045C77.9298 42.403 76.5067 43.5129 74.6018 43.5129C72.8431 43.5129 71.6084 42.4671 71.6084 40.4336V31.7414H67.7148V40.9143C67.7148 44.8949 70.2061 47.0986 73.4295 47.0986C75.4598 47.0986 77.0296 46.3409 77.9089 45.0016V46.6771H81.802V31.7414H77.9298ZM117.888 40.7911H106.502C107.067 42.7605 108.7 43.5983 110.73 43.5983C112.258 43.5983 113.472 42.9681 114.121 42.1096L117.261 43.8917C115.859 45.9242 113.598 47.0986 110.688 47.0986C105.623 47.0986 102.42 43.6623 102.42 39.2015C102.42 34.7354 105.644 31.2986 110.395 31.2986C114.854 31.2986 118.036 34.7994 118.036 39.2015C118.036 39.7831 117.973 40.29 117.888 40.7911ZM110.395 34.7994C108.303 34.7994 106.878 35.9093 106.439 37.8137H114.142C113.66 35.6585 112.028 34.7994 110.395 34.7994ZM123.666 34.3187V31.7414H119.773V46.6771H123.666V39.5323C123.666 36.389 126.22 35.4931 128.25 35.7433V31.4485C126.346 31.4485 124.441 32.2862 123.666 34.3187ZM30.7773 45.5192L22.678 41.1171L18.9055 43.1607L30.7773 49.6064L42.7766 43.1607L38.9614 41.1171L30.7773 45.5192ZM22.678 34.1751L30.7773 38.1658L38.9614 34.1751L42.7766 36.0373L30.7773 41.8908L18.9055 36.0373L22.678 34.1751Z" fill="white"/>
</svg>
