<svg xmlns="http://www.w3.org/2000/svg" width="18" height="18" viewBox="0 0 18 18" fill="none">
<path d="M17.5 15.1552V6.36207C17.5 5.06706 16.4502 4.01724 15.1552 4.01724H14.7644C14.2911 4.01724 13.8642 3.73265 13.6822 3.29576L12.8178 1.22148C12.6358 0.784591 12.2089 0.5 11.7356 0.5H6.26437C5.79107 0.5 5.36418 0.784591 5.18214 1.22148L4.31786 3.29576C4.13582 3.73265 3.70893 4.01724 3.23563 4.01724H2.84483C1.54981 4.01724 0.5 5.06706 0.5 6.36207V15.1552C0.5 16.4502 1.54981 17.5 2.84483 17.5H15.1552C16.4502 17.5 17.5 16.4502 17.5 15.1552Z" fill="white"/>
<path fill-rule="evenodd" clip-rule="evenodd" d="M8.99971 7.24104C7.38098 7.24104 6.06868 8.55334 6.06868 10.1721C6.06868 11.7908 7.38098 13.1031 8.99971 13.1031C10.6184 13.1031 11.9307 11.7908 11.9307 10.1721C11.9307 8.55334 10.6184 7.24104 8.99971 7.24104ZM4.31006 10.1721C4.31006 7.58208 6.40972 5.48242 8.99971 5.48242C11.5897 5.48242 13.6894 7.58208 13.6894 10.1721C13.6894 12.7621 11.5897 14.8617 8.99971 14.8617C6.40972 14.8617 4.31006 12.7621 4.31006 10.1721Z" fill="#3541B4"/>
</svg>