<svg width="65" height="65" viewBox="0 0 65 65" fill="none" xmlns="http://www.w3.org/2000/svg">
<rect x="-0.000244141" width="65" height="65" rx="32.5" fill="#3541B4" fill-opacity="0.15"/>
<rect x="8" y="8" width="50" height="50" rx="25" fill="#3541B4" fill-opacity="0.15"/>
<rect x="11.9998" y="12.0002" width="42" height="42" rx="21" fill="#3541B4"/>
<g clip-path="url(#clip0_2466_29467)">
<path d="M38.9044 22.7251H40.9268C41.2844 22.7251 41.6273 22.8671 41.8802 23.12C42.133 23.3728 42.2751 23.7158 42.2751 24.0734V27.4441M38.9044 22.7251H26.7699C25.6972 22.7251 24.6684 23.1512 23.9098 23.9098C23.1512 24.6684 22.7251 25.6972 22.7251 26.7699V38.2303C22.7251 39.303 23.1512 40.3318 23.9098 41.0904C24.6684 41.8489 25.6972 42.2751 26.7699 42.2751H38.9044M38.9044 22.7251V27.4441M42.2751 27.4441H38.9044M42.2751 27.4441V32.5001M38.9044 42.2751H40.9268C41.2844 42.2751 41.6273 42.133 41.8802 41.8802C42.133 41.6273 42.2751 41.2844 42.2751 40.9268V37.5561M38.9044 42.2751V37.5561M38.9044 27.4441V32.5001M42.2751 37.5561H38.9044M42.2751 37.5561V32.5001M38.9044 37.5561V32.5001M38.9044 32.5001H42.2751M28.1182 36.882C28.1182 36.882 29.0283 34.8596 31.1518 34.8596C33.2754 34.8596 34.1854 36.882 34.1854 36.882M32.8372 29.8035C32.8372 30.2505 32.6596 30.6792 32.3435 30.9953C32.0275 31.3113 31.5988 31.4889 31.1518 31.4889C30.7048 31.4889 30.2762 31.3113 29.9601 30.9953C29.644 30.6792 29.4665 30.2505 29.4665 29.8035C29.4665 29.3566 29.644 28.9279 29.9601 28.6118C30.2762 28.2958 30.7048 28.1182 31.1518 28.1182C31.5988 28.1182 32.0275 28.2958 32.3435 28.6118C32.6596 28.9279 32.8372 29.3566 32.8372 29.8035Z" stroke="white" stroke-width="1.8" stroke-linecap="round" stroke-linejoin="round"/>
</g>
<defs>
<clipPath id="clip0_2466_29467">
<rect width="23" height="23" fill="white" transform="translate(21 21)"/>
</clipPath>
</defs>
</svg>
