<svg xmlns="http://www.w3.org/2000/svg" width="16" height="18" viewBox="0 0 16 18" fill="none">
<path d="M4.48222 2.84485H3.0167C1.72169 2.84485 0.671875 3.89466 0.671875 5.18968V15.1552C0.671875 16.4502 1.72169 17.5 3.0167 17.5H12.9822C14.2773 17.5 15.327 16.4502 15.327 15.1552V5.18968C15.327 3.89466 14.2773 2.84485 12.9822 2.84485H11.5167" fill="#3541B4"/>
<path d="M10.3445 4.60345H5.65484C5.00733 4.60345 4.48242 4.07854 4.48242 3.43103V1.67241C4.48242 1.02491 5.00733 0.5 5.65484 0.5H10.3445C10.992 0.5 11.5169 1.02491 11.5169 1.67241V3.43103C11.5169 4.07854 10.992 4.60345 10.3445 4.60345Z" fill="#3541B4"/>
<path fill-rule="evenodd" clip-rule="evenodd" d="M4.48242 9.29313C4.48242 8.8075 4.8761 8.41382 5.36173 8.41382H10.6376C11.1232 8.41382 11.5169 8.8075 11.5169 9.29313C11.5169 9.77876 11.1232 10.1724 10.6376 10.1724H5.36173C4.8761 10.1724 4.48242 9.77876 4.48242 9.29313Z" fill="white"/>
<path fill-rule="evenodd" clip-rule="evenodd" d="M4.48242 12.8103C4.48242 12.3247 4.8761 11.931 5.36173 11.931H10.6376C11.1232 11.931 11.5169 12.3247 11.5169 12.8103C11.5169 13.296 11.1232 13.6897 10.6376 13.6897H5.36173C4.8761 13.6897 4.48242 13.296 4.48242 12.8103Z" fill="white"/>
</svg>