<svg xmlns="http://www.w3.org/2000/svg" width="55" height="46" viewBox="0 0 55 46" fill="none">
<path d="M36.6025 4.83716C36.9763 4.83716 37.2898 5.12507 37.29 5.49341C37.29 5.86197 36.9765 6.15063 36.6025 6.15063C33.4598 6.15068 30.6344 8.07861 29.623 10.8645L29.5303 11.137C29.4277 11.4642 29.0864 11.651 28.748 11.5911L28.7432 11.5969L28.6777 11.5784C28.3172 11.4766 28.1025 11.1127 28.2139 10.759L28.3203 10.4417C29.4967 7.18692 32.7547 4.8372 36.6025 4.83716Z" fill="#483EA8" stroke="#F9FFF9" stroke-width="0.223605"/>
<path d="M44.6666 32.2183H41.2104C40.8923 32.2183 40.6344 31.9741 40.6344 31.6729C40.6344 31.3718 40.8923 31.1275 41.2104 31.1275H44.6666C49.4307 31.1275 53.3071 27.4574 53.3071 22.9466C53.3071 18.4359 49.4307 14.7657 44.6666 14.7657H44.5834C44.4164 14.7657 44.2576 14.6971 44.1481 14.5775C44.0387 14.458 43.9893 14.2994 44.0132 14.1428C44.0646 13.8031 44.0905 13.4618 44.0905 13.1295C44.0905 9.22024 40.731 6.03937 36.602 6.03937C34.9957 6.03937 33.4639 6.51464 32.1719 7.41414C31.888 7.61166 31.4847 7.524 31.3206 7.22832C27.6615 0.631411 18.1045 -0.254486 13.1497 5.48425C11.0624 7.90189 10.2423 11.0469 10.8995 14.112C10.9719 14.4506 10.6983 14.7661 10.335 14.7661H10.1042C5.33998 14.7661 1.46365 18.4363 1.46365 22.947C1.46365 27.4578 5.33998 31.1279 10.1042 31.1279H13.5603C13.8784 31.1279 14.1364 31.3722 14.1364 31.6733C14.1364 31.9745 13.8784 32.2187 13.5603 32.2187H10.1042C4.70462 32.2187 0.311523 28.0593 0.311523 22.947C0.311523 17.9781 4.4614 13.9094 9.65197 13.685C9.16439 10.5049 10.0968 7.29725 12.2577 4.79394C17.5625 -1.35069 27.7289 -0.661961 32.0264 6.18975C33.3974 5.37594 34.9662 4.94902 36.6018 4.94902C41.6043 4.94902 45.5683 8.98028 45.2214 13.6901C50.3641 13.9632 54.4589 18.0104 54.4589 22.9466C54.4589 28.0593 50.0658 32.2183 44.6663 32.2183L44.6666 32.2183Z" fill="#483EA8"/>
<path d="M27.3076 17.6187C35.3041 17.6188 41.8202 23.7791 41.8203 31.3647C41.8203 38.9504 35.3042 45.1116 27.3076 45.1118C19.311 45.1118 12.7949 38.9506 12.7949 31.3647C12.7951 23.7791 19.311 17.6187 27.3076 17.6187ZM27.3076 18.9331C20.0583 18.9331 14.1701 24.5156 14.1699 31.3647C14.1699 38.2141 20.0583 43.7974 27.3076 43.7974C34.5568 43.7972 40.4443 38.2139 40.4443 31.3647C40.4442 24.5157 34.5567 18.9333 27.3076 18.9331Z" fill="#483EA8" stroke="#F9FFF9" stroke-width="0.223605"/>
<path d="M27.5713 25.9614C27.86 25.9615 28.1045 26.1843 28.1045 26.4722V36.854C28.1043 37.142 27.8598 37.3647 27.5713 37.3647C27.2826 37.3647 27.0383 37.1417 27.0381 36.854V26.4722L27.0488 26.3677C27.0995 26.132 27.3185 25.9614 27.5713 25.9614Z" fill="#483EA8" stroke="#483EA8" stroke-width="0.223605"/>
<path d="M27.2793 26.0452C27.4853 25.9159 27.7644 25.9374 27.9463 26.1096L31.3193 29.304L31.3887 29.384C31.5275 29.5833 31.504 29.8544 31.3193 30.0295L31.3203 30.0305C31.2418 30.1052 31.1449 30.151 31.0449 30.1692L30.9443 30.178C30.8436 30.1779 30.742 30.1504 30.6533 30.095L30.5693 30.0305L27.5703 27.1907L24.5723 30.0305C24.3905 30.2029 24.1115 30.2243 23.9053 30.095L23.8223 30.0305C23.6109 29.8304 23.611 29.5041 23.8223 29.304L27.1953 26.1096L27.2793 26.0452Z" fill="#483EA8" stroke="#483EA8" stroke-width="0.223605"/>
</svg>