<svg xmlns="http://www.w3.org/2000/svg" width="24" height="18" viewBox="0 0 24 18" fill="none">
  <g clip-path="url(#clip0_6300_10748)">
    <path d="M23.5963 1.13888C23.5963 1.13888 22.1927 2.14113 21.8636 3.68504C21.8472 3.76057 21.8345 3.83795 21.8236 3.91349C21.7618 3.86743 21.6963 3.8269 21.6254 3.79374C21.2054 3.5966 20.6981 3.69056 20.2945 3.93192C20.16 4.01298 20.0327 4.10878 19.9272 4.22854C19.5818 4.61728 19.5054 5.18289 19.4454 5.70796C19.5218 5.32475 19.8181 4.99497 20.18 4.89179C20.5418 4.78862 20.9509 4.91759 21.1927 5.21237C21.4291 5.50162 21.6672 5.92536 21.9363 6.27173C21.8309 6.49834 21.7145 6.73969 21.5854 7.00131C20.5963 9.00766 17.8781 10.734 16.9036 12.1839C16.0218 10.6879 14.1218 9.50141 13.2636 7.38821C12.9763 6.68074 12.7781 6.03038 12.6363 5.41687C12.9109 5.16262 13.1727 4.87705 13.4163 4.6836C13.7127 4.44594 14.14 4.40725 14.4727 4.58412C14.8054 4.76098 15.0254 5.14604 15.0218 5.53847C15.0727 5.01155 15.1145 4.4441 14.8563 3.98903C14.7781 3.85085 14.6727 3.72925 14.5581 3.62055C14.2127 3.29814 13.7363 3.101 13.2854 3.20418C13.2091 3.2226 13.1363 3.24839 13.0672 3.28156C13.0727 3.20418 13.0763 3.1268 13.0763 3.04942C13.0709 1.46866 11.9036 0.191895 11.9036 0.191895C11.9036 0.191895 10.7454 1.47603 10.7509 3.05679C10.7509 3.13601 10.7545 3.21339 10.76 3.29077C10.6872 3.25761 10.6127 3.22997 10.5363 3.21339C10.0854 3.11206 9.60905 3.31472 9.26542 3.63714C9.15087 3.74584 9.04724 3.86743 8.96906 4.00745C8.71451 4.46252 8.75996 5.03181 8.81269 5.55689C8.80542 5.16631 9.02542 4.77941 9.35633 4.59885C9.68724 4.42014 10.1145 4.45515 10.4127 4.69097C10.6781 4.89916 10.9691 5.21789 11.2709 5.48504C11.1327 6.08012 10.9436 6.71022 10.6709 7.39558C9.82542 9.51431 7.93451 10.7155 7.06178 12.2171C6.07815 10.7745 3.34905 9.06477 2.34724 7.06579C2.19633 6.76549 2.05814 6.47992 1.93087 6.20541C2.15633 5.88667 2.3636 5.52925 2.56724 5.27501C2.80724 4.97838 3.21633 4.84758 3.57815 4.94891C3.93996 5.05024 4.23815 5.37818 4.31815 5.75955C4.25633 5.23447 4.17633 4.67071 3.82724 4.28381C3.71996 4.1659 3.59269 4.06825 3.45815 3.98903C3.05269 3.74952 2.54542 3.66109 2.12724 3.86006C2.05633 3.89323 1.99087 3.9356 1.92905 3.98166C1.91814 3.90612 1.90542 3.83058 1.88724 3.75505C1.59451 2.4488 0.541781 1.53867 0.2236 1.28811C0.198145 1.23836 0.170872 1.21625 0.136327 1.22178C0.134509 1.22178 0.13269 1.2181 0.13269 1.2181C0.13269 1.2181 0.13269 1.2181 0.13269 1.22178C0.13269 1.22178 0.309054 3.6703 1.30178 9.01871C2.01087 12.8343 2.72542 15.8742 3.22724 17.8695C6.15269 17.8603 9.07633 17.8492 12.0018 17.84L20.7763 17.8105C21.4636 15.3104 22.1163 12.4824 22.6509 9.3356C23.2781 5.64164 23.4218 4.32987 23.6036 1.14072V1.13703L23.5963 1.13888ZM4.9836 14.8425C4.94542 15.7379 4.29996 16.3293 3.56724 16.4803L2.40178 11.3512C2.40178 11.3512 4.60178 13.0498 4.93451 14.3487C4.97633 14.5108 4.99087 14.6766 4.9836 14.8425ZM13.5763 15.2644C13.0527 16.8912 10.6909 16.8488 10.2254 15.2036C10.18 15.0451 10.1563 14.8793 10.1581 14.7116C10.1818 13.3686 11.9545 10.5479 11.9545 10.5479C11.9545 10.5479 13.6836 13.433 13.66 14.7743C13.6563 14.9419 13.6272 15.1059 13.5763 15.2625V15.2644ZM20.3509 16.2887C19.6181 16.1358 18.9745 15.5426 18.9381 14.6472C18.9309 14.4814 18.9454 14.3155 18.9891 14.1534C19.3254 12.8545 21.5291 11.1614 21.5291 11.1614L20.3509 16.2887Z" fill="url(#paint0_radial_6300_10748)"/>
  </g>
  <defs>
    <radialGradient id="paint0_radial_6300_10748" cx="0" cy="0" r="1" gradientUnits="userSpaceOnUse" gradientTransform="translate(11.9999 13.5) rotate(90) scale(6 7.96633)">
      <stop stop-color="#FFF3D7"/>
      <stop offset="1" stop-color="#FDB022"/>
    </radialGradient>
    <clipPath id="clip0_6300_10748">
      <rect width="23.7273" height="18" fill="white"/>
    </clipPath>
  </defs>
</svg>