<svg xmlns="http://www.w3.org/2000/svg" width="18" height="17" viewBox="0 0 18 17" fill="none">
<g id="Doctor element-2">
<path id="Vector" d="M3.63591 12.849C3.86961 13.9611 4.50008 14.946 5.40582 15.6138C6.31155 16.2816 7.42846 16.585 8.54128 16.4657C9.6541 16.3463 10.6841 15.8127 11.4327 14.9675C12.1814 14.1223 12.5957 13.0254 12.5958 11.8882V10.0397C13.638 9.84555 14.5804 9.28659 15.2594 8.45989C15.9384 7.6332 16.311 6.59097 16.3126 5.51416V3.1534C16.312 2.80923 16.1772 2.47933 15.9377 2.23597C15.6983 1.9926 15.3736 1.8556 15.035 1.85498H13.1766V3.50751H14.6865V5.51416C14.6865 6.2968 14.3806 7.04738 13.836 7.60079C13.2915 8.1542 12.5529 8.46511 11.7827 8.46511C11.0126 8.46511 10.274 8.1542 9.72947 7.60079C9.1849 7.04738 8.87897 6.2968 8.87897 5.51416V3.50751H10.3889V1.85498H8.53052C8.19185 1.8556 7.86723 1.9926 7.62775 2.23597C7.38828 2.47933 7.25347 2.80923 7.25285 3.1534V5.51416C7.25448 6.59097 7.62713 7.6332 8.30609 8.45989C8.98506 9.28659 9.92746 9.84555 10.9697 10.0397V11.8882C10.9702 12.5938 10.7218 13.2762 10.2697 13.8117C9.81761 14.3472 9.19165 14.7004 8.50533 14.8071C7.81902 14.9139 7.11777 14.7673 6.52872 14.3937C5.93967 14.0202 5.50182 13.4445 5.29455 12.7711C5.88897 12.5422 6.38361 12.1055 6.68959 11.5392C6.99558 10.973 7.09287 10.3145 6.96397 9.68189C6.83508 9.04932 6.48846 8.48419 5.98637 8.08801C5.48428 7.69183 4.85964 7.49058 4.22465 7.52041C3.58967 7.55023 2.98596 7.80918 2.52197 8.25073C2.05798 8.69228 1.76413 9.2875 1.6932 9.92946C1.62227 10.5714 1.77892 11.218 2.13499 11.7532C2.49107 12.2883 3.02324 12.6768 3.63591 12.849ZM4.34908 9.17333C4.55583 9.17333 4.75794 9.23564 4.92985 9.35237C5.10176 9.4691 5.23574 9.63502 5.31486 9.82913C5.39398 10.0233 5.41469 10.2369 5.37435 10.4429C5.33401 10.649 5.23445 10.8383 5.08826 10.9869C4.94206 11.1354 4.7558 11.2366 4.55302 11.2776C4.35024 11.3186 4.14005 11.2976 3.94903 11.2172C3.75802 11.1367 3.59476 11.0006 3.47989 10.8259C3.36503 10.6512 3.30372 10.4458 3.30372 10.2357C3.30372 9.95393 3.41385 9.68371 3.6099 9.48449C3.80594 9.28526 4.07183 9.17333 4.34908 9.17333Z" fill="#3541B4"/>
</g>
</svg>