<svg xmlns="http://www.w3.org/2000/svg" width="18" height="18" viewBox="0 0 18 18" fill="none">
<path d="M9 17.5C13.6944 17.5 17.5 13.6944 17.5 9C17.5 4.30558 13.6944 0.5 9 0.5C4.30558 0.5 0.5 4.30558 0.5 9C0.5 13.6944 4.30558 17.5 9 17.5Z" fill="#3541B4"/>
<path fill-rule="evenodd" clip-rule="evenodd" d="M5.48242 7.09479C5.48242 5.55698 6.72902 4.3103 8.2669 4.3103H11.6376C12.1232 4.3103 12.5169 4.70398 12.5169 5.18961C12.5169 5.67524 12.1232 6.06892 11.6376 6.06892H8.2669C7.70031 6.06892 7.24104 6.52821 7.24104 7.09479C7.24104 7.6614 7.70029 8.12065 8.2669 8.12065H9.73242C11.2703 8.12065 12.5169 9.36726 12.5169 10.9051C12.5169 12.443 11.2703 13.6896 9.73242 13.6896H6.36173C5.8761 13.6896 5.48242 13.2959 5.48242 12.8103C5.48242 12.3247 5.8761 11.931 6.36173 11.931H9.73242C10.299 11.931 10.7583 11.4717 10.7583 10.9051C10.7583 10.3385 10.299 9.87927 9.73242 9.87927H8.2669C6.72903 9.87927 5.48242 8.63266 5.48242 7.09479Z" fill="white"/>
<path fill-rule="evenodd" clip-rule="evenodd" d="M9.0004 3.13782C9.48603 3.13782 9.87971 3.5315 9.87971 4.01713V4.60333C9.87971 5.08896 9.48603 5.48265 9.0004 5.48265C8.51477 5.48265 8.12109 5.08896 8.12109 4.60333V4.01713C8.12109 3.5315 8.51477 3.13782 9.0004 3.13782Z" fill="white"/>
<path fill-rule="evenodd" clip-rule="evenodd" d="M9.0004 12.5173C9.48603 12.5173 9.87971 12.911 9.87971 13.3966V13.9829C9.87971 14.4685 9.48603 14.8622 9.0004 14.8622C8.51477 14.8622 8.12109 14.4685 8.12109 13.9829V13.3966C8.12109 12.911 8.51477 12.5173 9.0004 12.5173Z" fill="white"/>
</svg>