<svg width="147" height="73" viewBox="0 0 147 73" fill="none" xmlns="http://www.w3.org/2000/svg">
<path d="M15.8123 28.2098L8.15078 33.1001L15.8123 37.9904L8.15078 42.8806L0.489258 37.9496L8.15078 33.0593L0.489258 28.2098L8.15078 23.3195L15.8123 28.2098ZM8.11003 44.4292L15.7716 39.539L23.4331 44.4292L15.7716 49.3195L8.11003 44.4292ZM15.8123 37.9496L23.4738 33.0593L15.8123 28.2098L23.4331 23.3195L31.0946 28.2098L23.4331 33.1001L31.0946 37.9904L23.4331 42.8806L15.8123 37.9496Z" fill="white"/>
<path d="M37.0842 28.2103H43.2787C47.2317 28.2103 50.4919 30.4924 50.4919 35.7087V36.809C50.4919 42.0661 47.4354 44.4297 43.4009 44.4297H37.0842V28.2103ZM40.5482 31.1444V41.4548H43.1972C45.4386 41.4548 46.9464 39.9877 46.9464 36.7275V35.8717C46.9464 32.6115 45.357 31.1444 43.0749 31.1444H40.5482ZM52.3258 31.3074H55.097L55.5453 34.3639C56.075 32.2855 57.4199 31.1852 59.865 31.1852H60.7209V34.6899H59.2945C56.4826 34.6899 55.7898 35.6679 55.7898 38.4391V44.4705H52.3665V31.3074H52.3258ZM61.4137 38.1538V37.7871C61.4137 33.3858 64.2256 30.9814 68.0564 30.9814C71.9686 30.9814 74.6991 33.3858 74.6991 37.7871V38.1538C74.6991 42.4736 72.0501 44.7965 68.0564 44.7965C63.8181 44.7557 61.4137 42.4736 61.4137 38.1538ZM71.1943 38.1131V37.7871C71.1943 35.3419 69.9717 33.8748 68.0156 33.8748C66.1002 33.8748 64.8369 35.2197 64.8369 37.7871V38.1131C64.8369 40.4767 66.0595 41.8216 68.0156 41.8216C69.9717 41.7808 71.1943 40.4767 71.1943 38.1131ZM76.4922 31.3074H79.3449L79.6709 33.7933C80.3637 32.1225 81.8308 30.9814 83.9907 30.9814C87.3324 30.9814 89.5331 33.3858 89.5331 37.8278V38.1946C89.5331 42.5143 87.0879 44.7965 83.9907 44.7965C81.9123 44.7965 80.486 43.8592 79.7932 42.3513V48.994H76.4514L76.4922 31.3074ZM86.0691 38.1131V37.8278C86.0691 35.2197 84.7243 33.9156 82.9311 33.9156C81.0158 33.9156 79.7524 35.3827 79.7524 37.8278V38.0723C79.7524 40.3952 80.975 41.8623 82.8904 41.8623C84.8465 41.8216 86.0691 40.5582 86.0691 38.1131ZM94.5864 42.0253L94.3012 44.4297H91.367V26.9062H94.7087V33.6303C95.4422 31.9187 96.9094 30.9814 98.9877 30.9814C102.126 31.0222 104.449 33.1821 104.449 37.5426V37.9501C104.449 42.3106 102.248 44.7965 98.9062 44.7965C96.7056 44.7557 95.2792 43.7369 94.5864 42.0253ZM100.944 37.9501V37.6241C100.944 35.2197 99.6398 33.8748 97.8059 33.8748C95.9313 33.8748 94.6272 35.3827 94.6272 37.6648V37.9501C94.6272 40.3952 95.8905 41.8216 97.7652 41.8216C99.762 41.8216 100.944 40.5582 100.944 37.9501ZM105.916 38.1538V37.7871C105.916 33.3858 108.728 30.9814 112.558 30.9814C116.471 30.9814 119.201 33.3858 119.201 37.7871V38.1538C119.201 42.4736 116.511 44.7965 112.558 44.7965C108.32 44.7557 105.916 42.4736 105.916 38.1538ZM115.737 38.1131V37.7871C115.737 35.3419 114.515 33.8748 112.558 33.8748C110.643 33.8748 109.38 35.2197 109.38 37.7871V38.1131C109.38 40.4767 110.602 41.8216 112.558 41.8216C114.515 41.7808 115.737 40.4767 115.737 38.1131ZM123.684 37.6241L119.079 31.3074H123.032L125.681 35.2604L128.371 31.3074H132.283L127.596 37.5833L132.527 44.4297H128.656L125.64 40.0692L122.706 44.4297H118.671L123.684 37.6241Z" fill="white"/>
</svg>
