<svg width="147" height="73" viewBox="0 0 147 73" fill="none" xmlns="http://www.w3.org/2000/svg">
<path d="M46.9304 45.0512V26.3846H58.3211V29.9975H51.2459V35.0154H58.3211V38.5781H51.2459V45.0512H46.9304Z" fill="white"/>
<path d="M61.1805 45.0511V32.2052H65.2451V34.8647C65.4458 33.9615 65.8974 33.2088 66.5497 32.707C67.2021 32.2052 67.9548 31.9543 68.7576 31.9543C69.1591 31.9543 69.5605 32.0045 69.8114 32.0546V35.8683C69.3096 35.8181 68.9082 35.7679 68.6071 35.7679C66.349 35.7679 65.2451 37.2231 65.2451 40.0331V45.0009H61.1805V45.0511Z" fill="white"/>
<path d="M76.8382 45.3522C74.9815 45.3522 73.4762 44.6999 72.4224 43.4454C71.3184 42.1909 70.8167 40.535 70.8167 38.578C70.8167 36.621 71.3686 35.0153 72.4726 33.7106C73.5765 32.4562 75.0819 31.8038 76.8884 31.8038C77.7916 31.8038 78.5945 32.0046 79.297 32.406C79.9995 32.8074 80.5514 33.3092 80.9027 34.0117V32.1551H84.9672V45.001H80.9027V43.1945C80.5514 43.8468 79.9995 44.3486 79.2468 44.7501C78.5443 45.2017 77.7414 45.3522 76.8382 45.3522ZM77.9923 41.9902C78.9457 41.9902 79.7486 41.6891 80.2504 41.0368C80.7522 40.3845 81.0532 39.5816 81.0532 38.6282C81.0532 37.6748 80.8024 36.8719 80.2504 36.2196C79.6984 35.5673 78.9457 35.2662 77.9923 35.2662C77.0891 35.2662 76.3364 35.5673 75.7844 36.2196C75.2324 36.8218 74.9314 37.6748 74.9314 38.6282C74.9314 39.6318 75.2324 40.4347 75.7844 41.087C76.3364 41.6891 77.0891 41.9902 77.9923 41.9902Z" fill="white"/>
<path d="M88.3284 45.0514V32.2056H92.3929V34.0622C92.694 33.4099 93.1456 32.8579 93.7979 32.4565C94.4503 32.055 95.203 31.8543 96.056 31.8543C98.0632 31.8543 99.418 32.6572 100.07 34.2127C100.422 33.5102 100.974 32.9081 101.676 32.5066C102.429 32.055 103.232 31.8543 104.135 31.8543C107.196 31.8543 108.701 33.6106 108.701 37.0729V45.0514H104.586V37.8256C104.586 36.1195 103.934 35.3167 102.68 35.3167C101.224 35.3167 100.522 36.3704 100.522 38.478V45.1016H96.5076V37.7755C96.5076 36.1195 95.8553 35.2665 94.6008 35.2665C93.8983 35.2665 93.3463 35.5174 92.9951 35.969C92.6438 36.4206 92.4431 37.2737 92.4431 38.4278V45.0514H88.3284Z" fill="white"/>
<path d="M124.659 37.926C124.659 38.478 124.608 39.0299 124.558 39.7324H115.074C115.125 40.5855 115.375 41.2378 115.927 41.6894C116.479 42.141 117.182 42.3919 118.085 42.3919C119.34 42.3919 120.143 41.9905 120.494 41.1876H124.508C124.307 42.4421 123.605 43.4959 122.451 44.2486C121.246 45.0514 119.841 45.4529 118.135 45.4529C115.927 45.4529 114.221 44.8507 112.967 43.6464C111.712 42.4421 111.06 40.7862 111.06 38.6285C111.06 36.521 111.712 34.8651 112.967 33.6608C114.221 32.4565 115.927 31.8543 117.985 31.8543C119.992 31.8543 121.598 32.4063 122.852 33.5604C124.006 34.6643 124.659 36.1195 124.659 37.926ZM115.024 37.1733H120.594C120.594 36.3203 120.343 35.6679 119.892 35.2163C119.44 34.7647 118.788 34.5138 117.884 34.5138C117.031 34.5138 116.329 34.7647 115.827 35.2665C115.325 35.7683 115.074 36.4206 115.024 37.1733Z" fill="white"/>
<path d="M126.967 45.0511V32.2052H131.031V34.8647C131.232 33.9615 131.683 33.2088 132.336 32.707C132.988 32.2052 133.741 31.9543 134.544 31.9543C134.945 31.9543 135.347 32.0045 135.597 32.0546V35.8683C135.096 35.8181 134.694 35.7679 134.393 35.7679C132.135 35.7679 131.031 37.2231 131.031 40.0331V45.0009H126.967V45.0511Z" fill="white"/>
<path d="M30.3718 22.3195V31.6529H21.0384L11.7051 22.3195H30.3718ZM11.7051 31.6529H21.0384L30.3718 40.9862H21.0384V50.3195L11.7051 40.9862V31.6529Z" fill="white"/>
</svg>
