<svg xmlns="http://www.w3.org/2000/svg" width="18" height="18" viewBox="0 0 18 18" fill="none">
<path d="M0.5 4.01724C0.5 2.07473 2.07473 0.5 4.01724 0.5H13.9828C15.9253 0.5 17.5 2.07473 17.5 4.01724V13.9828C17.5 15.9253 15.9253 17.5 13.9828 17.5H4.01724C2.07473 17.5 0.5 15.9253 0.5 13.9828V4.01724Z" fill="#3541B4"/>
<path d="M10.3358 4.45581H7.66274V7.66348H4.45508V10.3365H7.66274V13.5442H10.3358V10.3365H13.5435V7.66348H10.3358V4.45581Z" fill="white"/>
<path fill-rule="evenodd" clip-rule="evenodd" d="M7.12954 4.45588C7.12954 4.16062 7.36889 3.92126 7.66415 3.92126H10.3372C10.6325 3.92126 10.8718 4.16062 10.8718 4.45588V7.12893H13.5449C13.8401 7.12893 14.0795 7.36828 14.0795 7.66354V10.3366C14.0795 10.6319 13.8401 10.8712 13.5449 10.8712H10.8718V13.5443C10.8718 13.8395 10.6325 14.0789 10.3372 14.0789H7.66415C7.36889 14.0789 7.12954 13.8395 7.12954 13.5443V10.8712H4.45649C4.16123 10.8712 3.92188 10.6319 3.92188 10.3366V7.66354C3.92188 7.36828 4.16123 7.12893 4.45649 7.12893H7.12954V4.45588ZM8.19876 4.99049V7.66354C8.19876 7.9588 7.95941 8.19815 7.66415 8.19815H4.9911V9.80198H7.66415C7.95941 9.80198 8.19876 10.0413 8.19876 10.3366V13.0097H9.8026V10.3366C9.8026 10.0413 10.0419 9.80198 10.3372 9.80198H13.0103V8.19815H10.3372C10.0419 8.19815 9.8026 7.9588 9.8026 7.66354V4.99049H8.19876Z" fill="white"/>
</svg>