<svg width="147" height="73" viewBox="0 0 147 73" fill="none" xmlns="http://www.w3.org/2000/svg">
<path d="M34.5664 27.0588V34.9184H27.3457V27.0588H23.9199V45.8208H27.3467V38.2162H34.5655V45.8208H37.9932V27.0588H34.5664ZM48.9615 39.7566C48.9615 40.5086 48.6628 41.2298 48.131 41.7616C47.5992 42.2933 46.878 42.5921 46.126 42.5921C45.374 42.5921 44.6527 42.2933 44.121 41.7616C43.5892 41.2298 43.2905 40.5086 43.2905 39.7566V31.7198H40.0399V39.7566C40.0399 41.3691 40.6805 42.9155 41.8207 44.0558C42.961 45.196 44.5074 45.8365 46.12 45.8365C47.7325 45.8365 49.2789 45.196 50.4192 44.0558C51.5594 42.9155 52.2 41.3691 52.2 39.7566V31.7198H48.9615V39.7566ZM73.0469 32.548C73.0469 30.9 74.1366 30.3779 75.3302 30.3779C76.2928 30.3779 77.5634 31.1105 78.3952 31.999L80.5236 29.4895C79.4608 28.052 77.3055 27.0588 75.5407 27.0588C72.0138 27.0588 69.4635 29.1241 69.4635 32.548C69.4635 38.9006 77.2276 36.8845 77.2276 40.4401C77.2276 41.5362 76.163 42.5044 74.9444 42.5044C73.0219 42.5044 72.3987 41.565 71.5158 40.5708L69.1528 43.0275C70.6644 44.8823 72.5285 45.8245 74.7608 45.8245C78.1114 45.8245 80.8065 43.7341 80.8065 40.466C80.8065 33.4142 73.0414 35.6056 73.0414 32.548M121.081 42.8235C119.16 42.8235 118.614 41.9925 118.614 40.7201V35.0863H121.6V32.2317H118.614V28.4656L115.318 29.9448V41.4203C115.318 44.3555 117.343 45.8347 120.12 45.8347C120.556 45.8421 120.992 45.8069 121.42 45.7308L122.224 42.7706C121.861 42.7956 121.445 42.8207 121.081 42.8207M61.3348 31.8135C59.7249 31.8135 58.6009 32.2809 57.514 33.3465V27.171H54.2588V38.6177C54.2588 42.9023 57.3563 45.8384 60.8377 45.8384C64.6994 45.8384 68.0965 42.8503 68.0965 38.8273C68.0965 34.8544 64.9702 31.8163 61.3348 31.8163M61.3144 42.5619C60.8293 42.5619 60.3489 42.4664 59.9007 42.2807C59.4525 42.0951 59.0452 41.8229 58.7022 41.4799C58.3591 41.1369 58.087 40.7296 57.9014 40.2814C57.7157 39.8332 57.6201 39.3528 57.6201 38.8677C57.6201 38.3825 57.7157 37.9022 57.9014 37.4539C58.087 37.0057 58.3591 36.5985 58.7022 36.2554C59.0452 35.9124 59.4525 35.6403 59.9007 35.4546C60.3489 35.269 60.8293 35.1734 61.3144 35.1734C62.2942 35.1734 63.2339 35.5626 63.9267 36.2554C64.6195 36.9483 65.0087 37.8879 65.0087 38.8677C65.0087 39.8475 64.6195 40.7871 63.9267 41.4799C63.2339 42.1727 62.2942 42.5619 61.3144 42.5619ZM96.6872 38.6567C96.6872 34.6263 93.2976 31.6456 89.4285 31.6456C85.9479 31.6456 82.8495 34.5808 82.8495 38.8663V50.3195H86.1047V44.1357C87.1897 45.1994 88.3156 45.6687 89.9237 45.6687C93.5591 45.6687 96.6863 42.6306 96.6863 38.6567M93.6045 38.6159C93.6045 39.5957 93.2153 40.5353 92.5225 41.2281C91.8297 41.9209 90.89 42.3101 89.9102 42.3101C88.9305 42.3101 87.9908 41.9209 87.298 41.2281C86.6052 40.5353 86.216 39.5957 86.216 38.6159C86.216 37.6361 86.6052 36.6965 87.298 36.0037C87.9908 35.3109 88.9305 34.9216 89.9102 34.9216C90.89 34.9216 91.8297 35.3109 92.5225 36.0037C93.2153 36.6965 93.6045 37.6361 93.6045 38.6159Z" fill="white"/>
<path d="M107.172 31.3634V28.0925C107.604 27.8905 107.97 27.5699 108.228 27.168C108.485 26.766 108.622 26.2994 108.625 25.8223V25.7471C108.625 24.3561 107.497 23.2284 106.106 23.2284H106.031C105.363 23.2284 104.722 23.4937 104.25 23.9661C103.777 24.4385 103.512 25.0791 103.512 25.7471V25.8223C103.514 26.2994 103.652 26.766 103.909 27.168C104.166 27.5699 104.532 27.8905 104.964 28.0925V31.3634C103.722 31.5536 102.552 32.0687 101.573 32.8565L92.6019 25.8696C92.6659 25.6386 92.6993 25.4012 92.703 25.1629C92.7041 24.6015 92.5387 24.0525 92.2277 23.5852C91.9167 23.1178 91.4741 22.7532 90.9559 22.5375C90.4377 22.3217 89.8671 22.2645 89.3163 22.3731C88.7656 22.4817 88.2594 22.7511 87.8618 23.1474C87.4642 23.5437 87.1931 24.049 87.0827 24.5994C86.9724 25.1498 87.0277 25.7205 87.2418 26.2395C87.4558 26.7584 87.819 27.2022 88.2853 27.5147C88.7516 27.8272 89.3001 27.9944 89.8615 27.9951C90.3526 27.9928 90.8345 27.8617 91.2591 27.6149L100.093 34.4887C99.299 35.6875 98.885 37.0976 98.9045 38.5351C98.924 39.9726 99.3761 41.3709 100.202 42.5477L97.5153 45.2353C97.2981 45.1658 97.0718 45.129 96.8438 45.1258C96.3831 45.1262 95.9327 45.2632 95.5498 45.5194C95.1668 45.7756 94.8684 46.1396 94.6922 46.5654C94.516 46.9911 94.47 47.4596 94.56 47.9115C94.65 48.3634 94.8719 48.7785 95.1977 49.1043C95.5236 49.4301 95.9387 49.652 96.3906 49.742C96.8425 49.832 97.3109 49.786 97.7367 49.6099C98.1625 49.4337 98.5265 49.1353 98.7827 48.7523C99.0389 48.3693 99.1759 47.919 99.1762 47.4582C99.1732 47.2302 99.1364 47.0039 99.0668 46.7868L101.725 44.128C102.591 44.7952 103.599 45.2553 104.671 45.4728C105.743 45.6903 106.851 45.6596 107.909 45.383C108.967 45.1064 109.948 44.5912 110.777 43.8769C111.605 43.1627 112.259 42.2682 112.688 41.2622C113.118 40.2562 113.311 39.1652 113.254 38.0729C113.196 36.9806 112.89 35.9159 112.357 34.9604C111.825 34.005 111.081 33.184 110.182 32.5605C109.283 31.9371 108.254 31.5276 107.172 31.3634ZM106.071 42.1211C105.579 42.1346 105.09 42.0495 104.633 41.8709C104.175 41.6923 103.757 41.4237 103.405 41.081C103.053 40.7384 102.773 40.3286 102.582 39.8759C102.391 39.4232 102.292 38.9368 102.292 38.4454C102.292 37.954 102.391 37.4676 102.582 37.0149C102.773 36.5622 103.053 36.1525 103.405 35.8098C103.757 35.4671 104.175 35.1986 104.633 35.0199C105.09 34.8413 105.579 34.7562 106.071 34.7697C107.023 34.803 107.925 35.2046 108.586 35.8897C109.248 36.5748 109.618 37.4901 109.619 38.4427C109.619 39.3953 109.25 40.3109 108.589 40.9967C107.928 41.6825 107.026 42.085 106.074 42.1193" fill="white"/>
</svg>
