<svg width="16" height="18" viewBox="0 0 16 18" fill="none" xmlns="http://www.w3.org/2000/svg">
<path d="M10.6602 0.250854V4.84261C10.6594 5.24369 10.817 5.62886 11.0986 5.91443C11.3889 6.19799 11.7769 6.35931 12.1826 6.36508H15.4103L10.6602 0.250854Z" fill="#3541B4"/>
<path d="M11.8328 7.66144C11.0848 7.62604 10.3792 7.30375 9.86262 6.76157C9.34607 6.21938 9.0583 5.499 9.05914 4.75014V0.250854H1.38389C1.17417 0.253596 0.973802 0.338129 0.82549 0.486441C0.677178 0.634753 0.592645 0.835119 0.589903 1.04485V16.3953C0.58806 16.5438 0.629012 16.6896 0.707863 16.8154C0.786714 16.9412 0.900126 17.0416 1.03454 17.1046C1.14311 17.1589 1.26255 17.1878 1.38389 17.1893C1.56097 17.1912 1.73315 17.1313 1.87088 17.0199L3.56472 15.7072C3.61585 15.6877 3.67239 15.6877 3.72352 15.7072C3.78949 15.7042 3.85404 15.727 3.90349 15.7707L5.36444 17.0411C5.50776 17.1758 5.69706 17.2509 5.89376 17.2509C6.09047 17.2509 6.27977 17.1758 6.42309 17.0411L7.85227 15.8025C7.90151 15.7621 7.96324 15.74 8.02695 15.74C8.09066 15.74 8.1524 15.7621 8.20163 15.8025L9.62023 17.0411C9.76355 17.1758 9.95285 17.2509 10.1496 17.2509C10.3463 17.2509 10.5356 17.1758 10.6789 17.0411L12.1398 15.7707C12.1871 15.7303 12.247 15.7078 12.3092 15.7072C12.3645 15.6907 12.4233 15.6907 12.4786 15.7072L14.1724 17.0199C14.2895 17.0993 14.4257 17.1459 14.5668 17.1549C14.708 17.164 14.849 17.1352 14.9753 17.0715C15.1015 17.0079 15.2085 16.9116 15.2851 16.7927C15.3618 16.6738 15.4052 16.5366 15.4111 16.3953V7.66144H11.8328Z" fill="#3541B4"/>
</svg>
