<svg width="22" height="23" viewBox="0 0 22 23" fill="none" xmlns="http://www.w3.org/2000/svg">
<path d="M11.0098 2.40094C9.45991 2.40094 7.97353 3.01662 6.87761 4.11253C5.78169 5.20845 5.16602 6.69483 5.16602 8.24469C5.20564 9.32662 5.51068 10.3822 6.05427 11.3185C6.56383 12.2088 7.17573 13.0364 7.87752 13.7846C8.43376 14.4116 9.02699 15.0048 9.65402 15.5611L10.2501 16.0636L10.4137 16.1922H10.4838C10.6401 16.2948 10.8229 16.3494 11.0098 16.3494C11.1967 16.3494 11.3795 16.2948 11.5357 16.1922H11.6058L11.7811 16.0636L12.3655 15.5611C12.9967 15.0053 13.5938 14.4121 14.1537 13.7846C14.8519 13.0122 15.4633 12.1657 15.977 11.2601C16.5082 10.3404 16.809 9.30583 16.8535 8.24469C16.8535 7.47728 16.7024 6.71738 16.4087 6.00838C16.115 5.29939 15.6846 4.65518 15.1419 4.11253C14.5993 3.56989 13.9551 3.13944 13.2461 2.84577C12.5371 2.55209 11.7772 2.40094 11.0098 2.40094Z" fill="#3541B4"/>
<path fill-rule="evenodd" clip-rule="evenodd" d="M10.1914 7.41488C10.4091 7.19896 10.7029 7.07724 11.0096 7.07595C11.1634 7.07506 11.3158 7.10454 11.4582 7.1627C11.6006 7.22086 11.7302 7.30656 11.8394 7.41488C11.9489 7.52354 12.0359 7.6528 12.0952 7.79522C12.1545 7.93765 12.1851 8.09041 12.1851 8.2447C12.1851 8.39899 12.1545 8.55175 12.0952 8.69417C12.0359 8.83659 11.9489 8.96586 11.8394 9.07451C11.7302 9.18283 11.6006 9.26853 11.4582 9.32669C11.3158 9.38485 11.1634 9.41434 11.0096 9.41345C10.7784 9.41248 10.5527 9.34299 10.3611 9.21377C10.1694 9.08455 10.0204 8.9014 9.93282 8.68748C9.84525 8.47356 9.82308 8.23848 9.86911 8.01196C9.91514 7.78544 10.0273 7.57766 10.1914 7.41488Z" fill="white"/>
<path d="M18.0803 21.1009H3.93846C3.63656 21.0991 3.33823 21.0355 3.06189 20.9139C2.79042 20.7849 2.55093 20.5973 2.36064 20.3646C2.16495 20.1373 2.02163 19.8698 1.94084 19.581C1.86005 19.2922 1.84377 18.9891 1.89314 18.6933L2.83983 13.6443C2.88262 13.4131 3.0142 13.2078 3.20642 13.0724C3.39863 12.937 3.63621 12.8822 3.86833 12.9197C4.0943 12.9651 4.29377 13.0965 4.42462 13.2862C4.55547 13.476 4.60745 13.7091 4.56958 13.9365L3.64627 18.9972C3.63986 19.0398 3.63986 19.0831 3.64627 19.1257C3.6585 19.1679 3.67831 19.2075 3.70471 19.2426C3.73197 19.2787 3.76825 19.3069 3.80989 19.3244H3.92677H18.0686H18.1972C18.2335 19.3036 18.2653 19.2758 18.2907 19.2426C18.3246 19.2111 18.349 19.1705 18.3608 19.1257C18.3725 19.0877 18.3725 19.0469 18.3608 19.0089L17.4375 13.9482C17.4176 13.8346 17.4202 13.7182 17.4452 13.6056C17.4702 13.4931 17.5172 13.3865 17.5834 13.2921C17.6496 13.1977 17.7338 13.1172 17.831 13.0553C17.9283 12.9934 18.0369 12.9513 18.1505 12.9314C18.264 12.9114 18.3804 12.914 18.493 12.9391C18.6056 12.9641 18.7121 13.011 18.8065 13.0772C18.9972 13.2109 19.127 13.4149 19.1673 13.6443L20.0906 18.6933C20.1474 18.9867 20.1474 19.2882 20.0906 19.5816C20.009 19.8677 19.8698 20.1342 19.6815 20.3646C19.4914 20.5945 19.2516 20.7783 18.9803 20.9022C18.6988 21.0345 18.3914 21.1024 18.0803 21.1009Z" fill="#3541B4"/>
</svg>
