<svg width="176" height="120" viewBox="0 0 176 120" fill="none" xmlns="http://www.w3.org/2000/svg">
<path fill-rule="evenodd" clip-rule="evenodd" d="M31.0376 50.9302C55.727 64.5348 70.1879 90.3488 81.4745 119.651C67.0136 93.8371 50.0837 72.2092 27.8633 60.6976C28.9214 57.2092 29.9795 54.0697 31.0376 50.9302Z" fill="#3541B4"/>
<path fill-rule="evenodd" clip-rule="evenodd" d="M102.525 27.1317L115.643 22.6573L115.643 8.76595L123.721 19.9301L136.838 15.4557L129.079 26.666L137.431 37.4175L123.995 33.4089L116.236 44.6192L115.961 31.1404L102.525 27.1317Z" fill="#0CADBB"/>
<path fill-rule="evenodd" clip-rule="evenodd" d="M112.205 26.9252L119.06 28.7232L119.024 35.4981L122.939 30.0637L129.449 31.9327L125.481 26.6923L129.051 21.3289L122.629 23.3598L118.662 18.1194L118.971 24.8233L112.205 26.9252Z" fill="#0CADBB"/>
<path fill-rule="evenodd" clip-rule="evenodd" d="M140.023 46.0466L153.779 44.3024L156.248 30.6978L162.244 43.2559L175.999 41.5117L165.771 50.9303L171.767 63.1396L159.775 56.5117L149.546 65.9303L152.015 52.3257L140.023 46.0466Z" fill="#F2CF63"/>
<path fill-rule="evenodd" clip-rule="evenodd" d="M149.547 47.7906L155.543 50.9302L154.132 57.5581L159.07 53.0232L165.066 56.1627L162.244 50.2325L167.182 45.3488L160.481 46.3953L157.659 40.1162L156.248 46.7441L149.547 47.7906Z" fill="#F2CF63"/>
<path fill-rule="evenodd" clip-rule="evenodd" d="M35.9862 11.7191L48.6836 16.9517L57.5012 6.48657L56.4431 20.0912L69.1405 25.3238L55.7377 28.4633L54.6796 42.068L47.6255 30.5563L34.2227 33.6959L43.0403 23.2308L35.9862 11.7191Z" fill="#F2CF63"/>
<path fill-rule="evenodd" clip-rule="evenodd" d="M43.3921 17.9982L46.9192 23.5796L42.334 28.8122L49.0354 27.068L52.5624 32.9982L52.9151 26.0215L59.6165 24.6261L53.2678 22.1843L53.9733 15.2075L49.3881 20.4401L43.3921 17.9982Z" fill="#F2CF63"/>
<path fill-rule="evenodd" clip-rule="evenodd" d="M1.76353 32.7907L14.4609 38.0233L23.2786 27.907L22.2204 41.5116L34.9178 46.3954L21.8677 49.8837L20.4569 63.4884L13.4028 51.6279L0 54.7674L8.81764 44.6512L1.76353 32.7907Z" fill="#3541B4"/>
<path fill-rule="evenodd" clip-rule="evenodd" d="M9.16944 39.0698L12.6965 45L8.11133 49.8837L14.8127 48.4884L18.3398 54.0698L18.6925 47.4419L25.3939 45.6977L19.0452 43.2558L19.7506 36.6279L15.1654 41.5116L9.16944 39.0698Z" fill="#3541B4"/>
<path fill-rule="evenodd" clip-rule="evenodd" d="M140.024 52.6743C114.629 65.5813 99.8154 91.0464 87.4707 120C102.637 94.5348 120.272 73.2557 142.845 62.4418C142.14 59.3022 141.082 55.8139 140.024 52.6743Z" fill="#F2CF63"/>
<path fill-rule="evenodd" clip-rule="evenodd" d="M108.313 33.1818C94.8718 48.5163 91.8412 69.3994 91.3895 91.9488C94.6548 70.972 100.686 52.1257 112.81 38.9336C111.499 37.0313 109.859 34.9905 108.313 33.1818Z" fill="#0CADBB"/>
<path fill-rule="evenodd" clip-rule="evenodd" d="M67.0132 32.4324C81.0611 50.3111 83.3546 73.7769 82.2079 98.9189C79.9143 75.1737 74.1805 53.9427 61.2793 38.5782C63.2861 36.6227 65.0063 34.3879 67.0132 32.4324Z" fill="#F2CF63"/>
</svg>
