<svg width="20" height="21" viewBox="0 0 20 21" fill="none" xmlns="http://www.w3.org/2000/svg">
<path d="M11.6674 6.16763C11.6674 8.46881 9.80188 10.3342 7.5007 10.3342C5.19952 10.3342 3.33398 8.46881 3.33398 6.16763C3.33398 3.86646 5.19952 2.00092 7.5007 2.00092C9.80188 2.00092 11.6674 3.86646 11.6674 6.16763Z" fill="#0CADBB"/>
<path d="M11.0417 12.0009H3.95828C1.77582 12.0009 0 13.7767 0 15.9592V18.8759C0 19.2209 0.279999 19.5009 0.625 19.5009H14.375C14.72 19.5009 15 19.2209 15 18.8759V15.9592C15 13.7767 13.2242 12.0009 11.0417 12.0009Z" fill="#0CADBB"/>
<path d="M19.8002 9.04254L16.8835 6.33426C16.766 6.22501 16.6126 6.1684 16.4585 6.1684C16.0451 6.1684 15.8326 6.52011 15.8326 6.79263V8.66763H12.4993C12.0385 8.66763 11.666 9.04086 11.666 9.50092C11.666 9.96097 12.0385 10.3342 12.4993 10.3342H15.8326V12.2092C15.8326 12.5559 16.1143 12.8342 16.4576 12.8342C16.6126 12.8342 16.7652 12.7768 16.8835 12.6676L19.8002 9.95929C19.9268 9.84088 19.9993 9.67426 19.9993 9.50092C19.9993 9.32758 19.9268 9.16095 19.8002 9.04254Z" fill="#0CADBB"/>
</svg>
