<svg width="165" height="120" viewBox="0 0 165 120" fill="none" xmlns="http://www.w3.org/2000/svg">
<mask id="path-1-inside-1_2466_40495" fill="white">
<path d="M138.215 59.2005L137.187 55.8395C137.392 55.715 137.598 55.5905 137.824 55.4453C140.809 53.3596 143.246 50.571 144.923 47.3211C146.599 44.0711 147.466 40.4578 147.447 36.794V25.1965C147.443 20.2402 145.489 15.4881 142.016 11.9834C138.543 8.47874 133.833 6.50795 128.921 6.50366H122.711C117.799 6.50795 113.089 8.47874 109.616 11.9834C106.143 15.4881 104.189 20.2402 104.185 25.1965V36.794C104.166 40.4602 105.034 44.0758 106.714 47.3263C108.395 50.5769 110.837 53.364 113.829 55.4453C114.025 55.5914 114.231 55.7231 114.445 55.8395L113.417 59.2005C109.941 59.3905 106.531 60.2349 103.363 61.6901C103.297 61.709 103.235 61.7369 103.178 61.7731C98.2891 64.0474 94.148 67.6864 91.244 72.26C88.34 76.8335 86.7944 82.1504 86.79 87.5821V117.354C86.7916 117.903 87.0087 118.43 87.394 118.819C87.7793 119.208 88.3014 119.427 88.8462 119.428H162.786C163.331 119.427 163.853 119.208 164.238 118.819C164.623 118.43 164.84 117.903 164.842 117.354V87.5821C164.834 80.3155 162.071 73.3272 157.12 68.05C152.169 62.7729 145.405 59.6067 138.215 59.2005ZM108.297 25.1965C108.299 21.3397 109.817 17.6411 112.52 14.9139C115.223 12.1867 118.889 10.6541 122.711 10.653H128.921C132.743 10.6541 136.409 12.1867 139.112 14.9139C141.815 17.6411 143.333 21.3397 143.334 25.1965V27.1467C141.375 28.9923 139.022 30.3591 136.457 31.1419C133.891 31.9246 131.182 32.1023 128.537 31.6613C125.893 31.2203 123.384 30.1723 121.205 28.5982C119.025 27.0241 117.233 24.9659 115.967 22.5824C115.793 22.2504 115.533 21.9726 115.214 21.7789C114.895 21.5851 114.53 21.4828 114.158 21.4828H113.931C113.519 21.5326 113.13 21.7052 112.815 21.9786C112.5 22.252 112.273 22.6139 112.163 23.0181C111.506 25.3828 110.159 27.4935 108.297 29.0762V25.1965ZM108.297 36.794V34.0346C110.89 32.6001 113.049 30.4855 114.548 27.9143C117.926 32.1529 122.752 34.9632 128.079 35.7925C133.406 36.6217 138.848 35.41 143.334 32.3956V36.794C143.334 39.7675 142.629 42.6978 141.277 45.3399C139.924 47.9819 137.965 50.259 135.562 51.9806C134.992 52.358 134.401 52.7043 133.794 53.0179C131.319 54.303 128.576 54.9717 125.793 54.9681C123.01 54.9645 120.268 54.2887 117.797 52.9972C117.283 52.7275 116.728 52.4163 116.09 52.0014C113.683 50.2781 111.719 47.9984 110.363 45.3527C109.007 42.7071 108.299 39.7724 108.297 36.794ZM104.062 95.6111C104.516 95.609 104.961 95.7432 105.339 95.9966C105.718 96.25 106.013 96.6112 106.188 97.0343C106.363 97.4574 106.409 97.9234 106.321 98.3731C106.233 98.8228 106.014 99.2359 105.693 99.5601C105.372 99.8842 104.962 100.105 104.517 100.194C104.071 100.283 103.609 100.236 103.19 100.06C102.771 99.8832 102.413 99.5851 102.162 99.2031C101.91 98.8211 101.777 98.3724 101.779 97.914C101.783 97.3042 102.024 96.7204 102.452 96.2893C102.879 95.8581 103.457 95.6144 104.062 95.6111ZM160.73 115.279H127.872V76.7108L135.5 69.0345C135.885 68.6432 136.1 68.1142 136.099 67.5632C136.098 67.0122 135.881 66.4841 135.495 66.0944C135.108 65.7048 134.585 65.4854 134.039 65.4843C133.493 65.4832 132.968 65.7004 132.581 66.0884L125.816 72.9349L119.051 66.0884C118.663 65.7004 118.139 65.4832 117.593 65.4843C117.047 65.4854 116.524 65.7048 116.137 66.0944C115.751 66.4841 115.534 67.0122 115.533 67.5632C115.532 68.1142 115.747 68.6432 116.131 69.0345L123.76 76.7108V115.279H90.9024V87.5821C90.907 83.5126 91.9265 79.5097 93.8668 75.9421C95.8072 72.3745 98.606 69.3569 102.006 67.1673V91.8352C100.565 92.327 99.3445 93.3192 98.5617 94.6348C97.7789 95.9504 97.4847 97.5039 97.7317 99.018C97.9787 100.532 98.7508 101.908 99.9102 102.901C101.07 103.895 102.541 104.44 104.062 104.44C105.583 104.44 107.054 103.895 108.213 102.901C109.373 101.908 110.145 100.532 110.392 99.018C110.639 97.5039 110.345 95.9504 109.562 94.6348C108.779 93.3192 107.559 92.327 106.118 91.8352V65.0303C108.927 63.9133 111.919 63.3363 114.939 63.3291C115.38 63.3277 115.81 63.1841 116.165 62.9191C116.52 62.6541 116.782 62.2817 116.913 61.8561L118.188 57.7067C123.102 59.5878 128.53 59.5878 133.444 57.7067L134.719 61.8561C134.85 62.2817 135.112 62.6541 135.467 62.9191C135.822 63.1841 136.251 63.3277 136.693 63.3291C138.94 63.3378 141.175 63.6589 143.334 64.2834V85.0925C140.887 85.5754 138.682 86.9007 137.096 88.8418C135.51 90.783 134.64 93.2196 134.637 95.7356V102.312C134.637 102.863 134.854 103.39 135.239 103.779C135.625 104.168 136.148 104.387 136.693 104.387C137.238 104.387 137.761 104.168 138.147 103.779C138.533 103.39 138.749 102.863 138.749 102.312V95.7356C138.749 93.9583 139.449 92.2538 140.694 90.9971C141.94 89.7404 143.629 89.0344 145.391 89.0344C147.152 89.0344 148.841 89.7404 150.087 90.9971C151.332 92.2538 152.032 93.9583 152.032 95.7356V102.312C152.032 102.863 152.249 103.39 152.634 103.779C153.02 104.168 153.543 104.387 154.088 104.387C154.633 104.387 155.156 104.168 155.542 103.779C155.928 103.39 156.144 102.863 156.144 102.312V95.7356C156.141 93.2196 155.272 90.783 153.685 88.8418C152.099 86.9007 149.894 85.5754 147.447 85.0925V65.9224C151.436 67.9314 154.792 71.022 157.139 74.8478C159.485 78.6735 160.728 83.0831 160.73 87.5821V115.279Z"/>
</mask>
<path d="M138.215 59.2005L137.187 55.8395C137.392 55.715 137.598 55.5905 137.824 55.4453C140.809 53.3596 143.246 50.571 144.923 47.3211C146.599 44.0711 147.466 40.4578 147.447 36.794V25.1965C147.443 20.2402 145.489 15.4881 142.016 11.9834C138.543 8.47874 133.833 6.50795 128.921 6.50366H122.711C117.799 6.50795 113.089 8.47874 109.616 11.9834C106.143 15.4881 104.189 20.2402 104.185 25.1965V36.794C104.166 40.4602 105.034 44.0758 106.714 47.3263C108.395 50.5769 110.837 53.364 113.829 55.4453C114.025 55.5914 114.231 55.7231 114.445 55.8395L113.417 59.2005C109.941 59.3905 106.531 60.2349 103.363 61.6901C103.297 61.709 103.235 61.7369 103.178 61.7731C98.2891 64.0474 94.148 67.6864 91.244 72.26C88.34 76.8335 86.7944 82.1504 86.79 87.5821V117.354C86.7916 117.903 87.0087 118.43 87.394 118.819C87.7793 119.208 88.3014 119.427 88.8462 119.428H162.786C163.331 119.427 163.853 119.208 164.238 118.819C164.623 118.43 164.84 117.903 164.842 117.354V87.5821C164.834 80.3155 162.071 73.3272 157.12 68.05C152.169 62.7729 145.405 59.6067 138.215 59.2005ZM108.297 25.1965C108.299 21.3397 109.817 17.6411 112.52 14.9139C115.223 12.1867 118.889 10.6541 122.711 10.653H128.921C132.743 10.6541 136.409 12.1867 139.112 14.9139C141.815 17.6411 143.333 21.3397 143.334 25.1965V27.1467C141.375 28.9923 139.022 30.3591 136.457 31.1419C133.891 31.9246 131.182 32.1023 128.537 31.6613C125.893 31.2203 123.384 30.1723 121.205 28.5982C119.025 27.0241 117.233 24.9659 115.967 22.5824C115.793 22.2504 115.533 21.9726 115.214 21.7789C114.895 21.5851 114.53 21.4828 114.158 21.4828H113.931C113.519 21.5326 113.13 21.7052 112.815 21.9786C112.5 22.252 112.273 22.6139 112.163 23.0181C111.506 25.3828 110.159 27.4935 108.297 29.0762V25.1965ZM108.297 36.794V34.0346C110.89 32.6001 113.049 30.4855 114.548 27.9143C117.926 32.1529 122.752 34.9632 128.079 35.7925C133.406 36.6217 138.848 35.41 143.334 32.3956V36.794C143.334 39.7675 142.629 42.6978 141.277 45.3399C139.924 47.9819 137.965 50.259 135.562 51.9806C134.992 52.358 134.401 52.7043 133.794 53.0179C131.319 54.303 128.576 54.9717 125.793 54.9681C123.01 54.9645 120.268 54.2887 117.797 52.9972C117.283 52.7275 116.728 52.4163 116.09 52.0014C113.683 50.2781 111.719 47.9984 110.363 45.3527C109.007 42.7071 108.299 39.7724 108.297 36.794ZM104.062 95.6111C104.516 95.609 104.961 95.7432 105.339 95.9966C105.718 96.25 106.013 96.6112 106.188 97.0343C106.363 97.4574 106.409 97.9234 106.321 98.3731C106.233 98.8228 106.014 99.2359 105.693 99.5601C105.372 99.8842 104.962 100.105 104.517 100.194C104.071 100.283 103.609 100.236 103.19 100.06C102.771 99.8832 102.413 99.5851 102.162 99.2031C101.91 98.8211 101.777 98.3724 101.779 97.914C101.783 97.3042 102.024 96.7204 102.452 96.2893C102.879 95.8581 103.457 95.6144 104.062 95.6111ZM160.73 115.279H127.872V76.7108L135.5 69.0345C135.885 68.6432 136.1 68.1142 136.099 67.5632C136.098 67.0122 135.881 66.4841 135.495 66.0944C135.108 65.7048 134.585 65.4854 134.039 65.4843C133.493 65.4832 132.968 65.7004 132.581 66.0884L125.816 72.9349L119.051 66.0884C118.663 65.7004 118.139 65.4832 117.593 65.4843C117.047 65.4854 116.524 65.7048 116.137 66.0944C115.751 66.4841 115.534 67.0122 115.533 67.5632C115.532 68.1142 115.747 68.6432 116.131 69.0345L123.76 76.7108V115.279H90.9024V87.5821C90.907 83.5126 91.9265 79.5097 93.8668 75.9421C95.8072 72.3745 98.606 69.3569 102.006 67.1673V91.8352C100.565 92.327 99.3445 93.3192 98.5617 94.6348C97.7789 95.9504 97.4847 97.5039 97.7317 99.018C97.9787 100.532 98.7508 101.908 99.9102 102.901C101.07 103.895 102.541 104.44 104.062 104.44C105.583 104.44 107.054 103.895 108.213 102.901C109.373 101.908 110.145 100.532 110.392 99.018C110.639 97.5039 110.345 95.9504 109.562 94.6348C108.779 93.3192 107.559 92.327 106.118 91.8352V65.0303C108.927 63.9133 111.919 63.3363 114.939 63.3291C115.38 63.3277 115.81 63.1841 116.165 62.9191C116.52 62.6541 116.782 62.2817 116.913 61.8561L118.188 57.7067C123.102 59.5878 128.53 59.5878 133.444 57.7067L134.719 61.8561C134.85 62.2817 135.112 62.6541 135.467 62.9191C135.822 63.1841 136.251 63.3277 136.693 63.3291C138.94 63.3378 141.175 63.6589 143.334 64.2834V85.0925C140.887 85.5754 138.682 86.9007 137.096 88.8418C135.51 90.783 134.64 93.2196 134.637 95.7356V102.312C134.637 102.863 134.854 103.39 135.239 103.779C135.625 104.168 136.148 104.387 136.693 104.387C137.238 104.387 137.761 104.168 138.147 103.779C138.533 103.39 138.749 102.863 138.749 102.312V95.7356C138.749 93.9583 139.449 92.2538 140.694 90.9971C141.94 89.7404 143.629 89.0344 145.391 89.0344C147.152 89.0344 148.841 89.7404 150.087 90.9971C151.332 92.2538 152.032 93.9583 152.032 95.7356V102.312C152.032 102.863 152.249 103.39 152.634 103.779C153.02 104.168 153.543 104.387 154.088 104.387C154.633 104.387 155.156 104.168 155.542 103.779C155.928 103.39 156.144 102.863 156.144 102.312V95.7356C156.141 93.2196 155.272 90.783 153.685 88.8418C152.099 86.9007 149.894 85.5754 147.447 85.0925V65.9224C151.436 67.9314 154.792 71.022 157.139 74.8478C159.485 78.6735 160.728 83.0831 160.73 87.5821V115.279Z" fill="#C2EBEE" stroke="#C2EBEE" stroke-width="1.73162" mask="url(#path-1-inside-1_2466_40495)"/>
<path d="M59.569 1.43536C57.7831 1.50096 56.0425 2.02841 54.5174 2.96743C52.9924 3.90646 51.7335 5.22536 50.8604 6.797C47.285 6.04541 43.5917 6.08582 40.0332 6.91526C36.4748 7.7447 33.1369 9.3434 30.2519 11.6009C27.3669 13.8583 25.0024 16.7205 23.3231 19.9895C21.6438 23.2585 20.6905 26.8562 20.5267 30.5337V38.5884C20.526 43.4147 21.8898 48.1411 24.4592 52.2137C27.0287 56.2863 30.6961 59.5366 35.0329 61.5831V62.2662C35.033 63.9084 34.5429 65.5127 33.6261 66.8704C32.7094 68.228 31.4094 69.2762 29.8935 69.8786L10.1749 77.7024C7.71784 78.6763 5.60773 80.3736 4.12134 82.5729C2.63494 84.7722 1.84144 87.3716 1.8418 90.0327V114.428C1.8429 115.505 2.26822 116.537 3.02423 117.299C3.78024 118.06 4.80567 118.487 5.87427 118.487H85.5484C86.6175 118.488 87.6419 118.061 88.3985 117.299C89.155 116.538 89.5798 115.505 89.5809 114.428V90.0327C89.5817 87.3722 88.7893 84.773 87.3038 82.5738C85.8184 80.3746 83.7088 78.6771 81.2527 77.7024L61.534 69.8786C60.0168 69.2774 58.7147 68.2297 57.7966 66.8719C56.8784 65.5141 56.3854 63.9093 56.385 62.2662V61.5831C58.8408 60.4251 61.0946 58.8751 63.0602 56.993C63.9132 59.2234 65.4176 61.1411 67.3731 62.4938C69.3285 63.8464 71.645 64.5707 74.0167 64.571H86.8942C87.4741 64.5725 88.0359 64.3741 88.4887 64.0089C88.9415 63.6438 89.2576 63.1337 89.3834 62.5632C89.5093 61.9926 89.4378 61.3958 89.1811 60.8717C88.9244 60.3476 88.4977 59.9275 87.9718 59.6812C86.1648 58.8341 84.6359 57.4847 83.5639 55.7914C82.4919 54.0981 81.9216 52.1313 81.9207 50.1226V13.9328C81.9203 11.864 81.4083 9.8277 80.4311 8.00841C79.4538 6.18912 78.0416 4.64417 76.323 3.51294C74.6044 2.3817 72.632 1.69985 70.5864 1.52935C68.5407 1.35885 66.4855 1.70485 64.6059 2.53619C63.0447 1.74945 61.3134 1.37107 59.569 1.43536ZM59.9737 3.43062C61.5637 3.43557 63.1196 3.89394 64.4621 4.7526C65.8046 5.61126 66.8793 6.83512 67.5608 8.283C68.2423 9.73089 68.5012 11.3437 68.3117 12.9348C68.1222 14.5259 67.4901 16.0303 66.4881 17.2746C63.2158 12.4788 58.4115 8.96064 52.8742 7.3081C53.6409 6.11432 54.691 5.13367 55.9315 4.4562C57.172 3.77872 58.5628 3.42608 59.9737 3.43062ZM69.7355 3.49082C72.4564 3.5321 75.0522 4.65076 76.9618 6.60473C78.8714 8.55869 79.9412 11.1913 79.941 13.934V50.1238C79.941 52.5135 80.6173 54.8536 81.8914 56.8689C83.1655 58.8842 84.9841 60.4912 87.1332 61.5007C87.2485 61.5554 87.341 61.6483 87.3965 61.764C87.4519 61.8797 87.4672 62.0109 87.4379 62.1359C87.4086 62.261 87.3364 62.3722 87.2355 62.4508C87.1347 62.5293 87.0095 62.5703 86.882 62.5672H74.0069C71.875 62.5662 69.8011 61.8614 68.1045 60.5602C66.4079 59.2591 65.1802 57.4333 64.6108 55.3626C68.658 50.7273 70.8917 44.7642 70.8911 38.5897V30.5349C70.71 26.4956 69.5747 22.5583 67.5803 19.0499C68.5352 18.0091 69.2704 16.7841 69.7428 15.4489C70.2152 14.1136 70.414 12.6957 70.3279 11.2808C70.2419 9.86588 69.8738 8.48331 69.243 7.21627C68.6123 5.94922 67.7327 4.82393 66.6587 3.90855C67.6542 3.61548 68.6889 3.47465 69.7258 3.49082H69.7355ZM46.316 8.22833C52.1884 8.38316 57.7854 10.7754 61.9778 14.9227C66.1702 19.07 68.6484 24.6644 68.9115 30.5792V33.8522C63.3222 35.0481 57.5145 34.687 52.1136 32.8072C46.7127 30.9275 41.922 27.6002 38.2559 23.1829C37.9249 22.7838 37.5118 22.4627 37.0442 22.2424C36.5766 22.0221 36.0659 21.9079 35.5497 21.9079C35.0336 21.9079 34.5228 22.0221 34.0552 22.2424C33.5876 22.4627 33.1746 22.7838 32.8435 23.1829C29.8315 26.8207 26.3581 30.0427 22.5112 32.7661V30.5792C22.7837 24.4532 25.4294 18.6797 29.8814 14.5001C34.3333 10.3204 40.2339 8.06833 46.316 8.22833ZM35.5887 23.9054C35.8092 23.9102 36.0265 23.9626 36.2251 24.0592C36.4236 24.1559 36.5987 24.2945 36.7395 24.4656C40.5904 29.1054 45.6097 32.6152 51.27 34.6265C56.9304 36.6378 63.0249 37.0763 68.9115 35.8966V38.5897C68.863 44.7591 66.3965 50.6595 62.0509 55.0048C57.7053 59.3501 51.8328 61.7882 45.7114 61.7882C39.5899 61.7882 33.715 59.3501 29.3694 55.0048C25.0238 50.6595 22.5597 44.7591 22.5112 38.5897V35.1938C26.9552 32.2109 30.9492 28.5977 34.3697 24.4656C34.518 24.2854 34.7044 24.1412 34.9158 24.0442C35.1273 23.9471 35.3565 23.8998 35.5887 23.9054ZM37.0174 62.4197C42.6267 64.4976 48.7862 64.4976 54.3955 62.4197C54.425 64.4389 55.0502 66.4038 56.1899 68.0646C57.3297 69.7254 58.9337 71.0071 60.7978 71.7473L61.0221 71.8404L45.6967 87.1341L30.3714 71.8404L30.5957 71.7473C32.4603 71.0075 34.0658 69.7257 35.206 68.0649C36.3462 66.4041 36.9707 64.4391 37.0003 62.4197H37.0174ZM28.3673 72.6417L44.4875 88.7316C44.5569 88.8016 44.6317 88.8657 44.7118 88.9229V116.488H5.86939C5.32855 116.486 4.8104 116.269 4.42853 115.883C4.04665 115.497 3.83121 114.974 3.83121 114.429V90.0336C3.83033 87.7769 4.50296 85.572 5.76212 83.706C7.02128 81.84 8.809 80.3992 10.8917 79.5708L22.6673 74.9018V79.959C21.2002 80.1626 19.8287 80.8121 18.7372 81.821C17.6458 82.8298 16.8856 84.1498 16.5576 85.6054L13.1298 100.82C13.0143 101.331 13.0229 101.862 13.1542 102.368C13.2854 102.875 13.5372 103.342 13.8856 103.73C14.7704 104.713 15.9072 105.429 17.172 105.799C17.3324 106.256 17.6416 106.645 18.0473 106.905C18.4529 107.166 18.9316 107.281 19.4101 107.234C19.8886 107.187 20.3395 106.98 20.6876 106.646C21.0357 106.312 21.2614 105.869 21.3313 105.39C21.4011 104.911 21.3109 104.421 21.0728 104C20.8347 103.579 20.4621 103.251 20.0172 103.067C19.5723 102.884 19.0804 102.855 18.6177 102.987C18.1551 103.119 17.7485 103.403 17.4646 103.794C16.6546 103.509 15.9291 103.024 15.3533 102.384C15.2194 102.235 15.1237 102.056 15.0729 101.861C15.022 101.667 15.0171 101.464 15.0607 101.268L18.4885 86.0529C18.7537 84.8722 19.4103 83.8172 20.3487 83.0616C21.2871 82.3059 22.4511 81.8944 23.6522 81.8944C24.8534 81.8944 26.0198 82.3059 26.9582 83.0616C27.8966 83.8172 28.5508 84.8722 28.8159 86.0529L32.2389 101.268C32.2825 101.464 32.28 101.667 32.2292 101.861C32.1783 102.056 32.0802 102.235 31.9464 102.384C31.3705 103.024 30.645 103.509 29.835 103.794C29.5491 103.404 29.1427 103.122 28.6794 102.993C28.2161 102.864 27.7239 102.895 27.28 103.081C26.8361 103.267 26.4652 103.597 26.2292 104.019C25.9932 104.441 25.9035 104.931 25.9757 105.41C26.0478 105.889 26.277 106.33 26.6266 106.662C26.9763 106.995 27.4279 107.2 27.9066 107.245C28.3852 107.289 28.865 107.171 29.2694 106.909C29.6738 106.647 29.979 106.256 30.1373 105.799C31.3995 105.428 32.5337 104.712 33.4165 103.73C33.767 103.343 34.0218 102.876 34.1552 102.37C34.2886 101.863 34.2983 101.332 34.1844 100.82L30.7566 85.6054C30.4287 84.1498 29.6685 82.8298 28.577 81.821C27.4856 80.8121 26.114 80.1626 24.6469 79.959V74.1109L28.3673 72.6417ZM63.0676 72.6417L68.8091 74.922V85.2866C66.837 85.5414 65.0349 86.5438 63.7697 88.0896C62.5045 89.6355 61.8706 91.6087 61.9973 93.6085C62.124 95.6084 63.0023 97.4845 64.4523 98.8556C65.9023 100.227 67.8155 100.99 69.8038 100.99C71.792 100.99 73.7052 100.227 75.1552 98.8556C76.6052 97.4845 77.4836 95.6084 77.6103 93.6085C77.737 91.6087 77.1031 89.6355 75.8379 88.0896C74.5727 86.5438 72.7706 85.5414 70.7985 85.2866V75.7084L80.5261 79.5711C82.6107 80.398 84.402 81.8383 85.663 83.7044C86.9241 85.5706 87.5965 87.7761 87.5964 90.0339V114.429C87.5964 114.7 87.5434 114.969 87.4403 115.219C87.3373 115.469 87.187 115.696 86.9966 115.887C86.8062 116.079 86.5797 116.23 86.331 116.333C86.0824 116.437 85.8173 116.489 85.5484 116.488H46.7109V88.9232C46.7911 88.866 46.8658 88.8022 46.9352 88.7322L63.0676 72.6417ZM69.6868 87.1688C70.4673 87.1532 71.2438 87.2957 71.9687 87.5878C72.6936 87.8798 73.3522 88.3156 73.9069 88.8692C74.4617 89.4228 74.9021 90.083 75.1991 90.8107C75.4961 91.5384 75.6432 92.3186 75.6355 93.1054C75.6355 94.665 75.0206 96.1609 73.9265 97.2636C72.8323 98.3664 71.3487 98.9858 69.8013 98.9858C68.254 98.9858 66.7704 98.3664 65.6762 97.2636C64.5821 96.1609 63.9672 94.665 63.9672 93.1054C63.952 91.5559 64.5442 90.0632 65.6153 88.9515C66.6863 87.8398 68.1496 87.1991 69.6868 87.1688Z" fill="#C2EBEE" stroke="#C2EBEE" stroke-width="2"/>
</svg>
