<svg width="80" height="80" viewBox="0 0 80 80" fill="none" xmlns="http://www.w3.org/2000/svg">
<path d="M30.9044 58.545C30.6614 58.6762 30.5707 58.9795 30.7018 59.2225C30.833 59.4655 31.1363 59.5562 31.3793 59.4251L30.9044 58.545ZM43.3085 52.4199L43.7485 52.1825C43.6174 51.9395 43.3141 51.8488 43.0711 51.9799L43.3085 52.4199ZM46.5911 58.5033L46.1511 58.7407C46.2822 58.9837 46.5855 59.0744 46.8285 58.9433L46.5911 58.5033ZM60.2786 51.1175L60.7186 50.88C60.5875 50.637 60.2842 50.5463 60.0411 50.6774L60.2786 51.1175ZM66.4037 63.5216C66.5348 63.7646 66.8381 63.8553 67.0812 63.7241C67.3242 63.593 67.4149 63.2897 67.2837 63.0467L66.4037 63.5216ZM31.3793 59.4251L43.546 52.86L43.0711 51.9799L30.9044 58.545L31.3793 59.4251ZM42.8685 52.6574L46.1511 58.7407L47.0311 58.2658L43.7485 52.1825L42.8685 52.6574ZM46.8285 58.9433L60.516 51.5575L60.0411 50.6774L46.3537 58.0632L46.8285 58.9433ZM59.8386 51.3549L66.4037 63.5216L67.2837 63.0467L60.7186 50.88L59.8386 51.3549ZM45.8343 26.9131L69.249 33.915L69.5356 32.9569L46.1208 25.955L45.8343 26.9131ZM73.8371 42.4177L66.8352 65.8324L67.7933 66.1189L74.7952 42.7042L73.8371 42.4177ZM58.3325 70.4205L34.9178 63.4186L34.6313 64.3767L58.046 71.3786L58.3325 70.4205ZM30.3297 54.9159L37.3316 31.5012L36.3735 31.2147L29.3716 54.6294L30.3297 54.9159ZM34.9178 63.4186C31.3029 62.3376 29.2487 58.5308 30.3297 54.9159L29.3716 54.6294C28.1324 58.7735 30.4872 63.1375 34.6313 64.3767L34.9178 63.4186ZM66.8352 65.8324C65.7542 69.4474 61.9474 71.5015 58.3325 70.4205L58.046 71.3786C62.1901 72.6178 66.5541 70.263 67.7933 66.1189L66.8352 65.8324ZM69.249 33.915C72.864 34.996 74.9181 38.8028 73.8371 42.4177L74.7952 42.7042C76.0344 38.5601 73.6796 34.1961 69.5356 32.9569L69.249 33.915ZM46.1208 25.955C41.9768 24.7158 37.6127 27.0706 36.3735 31.2147L37.3316 31.5012C38.4126 27.8863 42.2194 25.8321 45.8343 26.9131L46.1208 25.955ZM49.3721 38.928C48.8711 40.6032 47.1071 41.5551 45.4319 41.0542L45.1454 42.0122C47.3497 42.6714 49.671 41.4188 50.3302 39.2145L49.3721 38.928ZM45.4319 41.0542C43.7567 40.5532 42.8048 38.7891 43.3057 37.114L42.3477 36.8274C41.6885 39.0318 42.9411 41.3531 45.1454 42.0122L45.4319 41.0542ZM43.3057 37.114C43.8067 35.4388 45.5708 34.4869 47.2459 34.9878L47.5324 34.0297C45.3281 33.3706 43.0068 34.6231 42.3477 36.8274L43.3057 37.114ZM47.2459 34.9878C48.9211 35.4888 49.873 37.2528 49.3721 38.928L50.3302 39.2145C50.9893 37.0102 49.7368 34.6889 47.5324 34.0297L47.2459 34.9878Z" fill="#E1E4ED"/>
<path d="M5.20512 26.7763C3.98727 21.7971 7.03638 16.7735 12.0155 15.5556L42.0672 8.20523C47.0464 6.98737 52.07 10.0365 53.2879 15.0156L60.6382 45.0673C61.8561 50.0465 58.807 55.0701 53.8279 56.288L23.7761 63.6384C18.797 64.8562 13.7734 61.8071 12.5555 56.828L5.20512 26.7763Z" fill="white"/>
<path d="M24.3387 26.8738C24.9476 29.3633 23.4231 31.8752 20.9335 32.4841C18.4439 33.093 15.9321 31.5685 15.3232 29.0789C14.7143 26.5893 16.2388 24.0775 18.7284 23.4686C21.218 22.8597 23.7298 24.3842 24.3387 26.8738Z" fill="white"/>
<path d="M16.2358 60.3413C16.0925 60.5773 16.1678 60.8848 16.4038 61.0281C16.6399 61.1714 16.9474 61.0962 17.0907 60.8601L16.2358 60.3413ZM25.7438 45.6398L26.0032 45.2124C25.7671 45.0691 25.4596 45.1443 25.3163 45.3804L25.7438 45.6398ZM33.2242 50.1801L32.9648 50.6075C33.2008 50.7508 33.5083 50.6756 33.6516 50.4395L33.2242 50.1801ZM43.4398 33.3492L43.6992 32.9217C43.4631 32.7784 43.1556 32.8537 43.0124 33.0897L43.4398 33.3492ZM58.1412 42.8571C58.3773 43.0004 58.6848 42.9252 58.8281 42.6891C58.9713 42.453 58.8961 42.1455 58.6601 42.0022L58.1412 42.8571ZM17.0907 60.8601L26.1712 45.8993L25.3163 45.3804L16.2358 60.3413L17.0907 60.8601ZM25.4843 46.0673L32.9648 50.6075L33.4836 49.7527L26.0032 45.2124L25.4843 46.0673ZM33.6516 50.4395L43.8672 33.6086L43.0124 33.0897L32.7968 49.9207L33.6516 50.4395ZM43.1804 33.7766L58.1412 42.8571L58.6601 42.0022L43.6992 32.9217L43.1804 33.7766ZM12.1343 16.0413L42.186 8.69091L41.9484 7.71954L11.8967 15.0699L12.1343 16.0413ZM52.8022 15.1344L60.1526 45.1861L61.1239 44.9485L53.7735 14.8968L52.8022 15.1344ZM53.7091 55.8023L23.6574 63.1527L23.8949 64.124L53.9466 56.7736L53.7091 55.8023ZM13.0412 56.7092L5.6908 26.6575L4.71944 26.895L12.0698 56.9468L13.0412 56.7092ZM23.6574 63.1527C18.9465 64.3049 14.1934 61.4201 13.0412 56.7092L12.0698 56.9468C13.3533 62.1941 18.6476 65.4075 23.8949 64.124L23.6574 63.1527ZM60.1526 45.1861C61.3048 49.897 58.42 54.65 53.7091 55.8023L53.9466 56.7736C59.194 55.4902 62.4074 50.1959 61.1239 44.9485L60.1526 45.1861ZM42.186 8.69091C46.8969 7.53867 51.6499 10.4235 52.8022 15.1344L53.7735 14.8968C52.4901 9.64946 47.1958 6.43608 41.9484 7.71954L42.186 8.69091ZM11.8967 15.0699C6.64935 16.3534 3.43597 21.6477 4.71944 26.895L5.6908 26.6575C4.53856 21.9466 7.42341 17.1936 12.1343 16.0413L11.8967 15.0699ZM23.853 26.9926C24.3963 29.2139 23.036 31.4551 20.8147 31.9984L21.0523 32.9698C23.8101 32.2952 25.4989 29.5128 24.8244 26.755L23.853 26.9926ZM20.8147 31.9984C18.5934 32.5417 16.3522 31.1814 15.8089 28.9601L14.8375 29.1977C15.512 31.9555 18.2945 33.6443 21.0523 32.9698L20.8147 31.9984ZM15.8089 28.9601C15.2656 26.7388 16.6259 24.4976 18.8472 23.9543L18.6096 22.9829C15.8518 23.6574 14.163 26.4399 14.8375 29.1977L15.8089 28.9601ZM18.8472 23.9543C21.0685 23.4109 23.3097 24.7712 23.853 26.9926L24.8244 26.755C24.1499 23.9972 21.3674 22.3084 18.6096 22.9829L18.8472 23.9543Z" fill="#E1E4ED"/>
</svg>
