<svg width="165" height="120" viewBox="0 0 165 120" fill="none" xmlns="http://www.w3.org/2000/svg">
<mask id="path-1-inside-1_2466_40389" fill="white">
<path d="M138.092 59.2002L137.063 55.8393C137.269 55.7148 137.475 55.5903 137.701 55.4451C140.686 53.3593 143.123 50.5707 144.8 47.3208C146.476 44.0709 147.343 40.4576 147.324 36.7937V25.1963C147.319 20.2399 145.366 15.4878 141.893 11.9832C138.42 8.4785 133.71 6.5077 128.798 6.50342H122.588C117.676 6.5077 112.966 8.4785 109.493 11.9832C106.02 15.4878 104.066 20.2399 104.062 25.1963V36.7937C104.043 40.46 104.911 44.0755 106.591 47.3261C108.272 50.5766 110.714 53.3637 113.706 55.4451C113.902 55.5911 114.108 55.7229 114.322 55.8393L113.294 59.2002C109.818 59.3903 106.408 60.2347 103.24 61.6899C103.174 61.7087 103.112 61.7366 103.055 61.7728C98.166 64.0472 94.025 67.6862 91.121 72.2597C88.2169 76.8333 86.6714 82.1502 86.667 87.5818V117.353C86.6686 117.903 86.8857 118.43 87.271 118.819C87.6562 119.207 88.1783 119.427 88.7232 119.428H162.663C163.208 119.427 163.73 119.207 164.115 118.819C164.5 118.43 164.717 117.903 164.719 117.353V87.5818C164.711 80.3152 161.948 73.327 156.997 68.0498C152.046 62.7726 145.282 59.6064 138.092 59.2002ZM108.174 25.1963C108.175 21.3394 109.694 17.6408 112.397 14.9136C115.1 12.1864 118.766 10.6538 122.588 10.6528H128.798C132.62 10.6538 136.286 12.1864 138.989 14.9136C141.691 17.6408 143.21 21.3394 143.211 25.1963V27.1465C141.252 28.992 138.899 30.3589 136.334 31.1416C133.768 31.9244 131.059 32.1021 128.414 31.661C125.77 31.22 123.261 30.172 121.082 28.5979C118.902 27.0238 117.11 24.9657 115.844 22.5822C115.67 22.2502 115.409 21.9724 115.091 21.7786C114.772 21.5849 114.407 21.4825 114.034 21.4826H113.808C113.396 21.5323 113.007 21.7049 112.692 21.9784C112.377 22.2518 112.15 22.6137 112.04 23.0179C111.383 25.3826 110.036 27.4933 108.174 29.0759V25.1963ZM108.174 36.7937V34.0344C110.766 32.5999 112.926 30.4852 114.425 27.9141C117.802 32.1527 122.629 34.9629 127.956 35.7922C133.283 36.6215 138.725 35.4098 143.211 32.3954V36.7937C143.211 39.7673 142.506 42.6976 141.154 45.3396C139.801 47.9817 137.842 50.2587 135.439 51.9804C134.868 52.3577 134.278 52.704 133.671 53.0177C131.196 54.3028 128.453 54.9715 125.67 54.9679C122.887 54.9643 120.145 54.2885 117.674 52.997C117.16 52.7272 116.605 52.416 115.967 52.0011C113.56 50.2779 111.596 47.9982 110.24 45.3525C108.884 42.7068 108.176 39.7721 108.174 36.7937ZM103.939 95.6108C104.393 95.6088 104.838 95.743 105.216 95.9964C105.595 96.2498 105.89 96.6109 106.065 97.0341C106.24 97.4572 106.286 97.9232 106.198 98.3728C106.11 98.8225 105.891 99.2357 105.57 99.5598C105.249 99.884 104.839 100.104 104.394 100.193C103.948 100.282 103.486 100.236 103.067 100.059C102.648 99.8829 102.29 99.5848 102.038 99.2028C101.787 98.8208 101.654 98.3721 101.656 97.9137C101.66 97.304 101.901 96.7202 102.329 96.289C102.756 95.8579 103.334 95.6142 103.939 95.6108ZM160.607 115.279H127.749V76.7105L135.377 69.0342C135.762 68.643 135.977 68.114 135.976 67.563C135.975 67.0119 135.758 66.4838 135.371 66.0942C134.985 65.7045 134.462 65.4852 133.916 65.484C133.37 65.4829 132.845 65.7001 132.458 66.0882L125.693 72.9346L118.928 66.0882C118.54 65.7001 118.016 65.4829 117.47 65.484C116.924 65.4852 116.401 65.7045 116.014 66.0942C115.628 66.4838 115.411 67.0119 115.41 67.563C115.409 68.114 115.624 68.643 116.008 69.0342L123.637 76.7105V115.279H90.7793V87.5818C90.784 83.5124 91.8034 79.5095 93.7438 75.9419C95.6841 72.3743 98.483 69.3567 101.883 67.167V91.8349C100.442 92.3268 99.2214 93.319 98.4386 94.6346C97.6558 95.9502 97.3617 97.5036 97.6087 99.0177C97.8557 100.532 98.6278 101.908 99.7872 102.901C100.947 103.894 102.418 104.439 103.939 104.439C105.46 104.439 106.931 103.894 108.09 102.901C109.25 101.908 110.022 100.532 110.269 99.0177C110.516 97.5036 110.222 95.9502 109.439 94.6346C108.656 93.319 107.435 92.3268 105.995 91.8349V65.0301C108.804 63.913 111.796 63.336 114.816 63.3289C115.257 63.3275 115.687 63.1838 116.042 62.9189C116.397 62.6539 116.659 62.2815 116.79 61.8558L118.065 57.7065C122.979 59.5875 128.407 59.5875 133.321 57.7065L134.596 61.8558C134.727 62.2815 134.989 62.6539 135.344 62.9189C135.699 63.1838 136.128 63.3275 136.57 63.3289C138.817 63.3375 141.052 63.6587 143.211 64.2832V85.0922C140.764 85.5752 138.559 86.9004 136.973 88.8416C135.387 90.7827 134.517 93.2194 134.514 95.7353V102.312C134.514 102.862 134.73 103.39 135.116 103.779C135.502 104.168 136.025 104.387 136.57 104.387C137.115 104.387 137.638 104.168 138.024 103.779C138.41 103.39 138.626 102.862 138.626 102.312V95.7353C138.626 93.9581 139.326 92.2536 140.571 90.9968C141.817 89.7401 143.506 89.0341 145.268 89.0341C147.029 89.0341 148.718 89.7401 149.964 90.9968C151.209 92.2536 151.909 93.9581 151.909 95.7353V102.312C151.909 102.862 152.126 103.39 152.511 103.779C152.897 104.168 153.42 104.387 153.965 104.387C154.51 104.387 155.033 104.168 155.419 103.779C155.805 103.39 156.021 102.862 156.021 102.312V95.7353C156.018 93.2194 155.148 90.7827 153.562 88.8416C151.976 86.9004 149.771 85.5752 147.324 85.0922V65.9222C151.313 67.9311 154.669 71.0218 157.016 74.8475C159.362 78.6733 160.605 83.0829 160.607 87.5818V115.279Z"/>
</mask>
<path d="M138.092 59.2002L137.063 55.8393C137.269 55.7148 137.475 55.5903 137.701 55.4451C140.686 53.3593 143.123 50.5707 144.8 47.3208C146.476 44.0709 147.343 40.4576 147.324 36.7937V25.1963C147.319 20.2399 145.366 15.4878 141.893 11.9832C138.42 8.4785 133.71 6.5077 128.798 6.50342H122.588C117.676 6.5077 112.966 8.4785 109.493 11.9832C106.02 15.4878 104.066 20.2399 104.062 25.1963V36.7937C104.043 40.46 104.911 44.0755 106.591 47.3261C108.272 50.5766 110.714 53.3637 113.706 55.4451C113.902 55.5911 114.108 55.7229 114.322 55.8393L113.294 59.2002C109.818 59.3903 106.408 60.2347 103.24 61.6899C103.174 61.7087 103.112 61.7366 103.055 61.7728C98.166 64.0472 94.025 67.6862 91.121 72.2597C88.2169 76.8333 86.6714 82.1502 86.667 87.5818V117.353C86.6686 117.903 86.8857 118.43 87.271 118.819C87.6562 119.207 88.1783 119.427 88.7232 119.428H162.663C163.208 119.427 163.73 119.207 164.115 118.819C164.5 118.43 164.717 117.903 164.719 117.353V87.5818C164.711 80.3152 161.948 73.327 156.997 68.0498C152.046 62.7726 145.282 59.6064 138.092 59.2002ZM108.174 25.1963C108.175 21.3394 109.694 17.6408 112.397 14.9136C115.1 12.1864 118.766 10.6538 122.588 10.6528H128.798C132.62 10.6538 136.286 12.1864 138.989 14.9136C141.691 17.6408 143.21 21.3394 143.211 25.1963V27.1465C141.252 28.992 138.899 30.3589 136.334 31.1416C133.768 31.9244 131.059 32.1021 128.414 31.661C125.77 31.22 123.261 30.172 121.082 28.5979C118.902 27.0238 117.11 24.9657 115.844 22.5822C115.67 22.2502 115.409 21.9724 115.091 21.7786C114.772 21.5849 114.407 21.4825 114.034 21.4826H113.808C113.396 21.5323 113.007 21.7049 112.692 21.9784C112.377 22.2518 112.15 22.6137 112.04 23.0179C111.383 25.3826 110.036 27.4933 108.174 29.0759V25.1963ZM108.174 36.7937V34.0344C110.766 32.5999 112.926 30.4852 114.425 27.9141C117.802 32.1527 122.629 34.9629 127.956 35.7922C133.283 36.6215 138.725 35.4098 143.211 32.3954V36.7937C143.211 39.7673 142.506 42.6976 141.154 45.3396C139.801 47.9817 137.842 50.2587 135.439 51.9804C134.868 52.3577 134.278 52.704 133.671 53.0177C131.196 54.3028 128.453 54.9715 125.67 54.9679C122.887 54.9643 120.145 54.2885 117.674 52.997C117.16 52.7272 116.605 52.416 115.967 52.0011C113.56 50.2779 111.596 47.9982 110.24 45.3525C108.884 42.7068 108.176 39.7721 108.174 36.7937ZM103.939 95.6108C104.393 95.6088 104.838 95.743 105.216 95.9964C105.595 96.2498 105.89 96.6109 106.065 97.0341C106.24 97.4572 106.286 97.9232 106.198 98.3728C106.11 98.8225 105.891 99.2357 105.57 99.5598C105.249 99.884 104.839 100.104 104.394 100.193C103.948 100.282 103.486 100.236 103.067 100.059C102.648 99.8829 102.29 99.5848 102.038 99.2028C101.787 98.8208 101.654 98.3721 101.656 97.9137C101.66 97.304 101.901 96.7202 102.329 96.289C102.756 95.8579 103.334 95.6142 103.939 95.6108ZM160.607 115.279H127.749V76.7105L135.377 69.0342C135.762 68.643 135.977 68.114 135.976 67.563C135.975 67.0119 135.758 66.4838 135.371 66.0942C134.985 65.7045 134.462 65.4852 133.916 65.484C133.37 65.4829 132.845 65.7001 132.458 66.0882L125.693 72.9346L118.928 66.0882C118.54 65.7001 118.016 65.4829 117.47 65.484C116.924 65.4852 116.401 65.7045 116.014 66.0942C115.628 66.4838 115.411 67.0119 115.41 67.563C115.409 68.114 115.624 68.643 116.008 69.0342L123.637 76.7105V115.279H90.7793V87.5818C90.784 83.5124 91.8034 79.5095 93.7438 75.9419C95.6841 72.3743 98.483 69.3567 101.883 67.167V91.8349C100.442 92.3268 99.2214 93.319 98.4386 94.6346C97.6558 95.9502 97.3617 97.5036 97.6087 99.0177C97.8557 100.532 98.6278 101.908 99.7872 102.901C100.947 103.894 102.418 104.439 103.939 104.439C105.46 104.439 106.931 103.894 108.09 102.901C109.25 101.908 110.022 100.532 110.269 99.0177C110.516 97.5036 110.222 95.9502 109.439 94.6346C108.656 93.319 107.435 92.3268 105.995 91.8349V65.0301C108.804 63.913 111.796 63.336 114.816 63.3289C115.257 63.3275 115.687 63.1838 116.042 62.9189C116.397 62.6539 116.659 62.2815 116.79 61.8558L118.065 57.7065C122.979 59.5875 128.407 59.5875 133.321 57.7065L134.596 61.8558C134.727 62.2815 134.989 62.6539 135.344 62.9189C135.699 63.1838 136.128 63.3275 136.57 63.3289C138.817 63.3375 141.052 63.6587 143.211 64.2832V85.0922C140.764 85.5752 138.559 86.9004 136.973 88.8416C135.387 90.7827 134.517 93.2194 134.514 95.7353V102.312C134.514 102.862 134.73 103.39 135.116 103.779C135.502 104.168 136.025 104.387 136.57 104.387C137.115 104.387 137.638 104.168 138.024 103.779C138.41 103.39 138.626 102.862 138.626 102.312V95.7353C138.626 93.9581 139.326 92.2536 140.571 90.9968C141.817 89.7401 143.506 89.0341 145.268 89.0341C147.029 89.0341 148.718 89.7401 149.964 90.9968C151.209 92.2536 151.909 93.9581 151.909 95.7353V102.312C151.909 102.862 152.126 103.39 152.511 103.779C152.897 104.168 153.42 104.387 153.965 104.387C154.51 104.387 155.033 104.168 155.419 103.779C155.805 103.39 156.021 102.862 156.021 102.312V95.7353C156.018 93.2194 155.148 90.7827 153.562 88.8416C151.976 86.9004 149.771 85.5752 147.324 85.0922V65.9222C151.313 67.9311 154.669 71.0218 157.016 74.8475C159.362 78.6733 160.605 83.0829 160.607 87.5818V115.279Z" fill="white" stroke="white" stroke-width="1.73162" mask="url(#path-1-inside-1_2466_40389)"/>
<path d="M59.446 1.43524C57.66 1.50084 55.9195 2.02829 54.3944 2.96731C52.8694 3.90634 51.6104 5.22524 50.7374 6.79688C47.1619 6.04529 43.4687 6.08569 39.9102 6.91513C36.3517 7.74458 33.0139 9.34328 30.1289 11.6007C27.2439 13.8582 24.8794 16.7204 23.2001 19.9894C21.5208 23.2584 20.5674 26.8561 20.4037 30.5336V38.5883C20.403 43.4146 21.7667 48.1409 24.3362 52.2136C26.9056 56.2862 30.5731 59.5365 34.9098 61.5829V62.266C34.91 63.9083 34.4199 65.5126 33.5031 66.8702C32.5863 68.2279 31.2863 69.2761 29.7705 69.8785L10.0519 77.7023C7.5948 78.6762 5.48468 80.3735 3.99829 82.5728C2.5119 84.7721 1.7184 87.3715 1.71875 90.0326V114.428C1.71985 115.505 2.14518 116.537 2.90119 117.298C3.65719 118.06 4.68263 118.487 5.75122 118.487H85.4254C86.4944 118.488 87.5189 118.061 88.2754 117.299C89.032 116.538 89.4568 115.505 89.4579 114.428V90.0326C89.4586 87.3721 88.6662 84.7729 87.1808 82.5737C85.6953 80.3744 83.5858 78.677 81.1296 77.7023L61.411 69.8785C59.8937 69.2773 58.5917 68.2295 57.6735 66.8718C56.7554 65.514 56.2624 63.9092 56.2619 62.266V61.5829C58.7178 60.425 60.9716 58.875 62.9372 56.9929C63.7902 59.2233 65.2946 61.141 67.25 62.4936C69.2055 63.8463 71.5219 64.5706 73.8936 64.5709H86.7712C87.3511 64.5723 87.9128 64.374 88.3656 64.0088C88.8185 63.6437 89.1345 63.1336 89.2604 62.5631C89.3862 61.9925 89.3147 61.3957 89.058 60.8716C88.8014 60.3475 88.3747 59.9274 87.8488 59.681C86.0417 58.834 84.5129 57.4846 83.4409 55.7913C82.3688 54.098 81.7986 52.1311 81.7976 50.1225V13.9326C81.7973 11.8638 81.2853 9.82757 80.308 8.00829C79.3308 6.189 77.9185 4.64405 76.2 3.51281C74.4814 2.38158 72.509 1.69972 70.4633 1.52923C68.4177 1.35873 66.3625 1.70473 64.4829 2.53607C62.9216 1.74932 61.1903 1.37095 59.446 1.43524ZM59.8507 3.4305C61.4407 3.43545 62.9965 3.89382 64.339 4.75248C65.6815 5.61114 66.7563 6.835 67.4378 8.28288C68.1192 9.73076 68.3781 11.3436 68.1887 12.9347C67.9992 14.5258 67.3671 16.0302 66.365 17.2744C63.0928 12.4786 58.2884 8.96052 52.7512 7.30798C53.5179 6.1142 54.5679 5.13355 55.8084 4.45608C57.049 3.7786 58.4397 3.42596 59.8507 3.4305ZM69.6125 3.4907C72.3334 3.53198 74.9291 4.65064 76.8387 6.6046C78.7483 8.55856 79.8182 11.1912 79.818 13.9339V50.1237C79.8179 52.5134 80.4943 54.8535 81.7684 56.8688C83.0425 58.8841 84.8611 60.4911 87.0101 61.5006C87.1255 61.5552 87.218 61.6482 87.2734 61.7638C87.3289 61.8795 87.3441 62.0108 87.3149 62.1358C87.2856 62.2608 87.2134 62.3721 87.1125 62.4506C87.0116 62.5291 86.8864 62.5702 86.759 62.567H73.8839C71.7519 62.5661 69.6781 61.8613 67.9814 60.5601C66.2848 59.259 65.0572 57.4332 64.4878 55.3625C68.5349 50.7272 70.7687 44.7641 70.7681 38.5895V30.5348C70.5869 26.4955 69.4516 22.5582 67.4573 19.0498C68.4122 18.009 69.1474 16.784 69.6198 15.4487C70.0922 14.1135 70.291 12.6956 70.2049 11.2807C70.1188 9.86576 69.7507 8.48319 69.12 7.21614C68.4893 5.9491 67.6096 4.82381 66.5357 3.90843C67.5311 3.61536 68.5658 3.47452 69.6027 3.4907H69.6125ZM46.1929 8.22821C52.0653 8.38304 57.6623 10.7752 61.8547 14.9226C66.0471 19.0699 68.5253 24.6643 68.7884 30.579V33.852C63.1991 35.048 57.3914 34.6869 51.9905 32.8071C46.5896 30.9273 41.7989 27.6 38.1329 23.1828C37.8018 22.7837 37.3888 22.4626 36.9212 22.2423C36.4536 22.022 35.9428 21.9078 35.4267 21.9078C34.9105 21.9078 34.3998 22.022 33.9322 22.2423C33.4646 22.4626 33.0515 22.7837 32.7205 23.1828C29.7085 26.8205 26.235 30.0426 22.3882 32.7659V30.579C22.6607 24.4531 25.3064 18.6796 29.7583 14.4999C34.2103 10.3203 40.1108 8.0682 46.1929 8.22821ZM35.4657 23.9052C35.6862 23.9101 35.9034 23.9624 36.102 24.0591C36.3006 24.1558 36.4756 24.2944 36.6164 24.4655C40.4673 29.1053 45.4866 32.6151 51.147 34.6264C56.8073 36.6377 62.9019 37.0762 68.7884 35.8964V38.5895C68.74 44.759 66.2735 50.6594 61.9279 55.0047C57.5822 59.35 51.7098 61.7881 45.5883 61.7881C39.4669 61.7881 33.5919 59.35 29.2463 55.0047C24.9007 50.6594 22.4367 44.759 22.3882 38.5895V35.1937C26.8322 32.2108 30.8261 28.5975 34.2467 24.4655C34.395 24.2852 34.5814 24.1411 34.7928 24.0441C35.0042 23.947 35.2334 23.8997 35.4657 23.9052ZM36.8944 62.4196C42.5037 64.4975 48.6632 64.4975 54.2725 62.4196C54.302 64.4387 54.9271 66.4037 56.0669 68.0644C57.2066 69.7252 58.8106 71.007 60.6747 71.7472L60.899 71.8403L45.5737 87.134L30.2483 71.8403L30.4726 71.7472C32.3372 71.0074 33.9427 69.7256 35.0829 68.0648C36.2231 66.4039 36.8476 64.439 36.8773 62.4196H36.8944ZM28.2443 72.6416L44.3644 88.7315C44.4338 88.8015 44.5086 88.8656 44.5887 88.9228V116.488H5.74634C5.2055 116.486 4.68735 116.268 4.30548 115.882C3.92361 115.496 3.70816 114.973 3.70817 114.428V90.0335C3.70728 87.7768 4.37991 85.5719 5.63907 83.7058C6.89823 81.8398 8.68595 80.3991 10.7686 79.5707L22.5442 74.9016V79.9589C21.0771 80.1625 19.7056 80.812 18.6142 81.8209C17.5227 82.8297 16.7625 84.1497 16.4346 85.6053L13.0067 100.82C12.8912 101.331 12.8999 101.862 13.0311 102.368C13.1624 102.874 13.4142 103.342 13.7625 103.73C14.6474 104.713 15.7841 105.429 17.049 105.799C17.2094 106.255 17.5186 106.645 17.9242 106.905C18.3298 107.165 18.8085 107.281 19.2871 107.234C19.7656 107.187 20.2165 106.98 20.5646 106.646C20.9127 106.312 21.1384 105.869 21.2082 105.39C21.278 104.91 21.1879 104.421 20.9498 104C20.7117 103.579 20.339 103.251 19.8941 103.067C19.4492 102.883 18.9574 102.855 18.4947 102.987C18.032 103.119 17.6255 103.403 17.3415 103.794C16.5315 103.509 15.806 103.024 15.2302 102.383C15.0964 102.235 15.0007 102.055 14.9498 101.861C14.899 101.667 14.894 101.464 14.9376 101.268L18.3655 86.0528C18.6306 84.8721 19.2873 83.8171 20.2257 83.0614C21.1641 82.3058 22.3281 81.8943 23.5292 81.8943C24.7303 81.8943 25.8967 82.3058 26.8351 83.0614C27.7735 83.8171 28.4278 84.8721 28.6929 86.0528L32.1159 101.268C32.1595 101.464 32.1569 101.667 32.1061 101.861C32.0553 102.055 31.9571 102.235 31.8233 102.383C31.2475 103.024 30.522 103.509 29.712 103.794C29.426 103.404 29.0197 103.122 28.5564 102.993C28.0931 102.864 27.6008 102.895 27.1569 103.081C26.7131 103.267 26.3421 103.597 26.1062 104.019C25.8702 104.441 25.7805 104.931 25.8526 105.41C25.9248 105.889 26.1539 106.33 26.5036 106.662C26.8532 106.995 27.3049 107.2 27.7835 107.244C28.2622 107.289 28.742 107.171 29.1464 106.909C29.5507 106.647 29.8559 106.256 30.0143 105.799C31.2765 105.428 32.4106 104.712 33.2934 103.73C33.644 103.343 33.8987 102.876 34.0321 102.37C34.1656 101.863 34.1753 101.332 34.0614 100.82L30.6336 85.6053C30.3056 84.1497 29.5454 82.8297 28.454 81.8209C27.3625 80.812 25.991 80.1625 24.5239 79.9589V74.1107L28.2443 72.6416ZM62.9445 72.6416L68.686 74.9219V85.2864C66.7139 85.5413 64.9119 86.5437 63.6467 88.0895C62.3815 89.6353 61.7475 91.6086 61.8742 93.6084C62.0009 95.6082 62.8793 97.4844 64.3293 98.8555C65.7793 100.227 67.6925 100.99 69.6807 100.99C71.669 100.99 73.5822 100.227 75.0322 98.8555C76.4822 97.4844 77.3605 95.6082 77.4872 93.6084C77.6139 91.6086 76.98 89.6353 75.7148 88.0895C74.4496 86.5437 72.6475 85.5413 70.6754 85.2864V75.7082L80.4031 79.571C82.4877 80.3978 84.279 81.8382 85.54 83.7043C86.801 85.5704 87.4734 87.7759 87.4733 90.0338V114.429C87.4733 114.7 87.4204 114.968 87.3173 115.219C87.2142 115.469 87.064 115.696 86.8736 115.887C86.6832 116.079 86.4566 116.23 86.208 116.333C85.9594 116.436 85.6943 116.489 85.4254 116.488H46.5879V88.9231C46.668 88.8659 46.7428 88.8021 46.8122 88.7321L62.9445 72.6416ZM69.5637 87.1687C70.3442 87.1531 71.1208 87.2956 71.8457 87.5876C72.5706 87.8797 73.2291 88.3155 73.7839 88.8691C74.3387 89.4227 74.7791 90.0829 75.076 90.8106C75.373 91.5383 75.5201 92.3185 75.5125 93.1053C75.5125 94.6649 74.8976 96.1608 73.8034 97.2635C72.7092 98.3663 71.2257 98.9857 69.6783 98.9857C68.1309 98.9857 66.6473 98.3663 65.5532 97.2635C64.459 96.1608 63.8441 94.6649 63.8441 93.1053C63.829 91.5558 64.4212 90.0631 65.4922 88.9514C66.5633 87.8397 68.0266 87.199 69.5637 87.1687Z" fill="white" stroke="white" stroke-width="2"/>
</svg>
