<svg width="110" height="37" viewBox="0 0 110 37" fill="none" xmlns="http://www.w3.org/2000/svg">
<g id="Logotipo">
<g id="Group 1000005888">
<g id="2">
<path id="Ellipse 265" d="M29.6431 23.5507C28.6506 26.2144 26.8499 28.299 24.4478 29.9749C21.0213 32.1856 17.106 32.7611 13.1889 31.7405C13.1889 31.7405 13.6916 28.4755 10.7868 26.4086C7.88194 24.3417 5.08881 25.6824 5.08881 25.6824C3.07252 22.2675 2.68671 18.1968 3.63638 14.6216C4.37738 12.1799 5.75659 9.96061 7.65848 8.25323C10.1723 5.99651 13.4123 4.45457 15.2558 6.91253C17.0993 9.37048 15.1999 11.4933 13.5092 12.155C11.8185 12.8168 10.9026 14.3337 10.5485 16.0654C9.65468 18.6351 10.8844 21.9571 13.1182 23.4952C16.5258 25.8414 21.3195 24.8914 23.2747 21.0368C24.392 19.361 23.2747 17.0147 26.3472 15.9533C28.5153 15.3944 30.481 16.903 30.5927 19.0817C30.5641 20.624 30.1879 22.0881 29.6431 23.5507Z" fill="url(#paint0_linear_1358_71667)"/>
<path id="Vector 29" d="M10.9543 20.6551C9.05498 16.2419 12.295 12.8902 13.7474 12.0523C5.81492 13.1695 3.97144 21.102 6.3177 25.3475C6.3177 25.3475 8.47785 24.7914 10.7308 26.4089C12.9838 28.0265 13.1606 30.4394 13.1606 30.4394C14.5714 30.6705 16.0526 30.5885 17.4902 30.1517C21.9034 28.811 24.7523 24.3979 23.8585 19.5378C22.7972 23.2248 19.9482 24.6772 17.2109 24.7889C16.0388 24.8368 12.493 24.2303 10.9543 20.6551Z" fill="#3541B4"/>
<ellipse id="Ellipse 271" cx="7.26504" cy="31.2419" rx="4.61795" ry="4.61795" transform="rotate(-75.0197 7.26504 31.2419)" fill="#3541B4"/>
</g>
<g id="1">
<path id="Ellipse 265_2" d="M31.8365 24.8445C33.5272 24.1827 34.4431 22.6658 34.7972 20.9341C35.691 18.3644 34.4613 15.0424 32.2275 13.5044C28.8199 11.1581 24.1275 12.1637 22.1723 16.0182C21.055 17.694 22.284 19.9844 19.0998 21.0458C17.0624 21.5863 14.7444 20.1841 14.7835 18.0765C14.7835 13.6075 17.1298 9.64127 20.8167 7.07159C24.5595 4.78123 28.2397 4.23846 32.1568 5.259C32.1568 5.259 31.7326 8.57988 34.5589 10.5909C37.3853 12.602 40.2569 11.3172 40.2569 11.3172C42.2732 14.732 42.659 18.8027 41.7093 22.3779C40.9683 24.8196 39.5891 27.0389 37.6872 28.7463C35.1734 31.003 31.9334 32.5449 30.0899 30.087C28.2464 27.629 30.1458 25.5063 31.8365 24.8445Z" fill="url(#paint1_linear_1358_71667)"/>
<path id="Vector 29_2" d="M34.3914 16.3444C36.2907 20.7576 33.0507 24.1093 31.5983 24.9473C39.5308 23.83 41.3743 15.8975 39.028 11.652C39.028 11.652 36.8679 12.2081 34.6149 10.5906C32.3619 8.97306 32.1851 6.56016 32.1851 6.56016C30.7743 6.329 29.2931 6.41103 27.8555 6.84779C23.4423 8.18849 20.5934 12.6016 21.4872 17.4617C22.5485 13.7747 25.3975 12.3223 28.1348 12.2106C29.3069 12.1628 32.8527 12.7692 34.3914 16.3444Z" fill="#0CADBB"/>
<ellipse id="Ellipse 271_2" cx="38.0807" cy="5.75757" rx="4.61795" ry="4.61795" transform="rotate(104.98 38.0807 5.75757)" fill="#0CADBB"/>
</g>
</g>
<g id="Vitalink">
<path id="Vector" d="M105.106 20.1273L103.755 21.4055V23.4534H101.939V12.2295H103.755V19.1833L107.517 15.6974H109.695L106.457 18.9509L110 23.4534H107.793L105.106 20.1273Z" fill="#3541B4"/>
<path id="Vector_2" d="M95.8159 15.6104C96.7939 15.6104 97.5782 15.896 98.1688 16.4673C98.7595 17.0386 99.0548 17.8858 99.0548 19.009V23.4535H97.2393V19.2414C97.2393 18.5636 97.0795 18.0553 96.76 17.7164C96.4404 17.3678 95.9853 17.1935 95.3947 17.1935C94.7266 17.1935 94.1989 17.3968 93.8115 17.8035C93.4242 18.2005 93.2306 18.7766 93.2306 19.5319V23.4535H91.415V15.6975H93.1434V16.6997C93.4436 16.3414 93.8212 16.0703 94.2763 15.8863C94.7314 15.7023 95.2446 15.6104 95.8159 15.6104Z" fill="#3541B4"/>
<path id="Vector_3" d="M86.6356 15.6975H88.4511V23.4535H86.6356V15.6975ZM87.5506 14.4194C87.2214 14.4194 86.9454 14.3177 86.7227 14.1144C86.5 13.9013 86.3887 13.6399 86.3887 13.33C86.3887 13.0202 86.5 12.7636 86.7227 12.5603C86.9454 12.3472 87.2214 12.2407 87.5506 12.2407C87.8798 12.2407 88.1558 12.3424 88.3785 12.5457C88.6012 12.7394 88.7126 12.9863 88.7126 13.2865C88.7126 13.606 88.6012 13.8771 88.3785 14.0998C88.1655 14.3129 87.8895 14.4194 87.5506 14.4194Z" fill="#3541B4"/>
<path id="Vector_4" d="M83.7321 23.5551C82.9284 23.5551 82.299 23.3372 81.8439 22.9015C81.3985 22.4561 81.1758 21.8315 81.1758 21.0279V12.2295H82.9913V20.8971C82.9913 21.6718 83.3544 22.0591 84.0806 22.0591C84.3227 22.0591 84.5406 22.0107 84.7342 21.9138L84.8214 23.3663C84.4825 23.4921 84.1194 23.5551 83.7321 23.5551Z" fill="#3541B4"/>
<path id="Vector_5" d="M78.2188 15.6975V23.4535H76.4904V22.4513C76.1902 22.8192 75.8174 23.0952 75.372 23.2792C74.9363 23.4631 74.4522 23.5551 73.9196 23.5551C73.1643 23.5551 72.4865 23.3905 71.8862 23.0613C71.2955 22.7321 70.8308 22.2673 70.4919 21.667C70.1627 21.0666 69.998 20.3695 69.998 19.5755C69.998 18.7815 70.1627 18.0892 70.4919 17.4985C70.8308 16.8982 71.2955 16.4334 71.8862 16.1042C72.4865 15.775 73.1643 15.6104 73.9196 15.6104C74.4231 15.6104 74.883 15.6975 75.2994 15.8718C75.7255 16.0461 76.0934 16.3027 76.4033 16.6416V15.6975H78.2188ZM74.1229 22.001C74.7911 22.001 75.343 21.7783 75.7787 21.3329C76.2144 20.8875 76.4323 20.3017 76.4323 19.5755C76.4323 18.8493 76.2144 18.2635 75.7787 17.818C75.343 17.3726 74.7911 17.1499 74.1229 17.1499C73.4548 17.1499 72.9029 17.3726 72.4672 17.818C72.0411 18.2635 71.8281 18.8493 71.8281 19.5755C71.8281 20.3017 72.0411 20.8875 72.4672 21.3329C72.9029 21.7783 73.4548 22.001 74.1229 22.001Z" fill="#3541B4"/>
<path id="Vector_6" d="M68.8109 23.032C68.5979 23.2063 68.3364 23.337 68.0266 23.4242C67.7264 23.5113 67.4069 23.5549 67.068 23.5549C66.2159 23.5549 65.5575 23.3322 65.0927 22.8868C64.6279 22.4414 64.3955 21.7926 64.3955 20.9405V13.9834H66.211V15.7554H68.288V17.2078H66.211V20.897C66.211 21.2746 66.303 21.5651 66.487 21.7684C66.6807 21.9621 66.9469 22.0589 67.2858 22.0589C67.6925 22.0589 68.0314 21.9524 68.3025 21.7394L68.8109 23.032Z" fill="#3541B4"/>
<path id="Vector_7" d="M59.6746 15.6975H61.4902V23.4535H59.6746V15.6975ZM60.5897 14.4194C60.2605 14.4194 59.9845 14.3177 59.7618 14.1144C59.5391 13.9013 59.4277 13.6399 59.4277 13.33C59.4277 13.0202 59.5391 12.7636 59.7618 12.5603C59.9845 12.3472 60.2605 12.2407 60.5897 12.2407C60.9189 12.2407 61.1949 12.3424 61.4176 12.5457C61.6403 12.7394 61.7516 12.9863 61.7516 13.2865C61.7516 13.606 61.6403 13.8771 61.4176 14.0998C61.2045 14.3129 60.9286 14.4194 60.5897 14.4194Z" fill="#3541B4"/>
<path id="Vector_8" d="M58.1241 13.2866L53.6942 23.4536H51.8351L47.3906 13.2866H49.4385L52.8227 21.1297L56.2359 13.2866H58.1241Z" fill="#3541B4"/>
</g>
</g>
<defs>
<linearGradient id="paint0_linear_1358_71667" x1="21.8223" y1="10.0463" x2="12.2984" y2="24.5587" gradientUnits="userSpaceOnUse">
<stop stop-color="#2734AE"/>
<stop offset="1" stop-color="#D1D5F8"/>
</linearGradient>
<linearGradient id="paint1_linear_1358_71667" x1="23.6098" y1="21.8752" x2="43.1618" y2="-1.19607" gradientUnits="userSpaceOnUse">
<stop stop-color="#0CADBB"/>
<stop offset="0.5" stop-color="#C2F2F2"/>
<stop offset="1" stop-color="#0CADBB"/>
</linearGradient>
</defs>
</svg>
