<svg width="163" height="119" viewBox="0 0 163 119" fill="none" xmlns="http://www.w3.org/2000/svg">
<path d="M57.8056 46.6497H44.4403C43.3468 46.6497 42.46 47.5337 42.46 48.6237V56.4858C42.46 57.5758 43.3468 58.4598 44.4403 58.4598H57.8056C58.899 58.4598 59.7859 57.5758 59.7859 56.4858V48.6237C59.7859 47.5337 58.899 46.6497 57.8056 46.6497ZM55.8253 54.5118H46.4205V50.5977H55.8253V54.5118Z" fill="#E7F7F8"/>
<path d="M57.8056 66.3352H44.4403C43.3468 66.3352 42.46 67.2192 42.46 68.3092V76.171C42.46 77.261 43.3468 78.145 44.4403 78.145H57.8056C58.899 78.145 59.7859 77.261 59.7859 76.171V68.3092C59.7859 67.2189 58.899 66.3352 57.8056 66.3352ZM55.8253 74.1967H46.4205V70.2829H55.8253V74.1967Z" fill="#E7F7F8"/>
<path d="M57.8056 86.0371H44.4403C43.3468 86.0371 42.46 86.9211 42.46 88.0111V95.8562C42.46 96.9461 43.3468 97.8302 44.4403 97.8302H57.8056C58.899 97.8302 59.7859 96.9461 59.7859 95.8562V88.0111C59.7859 86.9211 58.899 86.0371 57.8056 86.0371ZM55.8253 93.8821H46.4205V89.9851H55.8253V93.8821Z" fill="#E7F7F8"/>
<path d="M106.496 58.4598H119.861C120.955 58.4598 121.842 57.5758 121.842 56.4858V48.6237C121.842 47.5337 120.955 46.6497 119.861 46.6497H106.496C105.402 46.6497 104.516 47.5337 104.516 48.6237V56.4858C104.516 57.5761 105.402 58.4598 106.496 58.4598ZM108.476 50.5977H117.881V54.5118H108.476V50.5977Z" fill="#E7F7F8"/>
<path d="M106.496 78.1448H119.861C120.955 78.1448 121.842 77.2608 121.842 76.1708V68.309C121.842 67.219 120.955 66.335 119.861 66.335H106.496C105.402 66.335 104.516 67.219 104.516 68.309V76.1708C104.516 77.2611 105.402 78.1448 106.496 78.1448ZM108.476 70.2833H117.881V74.1971H108.476V70.2833Z" fill="#E7F7F8"/>
<path d="M106.496 97.8302H119.861C120.955 97.8302 121.842 96.9461 121.842 95.8562V88.0111C121.842 86.9211 120.955 86.0371 119.861 86.0371H106.496C105.402 86.0371 104.516 86.9211 104.516 88.0111V95.8562C104.516 96.9465 105.402 97.8302 106.496 97.8302ZM108.476 89.9851H117.881V93.8821H108.476V89.9851Z" fill="#E7F7F8"/>
<path d="M160.861 49.5047H128.315V40.2937H140.643C141.312 40.2937 141.935 39.9571 142.301 39.3988C142.666 38.8405 142.725 38.1361 142.456 37.5258L126.66 1.68013C126.344 0.962907 125.633 0.5 124.847 0.5H38.8189C38.033 0.5 37.3211 0.963564 37.0052 1.68079L21.2289 37.5265C20.9602 38.1368 21.0187 38.8412 21.3847 39.3991C21.7504 39.9571 22.3738 40.2934 23.0425 40.2934H35.3705V49.5044H2.82404C1.73059 49.5044 0.84375 50.3884 0.84375 51.4784V116.463C0.84375 117.553 1.73059 118.437 2.82404 118.437H37.3442C37.3465 118.437 37.3485 118.437 37.3508 118.437H67.9968H95.6876H126.334C126.336 118.437 126.338 118.437 126.341 118.437H160.861C161.954 118.437 162.841 117.553 162.841 116.463V51.4788C162.841 50.3884 161.954 49.5047 160.861 49.5047ZM40.1127 4.44802H123.554L137.61 36.3457H126.334H37.3508H26.0737L40.1127 4.44802ZM4.80434 53.4528H35.3705V114.489H4.80434V53.4528ZM39.3311 51.4788V40.2937H124.354V51.4788V114.49H97.6679V76.4605C97.6679 75.3705 96.7811 74.4865 95.6876 74.4865H67.9968C66.9034 74.4865 66.0166 75.3705 66.0166 76.4605V114.49H39.3311V51.4788ZM69.9771 114.49V78.4345H93.7073V114.49H69.9771ZM158.88 114.489H128.315V53.4528H158.88V114.489Z" fill="#E7F7F8"/>
<path d="M134.149 68.8543H140.822C141.916 68.8543 142.802 67.9703 142.802 66.8803V59.0182C142.802 57.9279 141.916 57.0442 140.822 57.0442H134.149C133.056 57.0442 132.169 57.9279 132.169 59.0182V66.8803C132.169 67.9703 133.056 68.8543 134.149 68.8543ZM136.13 60.9919H138.842V64.906H136.13V60.9919Z" fill="#E7F7F8"/>
<path d="M146.354 68.8543H153.045C154.138 68.8543 155.025 67.9703 155.025 66.8803V59.0182C155.025 57.9279 154.138 57.0442 153.045 57.0442H146.354C145.261 57.0442 144.374 57.9279 144.374 59.0182V66.8803C144.374 67.9703 145.261 68.8543 146.354 68.8543ZM148.335 60.9919H151.064V64.906H148.335V60.9919Z" fill="#E7F7F8"/>
<path d="M146.354 88.124H153.045C154.138 88.124 155.025 87.24 155.025 86.15V78.3053C155.025 77.2153 154.138 76.3313 153.045 76.3313H146.354C145.261 76.3313 144.374 77.2153 144.374 78.3053V86.15C144.374 87.2403 145.261 88.124 146.354 88.124ZM148.335 80.2793H151.064V84.176H148.335V80.2793Z" fill="#E7F7F8"/>
<path d="M134.149 88.124H140.822C141.916 88.124 142.802 87.24 142.802 86.15V78.3053C142.802 77.2153 141.916 76.3313 140.822 76.3313H134.149C133.056 76.3313 132.169 77.2153 132.169 78.3053V86.15C132.169 87.2403 133.056 88.124 134.149 88.124ZM136.13 80.2793H138.842V84.176H136.13V80.2793Z" fill="#E7F7F8"/>
<path d="M146.354 107.393H153.045C154.138 107.393 155.025 106.509 155.025 105.419V97.5736C155.025 96.4836 154.138 95.5996 153.045 95.5996H146.354C145.261 95.5996 144.374 96.4836 144.374 97.5736V105.419C144.374 106.509 145.261 107.393 146.354 107.393ZM148.335 99.5476H151.064V103.445H148.335V99.5476Z" fill="#E7F7F8"/>
<path d="M134.149 107.393H140.822C141.916 107.393 142.802 106.509 142.802 105.419V97.5736C142.802 96.4836 141.916 95.5996 140.822 95.5996H134.149C133.056 95.5996 132.169 96.4836 132.169 97.5736V105.419C132.169 106.509 133.056 107.393 134.149 107.393ZM136.13 99.5476H138.842V103.445H136.13V99.5476Z" fill="#E7F7F8"/>
<path d="M17.3299 57.0442H10.6395C9.54602 57.0442 8.65918 57.9279 8.65918 59.0182V66.8803C8.65918 67.9703 9.54602 68.8543 10.6395 68.8543H17.3299C18.4234 68.8543 19.3102 67.9703 19.3102 66.8803V59.0182C19.3102 57.9279 18.4237 57.0442 17.3299 57.0442ZM15.3496 64.9063H12.6198V60.9919H15.3496V64.9063Z" fill="#E7F7F8"/>
<path d="M29.535 57.0442H22.8426C21.7491 57.0442 20.8623 57.9279 20.8623 59.0182V66.8803C20.8623 67.9703 21.7491 68.8543 22.8426 68.8543H29.535C30.6285 68.8543 31.5153 67.9703 31.5153 66.8803V59.0182C31.5153 57.9279 30.6288 57.0442 29.535 57.0442ZM27.5547 64.9063H24.8229V60.9919H27.5547V64.9063Z" fill="#E7F7F8"/>
<path d="M29.535 76.3313H22.8426C21.7491 76.3313 20.8623 77.2153 20.8623 78.3053V86.15C20.8623 87.24 21.7491 88.124 22.8426 88.124H29.535C30.6285 88.124 31.5153 87.24 31.5153 86.15V78.3053C31.5153 77.2153 30.6288 76.3313 29.535 76.3313ZM27.5547 84.176H24.8229V80.2793H27.5547V84.176Z" fill="#E7F7F8"/>
<path d="M17.3299 76.3313H10.6395C9.54602 76.3313 8.65918 77.2153 8.65918 78.3053V86.15C8.65918 87.24 9.54602 88.124 10.6395 88.124H17.3299C18.4234 88.124 19.3102 87.24 19.3102 86.15V78.3053C19.3102 77.2153 18.4237 76.3313 17.3299 76.3313ZM15.3496 84.176H12.6198V80.2793H15.3496V84.176Z" fill="#E7F7F8"/>
<path d="M17.3299 95.5996H10.6395C9.54602 95.5996 8.65918 96.4836 8.65918 97.5736V105.419C8.65918 106.509 9.54602 107.393 10.6395 107.393H17.3299C18.4234 107.393 19.3102 106.509 19.3102 105.419V97.5736C19.3102 96.4833 18.4237 95.5996 17.3299 95.5996ZM15.3496 103.445H12.6198V99.5476H15.3496V103.445Z" fill="#E7F7F8"/>
<path d="M29.535 95.5996H22.8426C21.7491 95.5996 20.8623 96.4836 20.8623 97.5736V105.419C20.8623 106.509 21.7491 107.393 22.8426 107.393H29.535C30.6285 107.393 31.5153 106.509 31.5153 105.419V97.5736C31.5153 96.4833 30.6288 95.5996 29.535 95.5996ZM27.5547 103.445H24.8229V99.5476H27.5547V103.445Z" fill="#E7F7F8"/>
<path d="M69.5379 58.4598H94.1269C95.2203 58.4598 96.1072 57.5758 96.1072 56.4858V48.6237C96.1072 47.5334 95.2203 46.6497 94.1269 46.6497H69.5379C68.4441 46.6497 67.5576 47.5334 67.5576 48.6237V56.4858C67.5576 57.5761 68.4441 58.4598 69.5379 58.4598ZM71.5182 50.5977H92.1466V54.5118H71.5182V50.5977Z" fill="#E7F7F8"/>
<path d="M72.9486 26.8087H75.4105V29.2646C75.4105 31.3689 77.1287 33.0807 79.2404 33.0807H84.4258C86.5483 33.0807 88.2748 31.3689 88.2748 29.2646V26.8087H90.7363C92.848 26.8087 94.5662 25.0877 94.5662 22.9722V17.8026C94.5662 15.6976 92.848 13.9852 90.7363 13.9852H88.2745V11.5292C88.2745 9.41468 86.548 7.69434 84.4254 7.69434H79.24C77.1284 7.69434 75.4105 9.41468 75.4105 11.5292V13.9852H72.9486C70.8264 13.9852 69.0996 15.6976 69.0996 17.8026V22.9722C69.0996 25.0877 70.8264 26.8087 72.9486 26.8087ZM73.0602 17.9332H77.3908C78.4842 17.9332 79.3711 17.0492 79.3711 15.9592V11.6424H84.3139V15.9592C84.3139 17.0492 85.2007 17.9332 86.2942 17.9332H90.6056V22.8606H86.2945C85.201 22.8606 84.3142 23.7447 84.3142 24.8346V29.1327H79.3711V24.8346C79.3711 23.7447 78.4842 22.8606 77.3908 22.8606H73.0602V17.9332Z" fill="#E7F7F8"/>
</svg>
