<svg width="22" height="23" viewBox="0 0 22 23" fill="none" xmlns="http://www.w3.org/2000/svg">
<path d="M19.16 8.7001L11.4569 3.38761C11.3208 3.29935 11.1622 3.25238 11 3.25238C10.8378 3.25238 10.6792 3.29935 10.5431 3.38761L2.84002 8.7001C2.73421 8.77414 2.64798 8.87278 2.58876 8.98753C2.52953 9.10228 2.49908 9.22971 2.50002 9.35885V17.3276C2.50002 18.1025 2.80786 18.8457 3.35582 19.3937C3.90377 19.9416 4.64696 20.2494 5.42189 20.2494H7.81251V15.7338C7.81251 14.9589 8.12035 14.2157 8.6683 13.6678C9.21626 13.1198 9.95945 12.812 10.7344 12.812H11.2656C12.0406 12.812 12.7837 13.1198 13.3317 13.6678C13.8797 14.2157 14.1875 14.9589 14.1875 15.7338V20.2494H16.5781C17.353 20.2494 18.0962 19.9416 18.6442 19.3937C19.1921 18.8457 19.5 18.1025 19.5 17.3276V9.35885C19.5009 9.22971 19.4705 9.10228 19.4112 8.98753C19.352 8.87278 19.2658 8.77414 19.16 8.7001Z" fill="#3541B4"/>
</svg>
