<svg width="181" height="132" viewBox="0 0 181 132" fill="none" xmlns="http://www.w3.org/2000/svg">
<rect x="0.186969" y="0.186969" width="180.612" height="131.626" rx="6.16997" fill="white"/>
<rect x="0.186969" y="0.186969" width="180.612" height="131.626" rx="6.16997" stroke="#E1E4ED" stroke-width="0.373938"/>
<path d="M71.7962 14.2095H19.8188V63.4611H71.7962V14.2095Z" fill="white"/>
<path d="M52.1059 27.9413C53.079 28.5522 53.9378 29.2772 54.6769 30.0877L59.4453 26.7094C58.2591 25.2998 56.8389 24.0479 55.1969 23.0173C51.209 20.5138 46.6151 19.749 42.3086 20.5178L43.8114 26.1631C46.6024 25.7765 49.5383 26.3295 52.1059 27.9413Z" fill="#6D758F"/>
<path d="M35.8783 30.6127C37.2331 28.9479 38.9588 27.7116 40.859 26.9479L39.3562 21.3027C36.0874 22.4701 33.1305 24.5725 30.9292 27.5061L35.8783 30.6127Z" fill="#B4B9C9"/>
<path d="M60.0782 49.4105L55.1293 46.3038C51.231 51.0934 44.2631 52.3408 38.902 48.9754C33.5407 45.6101 31.6353 38.7926 34.2544 33.1999L29.3056 30.0933C24.9989 38.4183 27.7326 48.8281 35.8112 53.8994C43.8895 58.9707 54.4528 56.9078 60.0782 49.4105Z" fill="#E1E4ED"/>
<path d="M56.4395 32.5819C58.2476 35.9607 58.4486 40.0953 56.7528 43.7162L61.7019 46.8229C64.6451 41.1334 64.2998 34.471 61.2078 29.2036L56.4395 32.5819Z" fill="#B4B9C9"/>
<path d="M35.8981 105.45H23.9321V117.79H35.8981V105.45Z" fill="#E1E4ED"/>
<path d="M51.9772 100.215H39.6372V117.79H51.9772V100.215Z" fill="#E1E4ED"/>
<path d="M67.6837 92.7363H55.7056V117.896H67.6837V92.7363Z" fill="#E1E4ED"/>
<path d="M54.2208 88.1132L51.7868 77.4053L42.2034 82.8067L44.6561 83.8898C43.8574 86.0502 42.3467 89.0437 39.479 91.716C33.7109 97.091 26.7007 97.2068 25.0537 97.1908C26.2345 97.6661 34.4922 100.83 42.8721 96.3565C47.9199 93.6617 50.5417 89.5147 51.7558 87.0246L54.2208 88.1132Z" fill="#B4B9C9"/>
<path d="M106.885 39.6069H100.391C100.349 39.6069 100.315 39.5733 100.315 39.5318C100.315 39.4902 100.349 39.4566 100.391 39.4566H106.83L111.29 35.6656H131.357L136.04 30.9826H156.779L164.45 23.3111C164.48 23.2817 164.527 23.2817 164.556 23.3111C164.586 23.3405 164.586 23.388 164.556 23.4173L156.841 31.1329H136.102L131.419 35.8159H111.345L106.885 39.6069Z" fill="#6D758F"/>
<path d="M118.631 50.9986H100.327C100.285 50.9986 100.251 50.965 100.251 50.9234C100.251 50.8819 100.285 50.8483 100.327 50.8483H118.569L129.21 40.2068H133.402L137.003 36.606H153.028L158.322 41.8998H165.68C165.722 41.8998 165.756 41.9334 165.756 41.9749C165.756 42.0165 165.722 42.05 165.68 42.05H158.259L152.965 36.7562H137.065L133.465 40.3571H129.272L118.631 50.9986Z" fill="#B4B9C9"/>
<path d="M158.45 42.8354C158.937 42.8354 159.333 42.4399 159.333 41.9521C159.333 41.4643 158.937 41.0688 158.45 41.0688C157.962 41.0688 157.566 41.4643 157.566 41.9521C157.566 42.4399 157.962 42.8354 158.45 42.8354Z" fill="#B4B9C9"/>
<path d="M152.928 37.475C153.416 37.475 153.811 37.0796 153.811 36.5917C153.811 36.1039 153.416 35.7085 152.928 35.7085C152.44 35.7085 152.045 36.1039 152.045 36.5917C152.045 37.0796 152.44 37.475 152.928 37.475Z" fill="#B4B9C9"/>
<path d="M136.971 37.475C137.458 37.475 137.854 37.0796 137.854 36.5917C137.854 36.1039 137.458 35.7085 136.971 35.7085C136.483 35.7085 136.087 36.1039 136.087 36.5917C136.087 37.0796 136.483 37.475 136.971 37.475Z" fill="#B4B9C9"/>
<path d="M133.637 41.1146C134.125 41.1146 134.52 40.7192 134.52 40.2314C134.52 39.7436 134.125 39.3481 133.637 39.3481C133.149 39.3481 132.754 39.7436 132.754 40.2314C132.754 40.7192 133.149 41.1146 133.637 41.1146Z" fill="#B4B9C9"/>
<path d="M129.363 41.1771C129.851 41.1771 130.246 40.7817 130.246 40.2939C130.246 39.8061 129.851 39.4106 129.363 39.4106C128.875 39.4106 128.479 39.8061 128.479 40.2939C128.479 40.7817 128.875 41.1771 129.363 41.1771Z" fill="#B4B9C9"/>
<path d="M118.674 51.6718C119.162 51.6718 119.557 51.2763 119.557 50.7885C119.557 50.3007 119.162 49.9053 118.674 49.9053C118.186 49.9053 117.791 50.3007 117.791 50.7885C117.791 51.2763 118.186 51.6718 118.674 51.6718Z" fill="#B4B9C9"/>
<path d="M119.18 36.7128L119.074 36.6065L128.342 27.3383H155.983L160.137 23.1841L160.243 23.2903L156.045 27.4886H128.404L119.18 36.7128Z" fill="#B4B9C9"/>
<path d="M111.096 44.7964H100.215V44.6461H111.034L119.074 36.6064L119.18 36.7127L111.096 44.7964Z" fill="#B4B9C9"/>
<path d="M110.874 45.5531C111.362 45.5531 111.757 45.1577 111.757 44.6699C111.757 44.1821 111.362 43.7866 110.874 43.7866C110.386 43.7866 109.991 44.1821 109.991 44.6699C109.991 45.1577 110.386 45.5531 110.874 45.5531Z" fill="#B4B9C9"/>
<path d="M156.406 28.2853C156.857 28.0986 157.071 27.5819 156.884 27.1312C156.697 26.6805 156.181 26.4665 155.73 26.6532C155.279 26.8399 155.065 27.3566 155.252 27.8072C155.439 28.2579 155.955 28.4719 156.406 28.2853Z" fill="#B4B9C9"/>
<path d="M159.909 121.798H105.825V86.2427H106.187V121.435H159.909V121.798Z" fill="white"/>
<path d="M140.593 97.9356C140.531 97.9356 140.471 97.9041 140.437 97.8473C140.386 97.7614 140.414 97.6501 140.5 97.5988L146.903 93.7723C146.988 93.7209 147.1 93.749 147.151 93.8351C147.202 93.921 147.175 94.0323 147.088 94.0836L140.686 97.9101C140.657 97.9273 140.625 97.9356 140.593 97.9356Z" fill="#6D758F"/>
<path d="M136.539 96.9127C136.48 96.9127 136.422 96.884 136.387 96.8309L127.712 83.6246C127.657 83.541 127.681 83.4286 127.764 83.3735C127.848 83.3186 127.96 83.3418 128.015 83.4255L136.69 96.6319C136.745 96.7154 136.722 96.8278 136.638 96.8829C136.608 96.903 136.573 96.9127 136.539 96.9127Z" fill="#6D758F"/>
<path d="M117.346 88.3405C117.292 88.3405 117.238 88.3162 117.202 88.27C117.141 88.1906 117.156 88.0769 117.235 88.0159L123.974 82.8094C124.054 82.748 124.168 82.7628 124.229 82.842C124.29 82.9214 124.275 83.0351 124.196 83.0962L117.457 88.3026C117.424 88.328 117.385 88.3405 117.346 88.3405Z" fill="#6D758F"/>
<path d="M115.973 92.5551C117.442 92.1104 118.272 90.559 117.827 89.0901C117.382 87.6211 115.831 86.7909 114.362 87.2357C112.893 87.6804 112.063 89.2318 112.507 90.7007C112.952 92.1697 114.504 92.9999 115.973 92.5551Z" fill="#6D758F"/>
<path d="M128.731 82.6901C129.537 81.3844 129.133 79.6719 127.827 78.8651C126.522 78.0583 124.809 78.4626 124.002 79.7683C123.196 81.0739 123.6 82.7864 124.906 83.5932C126.211 84.4 127.924 83.9957 128.731 82.6901Z" fill="#6D758F"/>
<path d="M140.484 100.554C141.291 99.2481 140.886 97.5358 139.581 96.7289C138.275 95.9221 136.563 96.3264 135.756 97.6318C134.949 98.9373 135.354 100.65 136.659 101.456C137.965 102.263 139.677 101.859 140.484 100.554Z" fill="#6D758F"/>
<path d="M152.217 92.6027C152.217 94.1374 150.973 95.3816 149.438 95.3816C147.903 95.3816 146.659 94.1374 146.659 92.6027C146.659 91.0679 147.903 89.8237 149.438 89.8237C150.973 89.8235 152.217 91.0677 152.217 92.6027Z" fill="#6D758F"/>
<path d="M118.788 97.0928H111.877V116.043H118.788V97.0928Z" fill="#B4B9C9"/>
<path d="M130.193 93.3174H123.282V116.043H130.193V93.3174Z" fill="#B4B9C9"/>
<path d="M141.599 103.796H134.688V116.043H141.599V103.796Z" fill="#B4B9C9"/>
<path d="M153.004 100.28H146.093V116.043H153.004V100.28Z" fill="#B4B9C9"/>
<path d="M4.86133 66.187H175.751" stroke="#E1E4ED" stroke-width="0.373938" stroke-linecap="round" stroke-dasharray="1.5 1.5"/>
<path d="M90.4932 4.86133L90.4932 126.952" stroke="#E1E4ED" stroke-width="0.373938" stroke-linecap="round" stroke-dasharray="1.5 1.5"/>
</svg>
