<svg width="22" height="23" viewBox="0 0 22 23" fill="none" xmlns="http://www.w3.org/2000/svg">
<path d="M1.65039 6.26991C1.65039 4.13314 3.38259 2.40094 5.51936 2.40094H16.4814C18.6183 2.40094 20.3504 4.13314 20.3504 6.26991V17.232C20.3504 19.3688 18.6183 21.1009 16.4814 21.1009H5.51936C3.38259 21.1009 1.65039 19.3688 1.65039 17.232V6.26991Z" fill="#3541B4"/>
<path d="M12.4707 6.75226H9.53038V10.2807H6.00195V13.221H9.53038V16.7495H12.4707V13.221H15.9992V10.2807H12.4707V6.75226Z" fill="white"/>
<path fill-rule="evenodd" clip-rule="evenodd" d="M8.94249 6.75238C8.94249 6.4276 9.20578 6.16431 9.53057 6.16431H12.4709C12.7957 6.16431 13.059 6.4276 13.059 6.75238V9.69274H15.9994C16.3241 9.69274 16.5874 9.95603 16.5874 10.2808V13.2212C16.5874 13.546 16.3241 13.8092 15.9994 13.8092H13.059V16.7496C13.059 17.0744 12.7957 17.3377 12.4709 17.3377H9.53057C9.20578 17.3377 8.94249 17.0744 8.94249 16.7496V13.8092H6.00213C5.67735 13.8092 5.41406 13.546 5.41406 13.2212V10.2808C5.41406 9.95603 5.67735 9.69274 6.00213 9.69274H8.94249V6.75238ZM10.1186 7.34045V10.2808C10.1186 10.6056 9.85535 10.8689 9.53057 10.8689H6.59021V12.6331H9.53057C9.85535 12.6331 10.1186 12.8964 10.1186 13.2212V16.1615H11.8829V13.2212C11.8829 12.8964 12.1461 12.6331 12.4709 12.6331H15.4113V10.8689H12.4709C12.1461 10.8689 11.8829 10.6056 11.8829 10.2808V7.34045H10.1186Z" fill="white"/>
</svg>
