<svg width="152" height="111" viewBox="0 0 152 111" fill="none" xmlns="http://www.w3.org/2000/svg">
<path d="M53.4465 43.4351H40.9059C39.88 43.4351 39.0479 44.2671 39.0479 45.2929V52.6926C39.0479 53.7185 39.88 54.5505 40.9059 54.5505H53.4465C54.4724 54.5505 55.3045 53.7185 55.3045 52.6926V45.2929C55.3045 44.2671 54.4724 43.4351 53.4465 43.4351ZM51.5884 50.8347H42.764V47.1508H51.5884V50.8347Z" fill="white"/>
<path d="M53.4465 61.9628H40.9059C39.88 61.9628 39.0479 62.7948 39.0479 63.8207V71.22C39.0479 72.2459 39.88 73.0779 40.9059 73.0779H53.4465C54.4724 73.0779 55.3045 72.2459 55.3045 71.22V63.8207C55.3045 62.7945 54.4724 61.9628 53.4465 61.9628ZM51.5884 69.3618H42.764V65.6782H51.5884V69.3618Z" fill="white"/>
<path d="M53.4465 80.5056H40.9059C39.88 80.5056 39.0479 81.3376 39.0479 82.3635V89.7471C39.0479 90.7729 39.88 91.605 40.9059 91.605H53.4465C54.4724 91.605 55.3045 90.7729 55.3045 89.7471V82.3635C55.3045 81.3376 54.4724 80.5056 53.4465 80.5056ZM51.5884 87.8892H42.764V84.2214H51.5884V87.8892Z" fill="white"/>
<path d="M99.1315 54.5505H111.672C112.698 54.5505 113.53 53.7185 113.53 52.6926V45.2929C113.53 44.2671 112.698 43.4351 111.672 43.4351H99.1315C98.1055 43.4351 97.2734 44.2671 97.2734 45.2929V52.6926C97.2734 53.7188 98.1052 54.5505 99.1315 54.5505ZM100.99 47.1508H109.814V50.8347H100.99V47.1508Z" fill="white"/>
<path d="M99.1315 73.0777H111.672C112.698 73.0777 113.53 72.2456 113.53 71.2198V63.8204C113.53 62.7945 112.698 61.9625 111.672 61.9625H99.1315C98.1055 61.9625 97.2734 62.7945 97.2734 63.8204V71.2198C97.2734 72.2459 98.1052 73.0777 99.1315 73.0777ZM100.99 65.6786H109.814V69.3622H100.99V65.6786Z" fill="white"/>
<path d="M99.1315 91.605H111.672C112.698 91.605 113.53 90.7729 113.53 89.7471V82.3635C113.53 81.3376 112.698 80.5056 111.672 80.5056H99.1315C98.1055 80.5056 97.2734 81.3376 97.2734 82.3635V89.7471C97.2734 90.7733 98.1052 91.605 99.1315 91.605ZM100.99 84.2214H109.814V87.8892H100.99V84.2214Z" fill="white"/>
<path d="M150.142 46.1223H119.604V37.453H131.172C131.799 37.453 132.385 37.1363 132.727 36.6108C133.07 36.0853 133.125 35.4224 132.873 34.848L118.052 1.11083C117.755 0.435799 117.088 0.00012207 116.351 0.00012207H35.6316C34.8942 0.00012207 34.2262 0.436418 33.9299 1.11145L19.1271 34.8486C18.875 35.423 18.9299 36.0859 19.2733 36.6111C19.6164 37.1363 20.2014 37.4527 20.8288 37.4527H32.396V46.122H1.85808C0.832112 46.122 0 46.954 0 47.9798V109.142C0 110.168 0.832112 111 1.85808 111H34.2479C34.2501 111 34.2519 111 34.2541 111H63.0089H88.9908H117.746C117.748 111 117.75 111 117.752 111H150.142C151.168 111 152 110.168 152 109.142V47.9802C152 46.954 151.168 46.1223 150.142 46.1223ZM36.8455 3.7159H115.137L128.326 33.7373H117.746H34.2541H23.6729L36.8455 3.7159ZM3.71617 49.8381H32.396V107.284H3.71617V49.8381ZM36.1122 47.9802V37.453H115.888V47.9802V107.285H90.8489V71.4924C90.8489 70.4665 90.0168 69.6345 88.9908 69.6345H63.0089C61.9829 69.6345 61.1508 70.4665 61.1508 71.4924V107.285H36.1122V47.9802ZM64.867 107.285V73.3503H87.1327V107.285H64.867ZM148.284 107.284H119.604V49.8381H148.284V107.284Z" fill="white"/>
<path d="M125.079 64.3336H131.34C132.366 64.3336 133.198 63.5016 133.198 62.4757V55.076C133.198 54.0499 132.366 53.2181 131.34 53.2181H125.079C124.053 53.2181 123.221 54.0499 123.221 55.076V62.4757C123.221 63.5016 124.053 64.3336 125.079 64.3336ZM126.937 56.9336H129.482V60.6175H126.937V56.9336Z" fill="white"/>
<path d="M136.531 64.3336H142.808C143.834 64.3336 144.667 63.5016 144.667 62.4757V55.076C144.667 54.0499 143.834 53.2181 142.808 53.2181H136.531C135.505 53.2181 134.673 54.0499 134.673 55.076V62.4757C134.673 63.5016 135.505 64.3336 136.531 64.3336ZM138.389 56.9336H140.95V60.6175H138.389V56.9336Z" fill="white"/>
<path d="M136.531 82.4699H142.808C143.834 82.4699 144.667 81.6379 144.667 80.612V73.2287C144.667 72.2029 143.834 71.3708 142.808 71.3708H136.531C135.505 71.3708 134.673 72.2029 134.673 73.2287V80.612C134.673 81.6382 135.505 82.4699 136.531 82.4699ZM138.389 75.0866H140.95V78.7541H138.389V75.0866Z" fill="white"/>
<path d="M125.079 82.4699H131.34C132.366 82.4699 133.198 81.6379 133.198 80.612V73.2287C133.198 72.2029 132.366 71.3708 131.34 71.3708H125.079C124.053 71.3708 123.221 72.2029 123.221 73.2287V80.612C123.221 81.6382 124.053 82.4699 125.079 82.4699ZM126.937 75.0866H129.482V78.7541H126.937V75.0866Z" fill="white"/>
<path d="M136.531 100.606H142.808C143.834 100.606 144.667 99.7737 144.667 98.7478V91.3636C144.667 90.3378 143.834 89.5057 142.808 89.5057H136.531C135.505 89.5057 134.673 90.3378 134.673 91.3636V98.7478C134.673 99.7737 135.505 100.606 136.531 100.606ZM138.389 93.2215H140.95V96.8899H138.389V93.2215Z" fill="white"/>
<path d="M125.079 100.606H131.34C132.366 100.606 133.198 99.7737 133.198 98.7478V91.3636C133.198 90.3378 132.366 89.5057 131.34 89.5057H125.079C124.053 89.5057 123.221 90.3378 123.221 91.3636V98.7478C123.221 99.7737 124.053 100.606 125.079 100.606ZM126.937 93.2215H129.482V96.8899H126.937V93.2215Z" fill="white"/>
<path d="M15.4686 53.2181H9.19109C8.16512 53.2181 7.33301 54.0499 7.33301 55.076V62.4757C7.33301 63.5016 8.16512 64.3336 9.19109 64.3336H15.4686C16.4946 64.3336 17.3267 63.5016 17.3267 62.4757V55.076C17.3267 54.0499 16.4949 53.2181 15.4686 53.2181ZM13.6105 60.6178H11.0492V56.9336H13.6105V60.6178Z" fill="white"/>
<path d="M26.9207 53.2181H20.6413C19.6153 53.2181 18.7832 54.0499 18.7832 55.076V62.4757C18.7832 63.5016 19.6153 64.3336 20.6413 64.3336H26.9207C27.9467 64.3336 28.7788 63.5016 28.7788 62.4757V55.076C28.7788 54.0499 27.947 53.2181 26.9207 53.2181ZM25.0626 60.6178H22.4994V56.9336H25.0626V60.6178Z" fill="white"/>
<path d="M26.9207 71.3708H20.6413C19.6153 71.3708 18.7832 72.2029 18.7832 73.2287V80.612C18.7832 81.6379 19.6153 82.4699 20.6413 82.4699H26.9207C27.9467 82.4699 28.7788 81.6379 28.7788 80.612V73.2287C28.7788 72.2029 27.947 71.3708 26.9207 71.3708ZM25.0626 78.7541H22.4994V75.0866H25.0626V78.7541Z" fill="white"/>
<path d="M15.4686 71.3708H9.19109C8.16512 71.3708 7.33301 72.2029 7.33301 73.2287V80.612C7.33301 81.6379 8.16512 82.4699 9.19109 82.4699H15.4686C16.4946 82.4699 17.3267 81.6379 17.3267 80.612V73.2287C17.3267 72.2029 16.4949 71.3708 15.4686 71.3708ZM13.6105 78.7541H11.0492V75.0866H13.6105V78.7541Z" fill="white"/>
<path d="M15.4686 89.5057H9.19109C8.16512 89.5057 7.33301 90.3378 7.33301 91.3636V98.7478C7.33301 99.7737 8.16512 100.606 9.19109 100.606H15.4686C16.4946 100.606 17.3267 99.7737 17.3267 98.7478V91.3636C17.3267 90.3375 16.4949 89.5057 15.4686 89.5057ZM13.6105 96.8899H11.0492V93.2215H13.6105V96.8899Z" fill="white"/>
<path d="M26.9207 89.5057H20.6413C19.6153 89.5057 18.7832 90.3378 18.7832 91.3636V98.7478C18.7832 99.7737 19.6153 100.606 20.6413 100.606H26.9207C27.9467 100.606 28.7788 99.7737 28.7788 98.7478V91.3636C28.7788 90.3375 27.947 89.5057 26.9207 89.5057ZM25.0626 96.8899H22.4994V93.2215H25.0626V96.8899Z" fill="white"/>
<path d="M64.4548 54.5505H87.5263C88.5523 54.5505 89.3844 53.7185 89.3844 52.6926V45.2929C89.3844 44.2668 88.5523 43.4351 87.5263 43.4351H64.4548C63.4285 43.4351 62.5967 44.2668 62.5967 45.2929V52.6926C62.5967 53.7188 63.4285 54.5505 64.4548 54.5505ZM66.3128 47.1508H85.6682V50.8347H66.3128V47.1508Z" fill="white"/>
<path d="M67.6545 24.7612H69.9644V27.0727C69.9644 29.0532 71.5766 30.6643 73.5579 30.6643H78.4233C80.4149 30.6643 82.0348 29.0532 82.0348 27.0727V24.7612H84.3444C86.3257 24.7612 87.9379 23.1414 87.9379 21.1504V16.2849C87.9379 14.3037 86.3257 12.692 84.3444 12.692H82.0345V10.3805C82.0345 8.39039 80.4146 6.77124 78.423 6.77124H73.5576C71.5763 6.77124 69.9644 8.39039 69.9644 10.3805V12.692H67.6545C65.6632 12.692 64.043 14.3037 64.043 16.2849V21.1504C64.043 23.1414 65.6632 24.7612 67.6545 24.7612ZM67.7591 16.4078H71.8225C72.8484 16.4078 73.6805 15.5758 73.6805 14.5499V10.487H78.3183V14.5499C78.3183 15.5758 79.1504 16.4078 80.1764 16.4078H84.2218V21.0454H80.1767C79.1507 21.0454 78.3186 21.8774 78.3186 22.9033V26.9486H73.6805V22.9033C73.6805 21.8774 72.8484 21.0454 71.8225 21.0454H67.7591V16.4078Z" fill="white"/>
</svg>
