<svg width="674" height="541" viewBox="0 0 674 541" fill="none" xmlns="http://www.w3.org/2000/svg">
<path d="M368.234 208.638C391.163 193.257 422.996 199.344 431.622 225.572C438.778 247.332 441.833 270.384 440.466 293.546C438.108 333.478 422.734 371.539 396.696 401.906C370.658 432.273 335.39 453.275 296.285 461.698C257.18 470.122 216.393 465.504 180.161 448.55C143.93 431.597 114.249 403.242 95.6597 367.822C77.0703 332.402 70.5955 291.867 77.2256 252.419C83.8557 212.97 103.226 176.78 132.373 149.383C149.279 133.492 168.935 121.067 190.226 112.618C215.89 102.434 240.96 122.974 243.843 150.434V150.434C246.727 177.893 224.818 201.657 203.817 219.582C202.81 220.442 201.821 221.327 200.853 222.238C187.627 234.669 178.837 251.091 175.829 268.991C172.82 286.891 175.758 305.284 184.194 321.357C192.629 337.429 206.097 350.295 222.537 357.988C238.977 365.681 257.485 367.777 275.23 363.954C292.974 360.132 308.977 350.602 320.792 336.823C332.607 323.043 339.583 305.773 340.653 287.653C340.732 286.326 340.778 285 340.793 283.676C341.098 256.067 345.304 224.019 368.234 208.638V208.638Z" fill="#3541B4"/>
<path d="M304.634 336.029C282.824 351.171 252.156 345.82 243.196 320.826C235.25 298.659 231.603 275.022 232.628 251.194C234.346 211.229 249.109 172.928 274.658 142.148C300.206 111.368 335.134 89.8046 374.099 80.7563C413.064 71.7079 453.921 75.6728 490.419 92.0443C526.917 108.416 557.047 136.293 576.201 171.411C595.355 206.529 602.478 246.954 596.48 286.504C590.481 326.053 571.693 362.549 542.988 390.409C525.874 407.019 505.796 420.015 483.956 428.821C459.331 438.75 434.941 419.404 431.746 393.046V393.046C428.551 366.687 448.982 343.525 469.729 326.956C471.908 325.216 474.008 323.366 476.023 321.412C489.649 308.186 498.568 290.861 501.416 272.086C504.263 253.312 500.882 234.121 491.789 217.45C482.697 200.779 468.393 187.545 451.067 179.774C433.741 172.002 414.346 170.12 395.849 174.415C377.351 178.71 360.77 188.947 348.642 203.559C336.514 218.17 329.506 236.353 328.69 255.324C328.57 258.129 328.585 260.927 328.735 263.711C330.156 290.224 326.445 320.887 304.634 336.029V336.029Z" fill="#0CADBB"/>
<g filter="url(#filter0_d_1796_50196)">
<rect x="89" y="140" width="446" height="204.936" rx="20" fill="white" shape-rendering="crispEdges"/>
<rect x="89" y="140" width="446" height="204.936" rx="9.34357" fill="white"/>
<path d="M106.795 189.808H104.441V191.205C104.696 191.163 105.05 191.134 105.277 191.134C106.32 191.134 106.987 191.751 106.987 192.602C106.987 193.595 106.299 194.241 105.235 194.241C104.689 194.241 104.029 194.028 103.561 193.702L103.795 193.219C104.207 193.531 104.731 193.716 105.178 193.716C105.923 193.716 106.384 193.304 106.384 192.638C106.384 192.049 105.923 191.68 105.192 191.68C104.866 191.68 104.27 191.73 103.916 191.801V189.262H106.795V189.808ZM109.763 189.248C111.082 189.248 111.812 190.141 111.812 191.744C111.812 193.347 111.082 194.241 109.763 194.241C108.444 194.241 107.713 193.347 107.713 191.744C107.713 190.141 108.444 189.248 109.763 189.248ZM109.763 189.73C108.798 189.73 108.287 190.397 108.287 191.744C108.287 193.085 108.798 193.758 109.763 193.758C110.727 193.758 111.238 193.085 111.238 191.744C111.238 190.397 110.727 189.73 109.763 189.73Z" fill="#6D758F"/>
<path d="M104.157 217.342H105.93V216.03H106.462V217.342H107.214V217.888H106.462V219.193H105.93V217.888H103.547V217.42L105.327 214.228H105.887L104.157 217.342ZM109.846 214.214C111.165 214.214 111.895 215.108 111.895 216.711C111.895 218.313 111.165 219.207 109.846 219.207C108.527 219.207 107.796 218.313 107.796 216.711C107.796 215.108 108.527 214.214 109.846 214.214ZM109.846 214.697C108.881 214.697 108.371 215.363 108.371 216.711C108.371 218.051 108.881 218.725 109.846 218.725C110.81 218.725 111.321 218.051 111.321 216.711C111.321 215.363 110.81 214.697 109.846 214.697Z" fill="#6D758F"/>
<path d="M104.916 241.294L105.192 241.315C106.086 241.358 106.689 241.84 106.689 242.634C106.689 243.549 106.015 244.188 104.951 244.188C104.377 244.188 103.788 243.982 103.377 243.684L103.625 243.209C103.98 243.5 104.448 243.677 104.909 243.677C105.682 243.677 106.136 243.258 106.136 242.656C106.136 242.032 105.675 241.712 104.902 241.712H104.292V241.351L105.746 239.741H103.597V239.202H106.455V239.585L104.916 241.294ZM109.493 239.181C110.812 239.181 111.542 240.074 111.542 241.677C111.542 243.28 110.812 244.173 109.493 244.173C108.173 244.173 107.443 243.28 107.443 241.677C107.443 240.074 108.173 239.181 109.493 239.181ZM109.493 239.663C108.528 239.663 108.017 240.33 108.017 241.677C108.017 243.017 108.528 243.691 109.493 243.691C110.457 243.691 110.968 243.017 110.968 241.677C110.968 240.33 110.457 239.663 109.493 239.663Z" fill="#6D758F"/>
<path d="M105.285 264.14C106.199 264.14 106.795 264.615 106.795 265.36C106.795 265.835 106.441 266.41 105.916 266.97L104.391 268.587H107.079V269.126H103.668V268.658L105.526 266.636C105.944 266.218 106.206 265.757 106.206 265.438C106.206 264.956 105.838 264.665 105.214 264.665C104.76 264.665 104.256 264.899 103.859 265.282L103.611 264.828C104.093 264.395 104.696 264.14 105.285 264.14ZM109.873 264.147C111.193 264.147 111.923 265.041 111.923 266.644C111.923 268.246 111.193 269.14 109.873 269.14C108.554 269.14 107.824 268.246 107.824 266.644C107.824 265.041 108.554 264.147 109.873 264.147ZM109.873 264.629C108.909 264.629 108.398 265.296 108.398 266.644C108.398 267.984 108.909 268.658 109.873 268.658C110.838 268.658 111.349 267.984 111.349 266.644C111.349 265.296 110.838 264.629 109.873 264.629Z" fill="#6D758F"/>
<path d="M105.015 294.092H104.455V289.667H103.448V289.128H105.015V294.092ZM108.384 289.114C109.703 289.114 110.434 290.007 110.434 291.61C110.434 293.213 109.703 294.106 108.384 294.106C107.065 294.106 106.335 293.213 106.335 291.61C106.335 290.007 107.065 289.114 108.384 289.114ZM108.384 289.596C107.42 289.596 106.909 290.263 106.909 291.61C106.909 292.95 107.42 293.624 108.384 293.624C109.349 293.624 109.86 292.95 109.86 291.61C109.86 290.263 109.349 289.596 108.384 289.596Z" fill="#6D758F"/>
<path d="M122.042 322.937H119.241V324.568H121.744V325.114H119.241V326.816H122.135V327.355H118.674V322.391H122.042V322.937ZM125.215 323.597C126.109 323.597 126.633 324.15 126.633 325.051V327.355H126.08V325.2C126.08 324.54 125.683 324.15 125.024 324.15C124.286 324.157 123.832 324.639 123.768 325.348V327.355H123.215V323.618H123.768V324.441C124.031 323.873 124.534 323.604 125.215 323.597ZM129.344 323.604C130.55 323.597 131.146 324.434 131.089 325.703H128.039C128.139 326.434 128.671 326.894 129.394 326.894C129.855 326.894 130.259 326.731 130.55 326.426L130.855 326.753C130.5 327.15 129.976 327.377 129.351 327.377C128.252 327.377 127.493 326.604 127.493 325.49C127.493 324.377 128.259 323.604 129.344 323.604ZM128.039 325.249H130.593C130.557 324.533 130.075 324.079 129.344 324.079C128.635 324.079 128.125 324.54 128.039 325.249ZM132.592 323.618V324.448C132.84 323.902 133.301 323.604 133.932 323.597V324.157C133.145 324.143 132.655 324.632 132.592 325.37V327.355H132.038V323.618H132.592ZM136.195 323.604C137.301 323.604 138.088 324.37 138.088 325.483C138.088 326.604 137.301 327.377 136.195 327.377C135.089 327.377 134.301 326.604 134.301 325.483C134.301 324.37 135.089 323.604 136.195 323.604ZM136.195 324.107C135.415 324.107 134.855 324.675 134.855 325.49C134.855 326.313 135.415 326.88 136.195 326.88C136.975 326.88 137.535 326.313 137.535 325.49C137.535 324.675 136.975 324.107 136.195 324.107Z" fill="#6D758F"/>
<path d="M173.908 322.937H171.319V324.682H173.638V325.228H171.319V327.355H170.752V322.391H173.908V322.937ZM176.145 323.604C177.351 323.597 177.946 324.434 177.89 325.703H174.84C174.939 326.434 175.471 326.894 176.195 326.894C176.656 326.894 177.06 326.731 177.351 326.426L177.656 326.753C177.301 327.15 176.776 327.377 176.152 327.377C175.053 327.377 174.294 326.604 174.294 325.49C174.294 324.377 175.06 323.604 176.145 323.604ZM174.84 325.249H177.393C177.358 324.533 176.875 324.079 176.145 324.079C175.436 324.079 174.925 324.54 174.84 325.249ZM180.868 323.597C181.924 323.597 182.662 324.377 182.662 325.497C182.662 326.604 181.938 327.377 180.882 327.377C180.215 327.377 179.704 327.072 179.428 326.554V327.355H178.875V322.093H179.428V324.426C179.704 323.902 180.215 323.597 180.868 323.597ZM180.768 326.873C181.548 326.873 182.102 326.292 182.102 325.483C182.102 324.682 181.548 324.093 180.768 324.093C179.981 324.093 179.428 324.675 179.428 325.483C179.428 326.299 179.981 326.873 180.768 326.873Z" fill="#6D758F"/>
<path d="M217.213 327.355H216.688L216.681 323.263L214.873 326.831H214.533L212.731 323.263V327.355H212.192V322.391H212.894L214.71 325.965L216.518 322.391H217.213V327.355ZM220.964 327.355V326.781C220.666 327.185 220.191 327.384 219.595 327.384C218.822 327.384 218.326 326.887 218.326 326.242C218.326 325.59 218.844 325.178 219.723 325.171H220.95V324.951C220.95 324.405 220.61 324.079 219.95 324.079C219.539 324.079 219.156 324.235 218.766 324.504L218.532 324.1C219.014 323.781 219.418 323.597 220.056 323.597C220.978 323.597 221.489 324.086 221.496 324.887L221.503 327.355H220.964ZM219.702 326.902C220.333 326.902 220.815 326.582 220.957 326.065V325.618H219.794C219.17 325.618 218.844 325.809 218.844 326.221C218.844 326.632 219.177 326.902 219.702 326.902ZM223.291 323.618V324.448C223.54 323.902 224.001 323.604 224.632 323.597V324.157C223.845 324.143 223.355 324.632 223.291 325.37V327.355H222.738V323.618H223.291Z" fill="#6D758F"/>
<path d="M257.484 326.1H254.775L254.222 327.355H253.619L255.846 322.391H256.435L258.654 327.355H258.037L257.484 326.1ZM257.243 325.554L256.123 323.036L255.016 325.554H257.243ZM261.383 323.597C262.44 323.597 263.178 324.377 263.178 325.497C263.178 326.604 262.454 327.377 261.397 327.377C260.731 327.377 260.22 327.072 259.944 326.554V328.731H259.39V323.618H259.944V324.426C260.22 323.902 260.731 323.597 261.383 323.597ZM261.284 326.873C262.064 326.873 262.617 326.292 262.617 325.483C262.617 324.682 262.064 324.093 261.284 324.093C260.497 324.093 259.944 324.675 259.944 325.483C259.944 326.299 260.497 326.873 261.284 326.873ZM264.701 323.618V324.448C264.949 323.902 265.41 323.604 266.041 323.597V324.157C265.254 324.143 264.765 324.632 264.701 325.37V327.355H264.148V323.618H264.701Z" fill="#6D758F"/>
<path d="M302.932 327.355H302.407L302.4 323.263L300.592 326.831H300.251L298.45 323.263V327.355H297.911V322.391H298.613L300.429 325.965L302.237 322.391H302.932V327.355ZM306.683 327.355V326.781C306.385 327.185 305.91 327.384 305.314 327.384C304.541 327.384 304.045 326.887 304.045 326.242C304.045 325.59 304.562 325.178 305.442 325.171H306.669V324.951C306.669 324.405 306.328 324.079 305.669 324.079C305.257 324.079 304.875 324.235 304.484 324.504L304.25 324.1C304.733 323.781 305.137 323.597 305.775 323.597C306.697 323.597 307.208 324.086 307.215 324.887L307.222 327.355H306.683ZM305.421 326.902C306.052 326.902 306.534 326.582 306.676 326.065V325.618H305.513C304.889 325.618 304.562 325.809 304.562 326.221C304.562 326.632 304.896 326.902 305.421 326.902ZM311.205 323.618L309.489 327.887C309.255 328.462 308.865 328.76 308.369 328.76C308.057 328.76 307.808 328.667 307.581 328.483L307.815 328.022C307.986 328.143 308.156 328.199 308.34 328.199C308.631 328.199 308.872 328.022 309.021 327.675L309.177 327.327L307.631 323.618H308.213L309.454 326.703L310.638 323.618H311.205Z" fill="#6D758F"/>
<path d="M342.103 322.391V325.866C342.103 326.831 341.571 327.384 340.684 327.384C340.131 327.384 339.656 327.121 339.309 326.675L339.592 326.221C339.904 326.597 340.294 326.795 340.677 326.795C341.223 326.795 341.528 326.469 341.528 325.852V322.937H339.755V322.391H342.103ZM346.652 323.618V327.355H346.098V326.512C345.85 327.093 345.354 327.37 344.68 327.377C343.808 327.377 343.283 326.824 343.283 325.923V323.618H343.836V325.774C343.836 326.434 344.226 326.824 344.872 326.824C345.645 326.809 346.098 326.249 346.098 325.455V323.618H346.652ZM350.002 323.597C350.896 323.597 351.421 324.15 351.421 325.051V327.355H350.868V325.2C350.868 324.54 350.47 324.15 349.811 324.15C349.073 324.157 348.619 324.639 348.556 325.348V327.355H348.002V323.618H348.556V324.441C348.818 323.873 349.321 323.604 350.002 323.597Z" fill="#6D758F"/>
<path d="M383.543 322.391V325.866C383.543 326.831 383.011 327.384 382.125 327.384C381.572 327.384 381.097 327.121 380.749 326.675L381.033 326.221C381.345 326.597 381.735 326.795 382.118 326.795C382.664 326.795 382.969 326.469 382.969 325.852V322.937H381.196V322.391H383.543ZM388.092 323.618V327.355H387.539V326.512C387.291 327.093 386.794 327.37 386.12 327.377C385.248 327.377 384.723 326.824 384.723 325.923V323.618H385.277V325.774C385.277 326.434 385.667 326.824 386.312 326.824C387.085 326.809 387.539 326.249 387.539 325.455V323.618H388.092ZM390.031 327.355H389.478V322.093H390.031V327.355Z" fill="#6D758F"/>
<path d="M423.955 326.1H421.246L420.693 327.355H420.09L422.317 322.391H422.905L425.125 327.355H424.508L423.955 326.1ZM423.714 325.554L422.593 323.036L421.487 325.554H423.714ZM428.866 323.618V327.355H428.313V326.512C428.064 327.093 427.568 327.37 426.894 327.377C426.022 327.377 425.497 326.824 425.497 325.923V323.618H426.05V325.774C426.05 326.434 426.44 326.824 427.086 326.824C427.859 326.809 428.313 326.249 428.313 325.455V323.618H428.866ZM433.472 323.618V326.965C433.472 328.058 432.727 328.745 431.592 328.745C431.004 328.738 430.514 328.547 430.061 328.207L430.316 327.781C430.685 328.086 431.075 328.249 431.571 328.256C432.387 328.256 432.919 327.76 432.919 326.98V326.412C432.656 326.909 432.174 327.192 431.543 327.192C430.536 327.192 429.841 326.448 429.841 325.384C429.841 324.341 430.529 323.604 431.529 323.597C432.167 323.597 432.649 323.88 432.919 324.377V323.618H433.472ZM431.642 326.724C432.387 326.724 432.919 326.171 432.919 325.405C432.919 324.625 432.387 324.079 431.642 324.079C430.89 324.079 430.366 324.632 430.358 325.405C430.366 326.171 430.89 326.724 431.642 326.724Z" fill="#6D758F"/>
<path d="M465.857 322.37C466.431 322.37 467.02 322.554 467.431 322.831L467.19 323.363C466.743 323.065 466.218 322.944 465.821 322.944C465.183 322.944 464.765 323.185 464.765 323.604C464.765 324.88 467.559 324.214 467.552 326.015C467.552 326.845 466.821 327.377 465.757 327.377C465.034 327.377 464.325 327.065 463.857 326.618L464.112 326.107C464.573 326.554 465.204 326.809 465.765 326.809C466.481 326.809 466.928 326.519 466.928 326.043C466.935 324.739 464.141 325.434 464.141 323.653C464.141 322.873 464.828 322.37 465.857 322.37ZM470.114 323.604C471.32 323.597 471.916 324.434 471.859 325.703H468.809C468.909 326.434 469.441 326.894 470.164 326.894C470.625 326.894 471.029 326.731 471.32 326.426L471.625 326.753C471.27 327.15 470.745 327.377 470.121 327.377C469.022 327.377 468.263 326.604 468.263 325.49C468.263 324.377 469.029 323.604 470.114 323.604ZM468.809 325.249H471.362C471.327 324.533 470.845 324.079 470.114 324.079C469.405 324.079 468.894 324.54 468.809 325.249ZM474.837 323.597C475.893 323.597 476.631 324.377 476.631 325.497C476.631 326.604 475.908 327.377 474.851 327.377C474.184 327.377 473.674 327.072 473.397 326.554V328.731H472.844V323.618H473.397V324.426C473.674 323.902 474.184 323.597 474.837 323.597ZM474.737 326.873C475.518 326.873 476.071 326.292 476.071 325.483C476.071 324.682 475.518 324.093 474.737 324.093C473.95 324.093 473.397 324.675 473.397 325.483C473.397 326.299 473.95 326.873 474.737 326.873Z" fill="#6D758F"/>
<path d="M510.085 322.377C511.531 322.377 512.68 323.476 512.68 324.873C512.68 326.27 511.531 327.384 510.085 327.384C508.631 327.384 507.482 326.27 507.482 324.873C507.482 323.469 508.631 322.377 510.085 322.377ZM510.085 322.916C508.978 322.916 508.056 323.781 508.056 324.873C508.056 325.965 508.978 326.838 510.085 326.838C511.191 326.838 512.099 325.965 512.099 324.873C512.099 323.781 511.191 322.916 510.085 322.916ZM515.116 323.604C515.719 323.597 516.216 323.802 516.556 324.157L516.251 324.547C515.967 324.278 515.591 324.114 515.138 324.114C514.365 324.114 513.811 324.675 513.811 325.49C513.811 326.306 514.365 326.873 515.138 326.873C515.627 326.873 516.031 326.703 516.294 326.391L516.613 326.731C516.279 327.136 515.762 327.377 515.116 327.377C514.031 327.377 513.265 326.604 513.265 325.49C513.265 324.377 514.038 323.604 515.116 323.604ZM519.39 326.653L519.546 327.1C519.283 327.277 518.999 327.377 518.702 327.384C518.156 327.384 517.751 327.058 517.751 326.32V324.185H517.212V323.739H517.751V322.753H518.297V323.739L519.482 323.731V324.185H518.297V326.221C518.297 326.675 518.475 326.845 518.794 326.845C518.985 326.845 519.184 326.781 519.39 326.653Z" fill="#6D758F"/>
<rect width="402.751" height="0.709197" transform="translate(117.922 241.671)" fill="#F7F7F7"/>
<rect width="402.751" height="0.709197" transform="translate(117.922 289.187)" fill="#F7F7F7"/>
<rect width="402.751" height="0.709197" transform="translate(117.922 266.493)" fill="#F7F7F7"/>
<rect width="402.751" height="0.709197" transform="translate(117.922 192.027)" fill="#F7F7F7"/>
<rect width="402.751" height="0.709197" transform="translate(117.922 216.849)" fill="#F7F7F7"/>
<rect width="402.751" height="0.709197" transform="translate(117.922 314.719)" fill="#F7F7F7"/>
<path fill-rule="evenodd" clip-rule="evenodd" d="M124.287 212.718C125.266 212.718 126.06 213.512 126.06 214.491L126.06 312.36C126.06 313.339 125.266 314.133 124.287 314.133V314.133C123.307 314.133 122.514 313.339 122.514 312.36L122.514 214.491C122.514 213.512 123.307 212.718 124.287 212.718V212.718Z" fill="#0CADBB"/>
<path fill-rule="evenodd" clip-rule="evenodd" d="M131.57 259.525C132.549 259.525 133.343 260.319 133.343 261.298V271.936V282.574C133.343 283.553 132.549 284.347 131.57 284.347V284.347C130.591 284.347 129.797 283.553 129.797 282.574V261.298C129.797 260.319 130.591 259.525 131.57 259.525V259.525Z" fill="#3541B4"/>
<path fill-rule="evenodd" clip-rule="evenodd" d="M131.57 284.347C132.549 284.347 133.343 285.141 133.343 286.12V299.24V312.36C133.343 313.339 132.549 314.133 131.57 314.133V314.133C130.591 314.133 129.797 313.339 129.797 312.36V286.12C129.797 285.141 130.591 284.347 131.57 284.347V284.347Z" fill="#3541B4"/>
<path fill-rule="evenodd" clip-rule="evenodd" d="M167.032 241.086C168.011 241.086 168.805 241.88 168.805 242.859L168.805 312.36C168.805 313.339 168.011 314.133 167.032 314.133V314.133C166.052 314.133 165.259 313.339 165.259 312.36L165.259 242.859C165.259 241.88 166.052 241.086 167.032 241.086V241.086Z" fill="#0CADBB"/>
<path fill-rule="evenodd" clip-rule="evenodd" d="M174.315 278.673C175.294 278.673 176.088 279.467 176.088 280.446L176.088 312.36C176.088 313.339 175.294 314.133 174.315 314.133V314.133C173.336 314.133 172.542 313.339 172.542 312.36L172.542 280.446C172.542 279.467 173.336 278.673 174.315 278.673V278.673Z" fill="#3541B4"/>
<path fill-rule="evenodd" clip-rule="evenodd" d="M209.777 285.765C210.756 285.765 211.55 286.559 211.55 287.538L211.55 312.36C211.55 313.339 210.756 314.133 209.777 314.133V314.133C208.798 314.133 208.004 313.339 208.004 312.36V287.538C208.004 286.559 208.798 285.765 209.777 285.765V285.765Z" fill="#0CADBB"/>
<path fill-rule="evenodd" clip-rule="evenodd" d="M217.06 297.827C218.039 297.827 218.833 298.621 218.833 299.6L218.833 312.36C218.833 313.34 218.039 314.133 217.06 314.133V314.133C216.081 314.133 215.287 313.34 215.287 312.36L215.287 299.6C215.287 298.621 216.081 297.827 217.06 297.827V297.827Z" fill="#3541B4"/>
<path fill-rule="evenodd" clip-rule="evenodd" d="M252.522 280.801C253.501 280.801 254.295 281.595 254.295 282.574L254.295 312.36C254.295 313.339 253.501 314.133 252.522 314.133V314.133C251.543 314.133 250.749 313.339 250.749 312.36L250.749 282.574C250.749 281.595 251.543 280.801 252.522 280.801V280.801Z" fill="#0CADBB"/>
<path fill-rule="evenodd" clip-rule="evenodd" d="M252.522 247.469C253.501 247.469 254.295 248.263 254.295 249.242L254.295 279.028C254.295 280.007 253.501 280.801 252.522 280.801V280.801C251.543 280.801 250.749 280.007 250.749 279.028L250.749 249.242C250.749 248.263 251.543 247.469 252.522 247.469V247.469Z" fill="#3541B4"/>
<path fill-rule="evenodd" clip-rule="evenodd" d="M259.805 262.362C260.784 262.362 261.578 263.156 261.578 264.135V312.36C261.578 313.339 260.784 314.133 259.805 314.133V314.133C258.826 314.133 258.032 313.339 258.032 312.36V264.135C258.032 263.156 258.826 262.362 259.805 262.362V262.362Z" fill="#3541B4"/>
<path fill-rule="evenodd" clip-rule="evenodd" d="M295.267 241.795C296.246 241.795 297.04 242.589 297.04 243.568L297.04 312.36C297.04 313.339 296.246 314.133 295.267 314.133V314.133C294.288 314.133 293.494 313.339 293.494 312.36L293.494 243.568C293.494 242.589 294.288 241.795 295.267 241.795V241.795Z" fill="#0CADBB"/>
<path fill-rule="evenodd" clip-rule="evenodd" d="M302.55 262.362C303.529 262.362 304.323 263.156 304.323 264.135V312.36C304.323 313.339 303.529 314.133 302.55 314.133V314.133C301.571 314.133 300.777 313.339 300.777 312.36V264.135C300.777 263.156 301.571 262.362 302.55 262.362V262.362Z" fill="#3541B4"/>
<path fill-rule="evenodd" clip-rule="evenodd" d="M338.012 271.581C338.991 271.581 339.785 272.375 339.785 273.354V312.36C339.785 313.339 338.991 314.133 338.012 314.133V314.133C337.033 314.133 336.239 313.339 336.239 312.36V273.354C336.239 272.375 337.033 271.581 338.012 271.581V271.581Z" fill="#3541B4"/>
<path fill-rule="evenodd" clip-rule="evenodd" d="M345.295 289.674C346.275 289.674 347.068 290.468 347.068 291.447V312.36C347.068 313.339 346.275 314.133 345.295 314.133V314.133C344.316 314.133 343.522 313.339 343.522 312.36V291.447C343.522 290.468 344.316 289.674 345.295 289.674V289.674Z" fill="#0CADBB"/>
<path fill-rule="evenodd" clip-rule="evenodd" d="M380.757 192.151C381.736 192.151 382.53 192.945 382.53 193.924L382.53 312.36C382.53 313.339 381.736 314.133 380.757 314.133V314.133C379.778 314.133 378.984 313.339 378.984 312.36L378.984 193.924C378.984 192.945 379.778 192.151 380.757 192.151V192.151Z" fill="#0CADBB"/>
<path fill-rule="evenodd" clip-rule="evenodd" d="M388.04 262.362C389.02 262.362 389.813 263.156 389.813 264.135V312.36C389.813 313.339 389.02 314.133 388.04 314.133V314.133C387.061 314.133 386.267 313.339 386.267 312.36V264.135C386.267 263.156 387.061 262.362 388.04 262.362V262.362Z" fill="#3541B4"/>
<path fill-rule="evenodd" clip-rule="evenodd" d="M423.502 271.582C424.482 271.582 425.275 272.375 425.275 273.355V312.36C425.275 313.34 424.482 314.133 423.502 314.133V314.133C422.523 314.133 421.729 313.34 421.729 312.36V273.355C421.729 272.375 422.523 271.582 423.502 271.582V271.582Z" fill="#3541B4"/>
<path fill-rule="evenodd" clip-rule="evenodd" d="M430.786 289.675C431.765 289.675 432.559 290.468 432.559 291.448V312.36C432.559 313.34 431.765 314.133 430.786 314.133V314.133C429.806 314.133 429.013 313.34 429.013 312.36V291.448C429.013 290.468 429.806 289.675 430.786 289.675V289.675Z" fill="#0CADBB"/>
<path fill-rule="evenodd" clip-rule="evenodd" d="M466.248 241.795C467.227 241.795 468.021 242.589 468.021 243.568L468.021 312.36C468.021 313.339 467.227 314.133 466.248 314.133V314.133C465.268 314.133 464.475 313.339 464.475 312.36L464.475 243.568C464.475 242.589 465.268 241.795 466.248 241.795V241.795Z" fill="#0CADBB"/>
<path fill-rule="evenodd" clip-rule="evenodd" d="M473.531 262.362C474.51 262.362 475.304 263.156 475.304 264.135V312.36C475.304 313.339 474.51 314.133 473.531 314.133V314.133C472.552 314.133 471.758 313.339 471.758 312.36V264.135C471.758 263.156 472.552 262.362 473.531 262.362V262.362Z" fill="#3541B4"/>
<path fill-rule="evenodd" clip-rule="evenodd" d="M508.993 271.581C509.972 271.581 510.766 272.375 510.766 273.354V312.36C510.766 313.339 509.972 314.133 508.993 314.133V314.133C508.013 314.133 507.22 313.339 507.22 312.36V273.354C507.22 272.375 508.013 271.581 508.993 271.581V271.581Z" fill="#3541B4"/>
<path fill-rule="evenodd" clip-rule="evenodd" d="M516.276 289.674C517.255 289.674 518.049 290.468 518.049 291.447V312.36C518.049 313.339 517.255 314.133 516.276 314.133V314.133C515.297 314.133 514.503 313.339 514.503 312.36V291.447C514.503 290.468 515.297 289.674 516.276 289.674V289.674Z" fill="#0CADBB"/>
<rect x="435.958" y="151.212" width="85.4078" height="21.1788" rx="10.5894" fill="#F8FAFF"/>
<path d="M446.658 164.347C445.99 164.347 445.464 164.155 445.08 163.771C444.697 163.387 444.505 162.819 444.505 162.067V159.069H445.058V162.044C445.058 162.662 445.197 163.118 445.476 163.412C445.756 163.706 446.149 163.853 446.658 163.853C447.171 163.853 447.567 163.706 447.846 163.412C448.125 163.118 448.265 162.662 448.265 162.044V159.069H448.803V162.067C448.803 162.819 448.611 163.387 448.227 163.771C447.849 164.155 447.325 164.347 446.658 164.347ZM446.172 158.643L447.196 157.716H447.906L446.695 158.643H446.172ZM450.358 164.302V158.755H450.888V164.302H450.358ZM453.628 164.339C453.259 164.339 452.975 164.239 452.776 164.04C452.576 163.841 452.477 163.559 452.477 163.195V159.51H453.007V163.166C453.007 163.395 453.065 163.572 453.179 163.696C453.299 163.821 453.468 163.883 453.687 163.883C453.922 163.883 454.116 163.816 454.27 163.681L454.457 164.063C454.353 164.157 454.226 164.227 454.076 164.272C453.932 164.317 453.782 164.339 453.628 164.339ZM451.774 160.818V160.377H454.203V160.818H451.774ZM455.423 164.302V160.377H455.954V164.302H455.423ZM455.693 159.51C455.583 159.51 455.491 159.473 455.416 159.398C455.341 159.324 455.304 159.234 455.304 159.129C455.304 159.025 455.341 158.937 455.416 158.868C455.491 158.793 455.583 158.755 455.693 158.755C455.802 158.755 455.894 158.79 455.969 158.86C456.044 158.93 456.081 159.017 456.081 159.122C456.081 159.231 456.044 159.324 455.969 159.398C455.899 159.473 455.807 159.51 455.693 159.51ZM462.334 160.34C462.653 160.34 462.93 160.402 463.164 160.527C463.403 160.647 463.588 160.831 463.717 161.08C463.852 161.329 463.919 161.643 463.919 162.022V164.302H463.388V162.074C463.388 161.661 463.289 161.349 463.089 161.14C462.895 160.926 462.618 160.818 462.26 160.818C461.991 160.818 461.756 160.876 461.557 160.99C461.363 161.1 461.211 161.262 461.101 161.476C460.996 161.686 460.944 161.94 460.944 162.239V164.302H460.413V162.074C460.413 161.661 460.314 161.349 460.114 161.14C459.915 160.926 459.636 160.818 459.277 160.818C459.013 160.818 458.781 160.876 458.582 160.99C458.383 161.1 458.228 161.262 458.119 161.476C458.014 161.686 457.962 161.94 457.962 162.239V164.302H457.431V160.377H457.939V161.439L457.857 161.252C457.977 160.968 458.168 160.746 458.433 160.587C458.702 160.422 459.018 160.34 459.382 160.34C459.766 160.34 460.092 160.437 460.361 160.632C460.63 160.821 460.805 161.108 460.884 161.491L460.675 161.409C460.79 161.09 460.991 160.833 461.28 160.639C461.574 160.44 461.926 160.34 462.334 160.34ZM466.958 164.339C466.579 164.339 466.238 164.254 465.934 164.085C465.635 163.911 465.398 163.674 465.224 163.375C465.049 163.071 464.962 162.725 464.962 162.336C464.962 161.942 465.049 161.596 465.224 161.297C465.398 160.998 465.635 160.764 465.934 160.594C466.233 160.425 466.574 160.34 466.958 160.34C467.347 160.34 467.69 160.425 467.989 160.594C468.293 160.764 468.53 160.998 468.7 161.297C468.874 161.596 468.961 161.942 468.961 162.336C468.961 162.725 468.874 163.071 468.7 163.375C468.53 163.674 468.293 163.911 467.989 164.085C467.686 164.254 467.342 164.339 466.958 164.339ZM466.958 163.868C467.242 163.868 467.494 163.806 467.713 163.681C467.932 163.552 468.104 163.372 468.229 163.143C468.358 162.909 468.423 162.64 468.423 162.336C468.423 162.027 468.358 161.758 468.229 161.529C468.104 161.299 467.932 161.122 467.713 160.998C467.494 160.868 467.244 160.804 466.965 160.804C466.686 160.804 466.437 160.868 466.218 160.998C465.999 161.122 465.824 161.299 465.695 161.529C465.565 161.758 465.5 162.027 465.5 162.336C465.5 162.64 465.565 162.909 465.695 163.143C465.824 163.372 465.999 163.552 466.218 163.681C466.437 163.806 466.684 163.868 466.958 163.868ZM471.099 164.339C470.775 164.339 470.468 164.294 470.179 164.205C469.89 164.11 469.664 163.993 469.499 163.853L469.738 163.435C469.898 163.554 470.102 163.659 470.351 163.749C470.6 163.833 470.862 163.876 471.136 163.876C471.51 163.876 471.779 163.818 471.943 163.704C472.108 163.584 472.19 163.427 472.19 163.233C472.19 163.088 472.143 162.976 472.048 162.896C471.958 162.812 471.839 162.749 471.689 162.71C471.54 162.665 471.373 162.627 471.188 162.597C471.004 162.568 470.82 162.533 470.635 162.493C470.456 162.453 470.291 162.396 470.142 162.321C469.992 162.241 469.87 162.134 469.776 162C469.686 161.865 469.641 161.686 469.641 161.461C469.641 161.247 469.701 161.055 469.82 160.886C469.94 160.716 470.114 160.584 470.344 160.49C470.578 160.39 470.862 160.34 471.196 160.34C471.45 160.34 471.704 160.375 471.958 160.445C472.212 160.51 472.422 160.597 472.586 160.706L472.354 161.132C472.18 161.013 471.993 160.928 471.794 160.878C471.595 160.823 471.395 160.796 471.196 160.796C470.842 160.796 470.58 160.858 470.411 160.983C470.247 161.103 470.164 161.257 470.164 161.446C470.164 161.596 470.209 161.713 470.299 161.798C470.394 161.882 470.516 161.95 470.665 162C470.82 162.044 470.987 162.082 471.166 162.112C471.35 162.142 471.532 162.179 471.712 162.224C471.896 162.264 472.063 162.321 472.212 162.396C472.367 162.465 472.489 162.568 472.579 162.702C472.673 162.832 472.721 163.004 472.721 163.218C472.721 163.447 472.656 163.646 472.526 163.816C472.402 163.98 472.217 164.11 471.973 164.205C471.734 164.294 471.443 164.339 471.099 164.339ZM476.862 164.347C476.483 164.347 476.124 164.287 475.785 164.167C475.452 164.043 475.182 163.878 474.978 163.674L475.24 163.248C475.409 163.422 475.636 163.567 475.92 163.681C476.209 163.796 476.523 163.853 476.862 163.853C477.295 163.853 477.627 163.759 477.856 163.569C478.09 163.38 478.207 163.126 478.207 162.807C478.207 162.488 478.093 162.234 477.863 162.044C477.639 161.855 477.283 161.76 476.795 161.76H476.421V161.364L478.035 159.338L478.11 159.548H475.195V159.069H478.559V159.451L476.944 161.476L476.682 161.304H476.884C477.512 161.304 477.981 161.444 478.289 161.723C478.603 162.002 478.76 162.361 478.76 162.799C478.76 163.093 478.691 163.357 478.551 163.592C478.412 163.826 478.2 164.01 477.916 164.145C477.637 164.279 477.285 164.347 476.862 164.347ZM481.604 164.347C481.201 164.347 480.842 164.242 480.528 164.033C480.214 163.818 479.967 163.514 479.788 163.121C479.608 162.722 479.519 162.244 479.519 161.686C479.519 161.127 479.608 160.652 479.788 160.258C479.967 159.859 480.214 159.555 480.528 159.346C480.842 159.132 481.201 159.025 481.604 159.025C482.008 159.025 482.367 159.132 482.681 159.346C482.995 159.555 483.241 159.859 483.421 160.258C483.605 160.652 483.697 161.127 483.697 161.686C483.697 162.244 483.605 162.722 483.421 163.121C483.241 163.514 482.995 163.818 482.681 164.033C482.367 164.242 482.008 164.347 481.604 164.347ZM481.604 163.853C481.913 163.853 482.182 163.771 482.412 163.607C482.641 163.437 482.82 163.193 482.95 162.874C483.079 162.55 483.144 162.154 483.144 161.686C483.144 161.217 483.079 160.823 482.95 160.505C482.82 160.181 482.641 159.936 482.412 159.772C482.182 159.603 481.913 159.518 481.604 159.518C481.305 159.518 481.039 159.603 480.804 159.772C480.57 159.936 480.388 160.181 480.259 160.505C480.129 160.823 480.064 161.217 480.064 161.686C480.064 162.154 480.129 162.55 480.259 162.874C480.388 163.193 480.57 163.437 480.804 163.607C481.039 163.771 481.305 163.853 481.604 163.853ZM488.338 164.339C487.964 164.339 487.628 164.254 487.329 164.085C487.035 163.916 486.803 163.681 486.634 163.382C486.464 163.078 486.379 162.73 486.379 162.336C486.379 161.937 486.464 161.588 486.634 161.289C486.803 160.99 487.035 160.759 487.329 160.594C487.628 160.425 487.964 160.34 488.338 160.34C488.682 160.34 488.988 160.417 489.257 160.572C489.531 160.726 489.748 160.953 489.908 161.252C490.072 161.546 490.154 161.907 490.154 162.336C490.154 162.759 490.074 163.121 489.915 163.42C489.756 163.719 489.539 163.948 489.265 164.107C488.996 164.262 488.687 164.339 488.338 164.339ZM488.375 163.868C488.654 163.868 488.903 163.806 489.123 163.681C489.347 163.552 489.521 163.372 489.646 163.143C489.775 162.909 489.84 162.64 489.84 162.336C489.84 162.027 489.775 161.758 489.646 161.529C489.521 161.299 489.347 161.122 489.123 160.998C488.903 160.868 488.654 160.804 488.375 160.804C488.101 160.804 487.854 160.868 487.635 160.998C487.416 161.122 487.241 161.299 487.112 161.529C486.982 161.758 486.918 162.027 486.918 162.336C486.918 162.64 486.982 162.909 487.112 163.143C487.241 163.372 487.416 163.552 487.635 163.681C487.854 163.806 488.101 163.868 488.375 163.868ZM489.855 164.302V163.121L489.908 162.328L489.833 161.536V158.755H490.363V164.302H489.855ZM491.842 164.302V160.377H492.372V164.302H491.842ZM491.625 159.765L492.649 158.838H493.359L492.148 159.765H491.625ZM496.308 164.302V163.435L496.286 163.293V161.843C496.286 161.509 496.191 161.252 496.002 161.073C495.817 160.893 495.541 160.804 495.172 160.804C494.918 160.804 494.676 160.846 494.447 160.931C494.218 161.015 494.023 161.127 493.864 161.267L493.625 160.871C493.824 160.701 494.063 160.572 494.342 160.482C494.621 160.387 494.915 160.34 495.224 160.34C495.733 160.34 496.124 160.467 496.398 160.721C496.677 160.97 496.816 161.352 496.816 161.865V164.302H496.308ZM494.955 164.339C494.661 164.339 494.405 164.292 494.185 164.197C493.971 164.097 493.807 163.963 493.692 163.793C493.577 163.619 493.52 163.42 493.52 163.195C493.52 162.991 493.567 162.807 493.662 162.642C493.762 162.473 493.921 162.338 494.14 162.239C494.365 162.134 494.664 162.082 495.037 162.082H496.39V162.478H495.052C494.674 162.478 494.41 162.545 494.26 162.68C494.116 162.814 494.043 162.981 494.043 163.181C494.043 163.405 494.13 163.584 494.305 163.719C494.479 163.853 494.723 163.921 495.037 163.921C495.336 163.921 495.593 163.853 495.807 163.719C496.027 163.579 496.186 163.38 496.286 163.121L496.405 163.487C496.306 163.746 496.131 163.953 495.882 164.107C495.638 164.262 495.329 164.339 494.955 164.339ZM499.312 164.339C498.988 164.339 498.682 164.294 498.392 164.205C498.103 164.11 497.877 163.993 497.712 163.853L497.951 163.435C498.111 163.554 498.315 163.659 498.564 163.749C498.814 163.833 499.075 163.876 499.349 163.876C499.723 163.876 499.992 163.818 500.157 163.704C500.321 163.584 500.403 163.427 500.403 163.233C500.403 163.088 500.356 162.976 500.261 162.896C500.172 162.812 500.052 162.749 499.902 162.71C499.753 162.665 499.586 162.627 499.402 162.597C499.217 162.568 499.033 162.533 498.848 162.493C498.669 162.453 498.505 162.396 498.355 162.321C498.206 162.241 498.084 162.134 497.989 162C497.899 161.865 497.854 161.686 497.854 161.461C497.854 161.247 497.914 161.055 498.034 160.886C498.153 160.716 498.328 160.584 498.557 160.49C498.791 160.39 499.075 160.34 499.409 160.34C499.663 160.34 499.917 160.375 500.172 160.445C500.426 160.51 500.635 160.597 500.799 160.706L500.568 161.132C500.393 161.013 500.206 160.928 500.007 160.878C499.808 160.823 499.608 160.796 499.409 160.796C499.055 160.796 498.794 160.858 498.624 160.983C498.46 161.103 498.378 161.257 498.378 161.446C498.378 161.596 498.422 161.713 498.512 161.798C498.607 161.882 498.729 161.95 498.878 162C499.033 162.044 499.2 162.082 499.379 162.112C499.564 162.142 499.745 162.179 499.925 162.224C500.109 162.264 500.276 162.321 500.426 162.396C500.58 162.465 500.702 162.568 500.792 162.702C500.887 162.832 500.934 163.004 500.934 163.218C500.934 163.447 500.869 163.646 500.74 163.816C500.615 163.98 500.431 164.11 500.186 164.205C499.947 164.294 499.656 164.339 499.312 164.339Z" fill="#6D758F"/>
<path d="M514.203 159.957L510.777 163.646L507.351 159.957" stroke="#6D758F" stroke-width="0.934358" stroke-linecap="round" stroke-linejoin="round"/>
<circle cx="109.243" cy="161.49" r="2.80307" fill="#0CADBB"/>
<path d="M119.354 164.064L118.397 162.48C118.322 162.487 118.24 162.487 118.158 162.487H116.917V164.064H116.035V158.832H118.158C119.496 158.832 120.266 159.482 120.266 160.618C120.266 161.455 119.877 162.046 119.182 162.315L120.355 164.064H119.354ZM116.917 161.695H118.158C118.965 161.695 119.429 161.351 119.429 160.641C119.429 159.953 118.965 159.624 118.158 159.624H116.917V161.695ZM123.021 160.058C124.419 160.058 124.987 160.97 124.883 162.405H121.878C122.012 163.018 122.483 163.399 123.111 163.399C123.545 163.399 123.941 163.234 124.232 162.936L124.688 163.421C124.3 163.847 123.731 164.094 123.044 164.094C121.818 164.094 121.011 163.279 121.011 162.083C121.011 160.88 121.84 160.065 123.021 160.058ZM121.863 161.777H124.135C124.105 161.134 123.679 160.745 123.029 160.745C122.401 160.745 121.96 161.142 121.863 161.777ZM127.297 159.228C127.006 159.228 126.759 159.392 126.759 159.766V160.237H127.798V160.88H126.759V164.064H125.907V160.88H125.384V160.237H125.907V159.848C125.907 158.922 126.587 158.48 127.275 158.48C127.596 158.48 127.917 158.57 128.172 158.757L127.843 159.415C127.678 159.295 127.476 159.228 127.297 159.228ZM129.868 160.058C131.266 160.058 131.834 160.97 131.73 162.405H128.725C128.859 163.018 129.33 163.399 129.958 163.399C130.392 163.399 130.788 163.234 131.079 162.936L131.535 163.421C131.147 163.847 130.579 164.094 129.891 164.094C128.665 164.094 127.858 163.279 127.858 162.083C127.858 160.88 128.687 160.065 129.868 160.058ZM128.71 161.777H130.982C130.952 161.134 130.526 160.745 129.876 160.745C129.248 160.745 128.807 161.142 128.71 161.777ZM133.485 160.088V160.88C133.755 160.342 134.233 160.058 134.861 160.058V160.88C134.061 160.835 133.553 161.306 133.485 161.986V164.064H132.626V160.088H133.485ZM137.205 160.058C138.602 160.058 139.171 160.97 139.066 162.405H136.061C136.196 163.018 136.666 163.399 137.294 163.399C137.728 163.399 138.124 163.234 138.416 162.936L138.872 163.421C138.483 163.847 137.915 164.094 137.227 164.094C136.001 164.094 135.194 163.279 135.194 162.083C135.194 160.88 136.024 160.065 137.205 160.058ZM136.046 161.777H138.318C138.288 161.134 137.862 160.745 137.212 160.745C136.584 160.745 136.143 161.142 136.046 161.777ZM142.287 160.058C143.214 160.058 143.767 160.641 143.767 161.59V164.064H142.907V161.829C142.907 161.231 142.548 160.865 141.95 160.865C141.293 160.872 140.881 161.328 140.822 161.949V164.064H139.962V160.088H140.822V160.85C141.106 160.297 141.614 160.058 142.287 160.058ZM146.548 160.058C147.266 160.058 147.826 160.289 148.193 160.708L147.722 161.261C147.445 160.977 147.064 160.805 146.585 160.813C145.898 160.813 145.404 161.328 145.404 162.083C145.404 162.838 145.898 163.354 146.585 163.354C147.086 163.354 147.49 163.19 147.759 162.876L148.237 163.354C147.879 163.825 147.303 164.094 146.548 164.094C145.367 164.094 144.545 163.279 144.545 162.083C144.545 160.88 145.367 160.058 146.548 160.058ZM149.564 158.428C149.848 158.428 150.065 158.645 150.065 158.951C150.065 159.25 149.848 159.467 149.564 159.467C149.28 159.467 149.063 159.25 149.063 158.951C149.063 158.645 149.28 158.428 149.564 158.428ZM149.99 164.064H149.138V160.088H149.99V164.064ZM153.646 164.064V163.578C153.362 163.93 152.906 164.102 152.331 164.102C151.471 164.102 150.933 163.571 150.933 162.868C150.933 162.143 151.479 161.68 152.435 161.672H153.639V161.553C153.639 161.052 153.318 160.753 152.69 160.753C152.308 160.753 151.912 160.887 151.516 161.156L151.165 160.558C151.718 160.23 152.122 160.058 152.877 160.058C153.901 160.058 154.476 160.581 154.484 161.455L154.491 164.064H153.646ZM152.51 163.421C153.123 163.421 153.594 163.1 153.639 162.666V162.3H152.563C152.002 162.3 151.74 162.45 151.74 162.831C151.74 163.19 152.032 163.421 152.51 163.421ZM158.937 164.064H158.055V159.617H157.031V158.832H158.937V164.064Z" fill="#353E5C"/>
<circle cx="179.632" cy="160.867" r="2.80307" fill="#3541B4"/>
<path d="M191.171 163.367L190.214 161.783C190.139 161.79 190.057 161.79 189.975 161.79H188.734V163.367H187.852V158.135H189.975C191.313 158.135 192.083 158.785 192.083 159.921C192.083 160.758 191.694 161.349 190.999 161.618L192.172 163.367H191.171ZM188.734 160.998H189.975C190.782 160.998 191.246 160.654 191.246 159.944C191.246 159.256 190.782 158.927 189.975 158.927H188.734V160.998ZM194.838 159.361C196.236 159.361 196.804 160.273 196.7 161.708H193.695C193.829 162.321 194.3 162.702 194.928 162.702C195.362 162.702 195.758 162.537 196.049 162.238L196.505 162.724C196.117 163.15 195.548 163.397 194.861 163.397C193.635 163.397 192.828 162.582 192.828 161.386C192.828 160.183 193.657 159.368 194.838 159.361ZM193.68 161.08H195.952C195.922 160.437 195.496 160.048 194.846 160.048C194.218 160.048 193.777 160.445 193.68 161.08ZM199.114 158.531C198.823 158.531 198.576 158.695 198.576 159.069V159.54H199.615V160.183H198.576V163.367H197.724V160.183H197.2V159.54H197.724V159.151C197.724 158.224 198.404 157.783 199.092 157.783C199.413 157.783 199.734 157.873 199.989 158.06L199.66 158.718C199.495 158.598 199.293 158.531 199.114 158.531ZM201.685 159.361C203.083 159.361 203.651 160.273 203.547 161.708H200.542C200.676 162.321 201.147 162.702 201.775 162.702C202.209 162.702 202.605 162.537 202.896 162.238L203.352 162.724C202.964 163.15 202.396 163.397 201.708 163.397C200.482 163.397 199.675 162.582 199.675 161.386C199.675 160.183 200.504 159.368 201.685 159.361ZM200.527 161.08H202.799C202.769 160.437 202.343 160.048 201.693 160.048C201.065 160.048 200.624 160.445 200.527 161.08ZM205.302 159.391V160.183C205.572 159.645 206.05 159.361 206.678 159.361V160.183C205.878 160.138 205.37 160.609 205.302 161.289V163.367H204.443V159.391H205.302ZM209.022 159.361C210.419 159.361 210.988 160.273 210.883 161.708H207.878C208.013 162.321 208.483 162.702 209.111 162.702C209.545 162.702 209.941 162.537 210.233 162.238L210.689 162.724C210.3 163.15 209.732 163.397 209.044 163.397C207.818 163.397 207.011 162.582 207.011 161.386C207.011 160.183 207.841 159.368 209.022 159.361ZM207.863 161.08H210.135C210.105 160.437 209.679 160.048 209.029 160.048C208.401 160.048 207.96 160.445 207.863 161.08ZM214.104 159.361C215.031 159.361 215.584 159.944 215.584 160.893V163.367H214.724V161.132C214.724 160.534 214.365 160.168 213.767 160.168C213.11 160.175 212.698 160.631 212.639 161.252V163.367H211.779V159.391H212.639V160.153C212.923 159.6 213.431 159.361 214.104 159.361ZM218.365 159.361C219.083 159.361 219.643 159.592 220.009 160.011L219.539 160.564C219.262 160.28 218.881 160.108 218.402 160.116C217.715 160.116 217.221 160.631 217.221 161.386C217.221 162.141 217.715 162.657 218.402 162.657C218.903 162.657 219.307 162.493 219.576 162.179L220.054 162.657C219.696 163.128 219.12 163.397 218.365 163.397C217.184 163.397 216.362 162.582 216.362 161.386C216.362 160.183 217.184 159.361 218.365 159.361ZM221.381 157.731C221.665 157.731 221.882 157.948 221.882 158.254C221.882 158.553 221.665 158.77 221.381 158.77C221.097 158.77 220.88 158.553 220.88 158.254C220.88 157.948 221.097 157.731 221.381 157.731ZM221.807 163.367H220.955V159.391H221.807V163.367ZM225.463 163.367V162.881C225.179 163.233 224.723 163.405 224.148 163.405C223.288 163.405 222.75 162.874 222.75 162.171C222.75 161.446 223.296 160.983 224.252 160.975H225.456V160.856C225.456 160.355 225.134 160.056 224.507 160.056C224.125 160.056 223.729 160.19 223.333 160.459L222.982 159.861C223.535 159.533 223.939 159.361 224.693 159.361C225.718 159.361 226.293 159.884 226.301 160.758L226.308 163.367H225.463ZM224.327 162.724C224.94 162.724 225.411 162.403 225.456 161.969V161.603H224.38C223.819 161.603 223.557 161.753 223.557 162.134C223.557 162.493 223.849 162.724 224.327 162.724ZM230.903 158.097C231.89 158.097 232.57 158.613 232.57 159.413C232.57 159.944 232.166 160.534 231.613 161.132L230.253 162.575H232.809V163.367H229.087V162.724L231.015 160.654C231.397 160.265 231.651 159.839 231.651 159.54C231.651 159.121 231.322 158.867 230.776 158.867C230.32 158.867 229.789 159.121 229.348 159.525L228.997 158.845C229.565 158.381 230.23 158.097 230.903 158.097Z" fill="#353E5C"/>
</g>
<g filter="url(#filter1_d_1796_50196)">
<rect x="143" y="356" width="230" height="92" rx="20" fill="white"/>
<rect x="153" y="366" width="72" height="72" rx="36" fill="#F6F1EB" fill-opacity="0.94"/>
<path d="M192.955 394.078L194.6 397.368C194.822 397.823 195.417 398.255 195.919 398.348L198.894 398.838C200.795 399.153 201.239 400.53 199.874 401.907L197.552 404.228C197.167 404.613 196.945 405.372 197.074 405.92L197.739 408.79C198.264 411.053 197.05 411.94 195.055 410.75L192.267 409.093C191.765 408.79 190.925 408.79 190.424 409.093L187.635 410.75C185.64 411.928 184.427 411.053 184.952 408.79L185.617 405.92C185.722 405.36 185.5 404.602 185.115 404.217L182.794 401.895C181.429 400.53 181.872 399.153 183.774 398.827L186.749 398.337C187.25 398.255 187.845 397.812 188.067 397.357L189.712 394.067C190.61 392.293 192.057 392.293 192.955 394.078Z" fill="#0CADBB"/>
<path d="M184.333 394.708H177.333C176.855 394.708 176.458 394.312 176.458 393.833C176.458 393.355 176.855 392.958 177.333 392.958H184.333C184.811 392.958 185.208 393.355 185.208 393.833C185.208 394.312 184.811 394.708 184.333 394.708Z" fill="#0CADBB"/>
<path d="M180.833 411.042H177.333C176.855 411.042 176.458 410.645 176.458 410.167C176.458 409.688 176.855 409.292 177.333 409.292H180.833C181.311 409.292 181.708 409.688 181.708 410.167C181.708 410.645 181.311 411.042 180.833 411.042Z" fill="#0CADBB"/>
<path d="M178.5 402.875H177.333C176.855 402.875 176.458 402.478 176.458 402C176.458 401.522 176.855 401.125 177.333 401.125H178.5C178.978 401.125 179.375 401.522 179.375 402C179.375 402.478 178.978 402.875 178.5 402.875Z" fill="#0CADBB"/>
<path d="M241.12 383.84C243.9 383.84 245.9 385.28 245.9 387.5C245.9 389.02 244.78 390.6 243.26 392.16L240.42 395.18H246.32V398H235.84V395.7L240.84 390.4C241.62 389.58 242.18 388.64 242.18 388C242.18 387.2 241.6 386.72 240.6 386.72C239.46 386.72 238.06 387.4 236.78 388.5L235.44 385.94C237.2 384.62 239.12 383.84 241.12 383.84ZM253.645 383.88C257.605 383.88 259.825 386.42 259.825 390.98C259.825 395.56 257.605 398.1 253.645 398.1C249.645 398.1 247.425 395.56 247.425 390.98C247.425 386.42 249.645 383.88 253.645 383.88ZM253.645 386.48C251.845 386.48 251.085 387.78 251.085 390.98C251.085 394.18 251.845 395.5 253.645 395.5C255.405 395.5 256.185 394.18 256.185 390.98C256.185 387.78 255.405 386.48 253.645 386.48ZM266.4 383.84C269.18 383.84 271.18 385.28 271.18 387.5C271.18 389.02 270.06 390.6 268.54 392.16L265.7 395.18H271.6V398H261.12V395.7L266.12 390.4C266.9 389.58 267.46 388.64 267.46 388C267.46 387.2 266.88 386.72 265.88 386.72C264.74 386.72 263.34 387.4 262.06 388.5L260.72 385.94C262.48 384.62 264.4 383.84 266.4 383.84Z" fill="#19213D"/>
<path d="M242.332 421L240.447 418.101C240.252 418.114 240.044 418.127 239.836 418.127H237.418V421H236.378V411.9H239.836C242.111 411.9 243.424 413.018 243.424 414.955C243.424 416.463 242.696 417.477 241.383 417.906L243.515 421H242.332ZM237.418 417.126H239.836C241.487 417.126 242.423 416.398 242.423 414.981C242.423 413.603 241.487 412.901 239.836 412.901H237.418V417.126ZM248.191 414.123C250.401 414.11 251.493 415.644 251.389 417.971H245.799C245.981 419.31 246.956 420.155 248.282 420.155C249.127 420.155 249.868 419.856 250.401 419.297L250.96 419.895C250.31 420.623 249.348 421.039 248.204 421.039C246.189 421.039 244.798 419.622 244.798 417.581C244.798 415.54 246.202 414.123 248.191 414.123ZM245.799 417.139H250.479C250.414 415.826 249.53 414.994 248.191 414.994C246.891 414.994 245.955 415.839 245.799 417.139ZM254.806 414.11C255.625 414.11 256.418 414.344 256.99 414.734L256.6 415.54C256.067 415.202 255.378 414.981 254.741 414.981C253.974 414.981 253.389 415.254 253.389 415.891C253.389 417.412 257.211 416.632 257.211 419.089C257.211 420.441 256.015 421.039 254.702 421.039C253.727 421.039 252.726 420.701 252.076 420.077L252.466 419.31C253.051 419.856 253.935 420.181 254.741 420.181C255.547 420.181 256.197 419.882 256.21 419.206C256.249 417.555 252.414 418.4 252.427 415.969C252.427 414.656 253.558 414.11 254.806 414.11ZM261.438 414.123C263.648 414.11 264.74 415.644 264.636 417.971H259.046C259.228 419.31 260.203 420.155 261.529 420.155C262.374 420.155 263.115 419.856 263.648 419.297L264.207 419.895C263.557 420.623 262.595 421.039 261.451 421.039C259.436 421.039 258.045 419.622 258.045 417.581C258.045 415.54 259.449 414.123 261.438 414.123ZM259.046 417.139H263.726C263.661 415.826 262.777 414.994 261.438 414.994C260.138 414.994 259.202 415.839 259.046 417.139ZM268.716 412.108C268.352 412.108 268.157 412.342 268.157 412.784H267.481C267.481 411.822 267.858 411.315 268.56 411.315C269.236 411.315 269.652 412.095 270.133 412.095C270.497 412.095 270.692 411.861 270.692 411.419H271.368C271.368 412.381 270.991 412.888 270.289 412.888C269.535 412.888 269.21 412.108 268.716 412.108ZM269.899 414.11C271.537 414.11 272.499 415.124 272.499 416.775V421H271.485V417.048C271.485 415.839 270.757 415.124 269.548 415.124C268.196 415.137 267.364 416.021 267.247 417.321V421H266.233V414.149H267.247V415.657C267.728 414.617 268.651 414.123 269.899 414.11ZM278.873 421V419.947C278.327 420.688 277.456 421.052 276.364 421.052C274.947 421.052 274.037 420.142 274.037 418.959C274.037 417.763 274.986 417.009 276.598 416.996H278.847V416.593C278.847 415.592 278.223 414.994 277.014 414.994C276.26 414.994 275.558 415.28 274.843 415.774L274.414 415.033C275.298 414.448 276.039 414.11 277.209 414.11C278.899 414.11 279.835 415.007 279.848 416.476L279.861 421H278.873ZM276.559 420.168C277.716 420.168 278.6 419.583 278.86 418.634V417.815H276.728C275.584 417.815 274.986 418.166 274.986 418.92C274.986 419.674 275.597 420.168 276.559 420.168ZM283.801 414.11C284.62 414.11 285.413 414.344 285.985 414.734L285.595 415.54C285.062 415.202 284.373 414.981 283.736 414.981C282.969 414.981 282.384 415.254 282.384 415.891C282.384 417.412 286.206 416.632 286.206 419.089C286.206 420.441 285.01 421.039 283.697 421.039C282.722 421.039 281.721 420.701 281.071 420.077L281.461 419.31C282.046 419.856 282.93 420.181 283.736 420.181C284.542 420.181 285.192 419.882 285.205 419.206C285.244 417.555 281.409 418.4 281.422 415.969C281.422 414.656 282.553 414.11 283.801 414.11ZM297.25 421L295.365 418.101C295.17 418.114 294.962 418.127 294.754 418.127H292.336V421H291.296V411.9H294.754C297.029 411.9 298.342 413.018 298.342 414.955C298.342 416.463 297.614 417.477 296.301 417.906L298.433 421H297.25ZM292.336 417.126H294.754C296.405 417.126 297.341 416.398 297.341 414.981C297.341 413.603 296.405 412.901 294.754 412.901H292.336V417.126ZM303.109 414.123C305.319 414.11 306.411 415.644 306.307 417.971H300.717C300.899 419.31 301.874 420.155 303.2 420.155C304.045 420.155 304.786 419.856 305.319 419.297L305.878 419.895C305.228 420.623 304.266 421.039 303.122 421.039C301.107 421.039 299.716 419.622 299.716 417.581C299.716 415.54 301.12 414.123 303.109 414.123ZM300.717 417.139H305.397C305.332 415.826 304.448 414.994 303.109 414.994C301.809 414.994 300.873 415.839 300.717 417.139ZM310.609 414.123C311.714 414.11 312.624 414.487 313.248 415.137L312.689 415.852C312.169 415.358 311.48 415.059 310.648 415.059C309.231 415.059 308.217 416.086 308.217 417.581C308.217 419.076 309.231 420.116 310.648 420.116C311.545 420.116 312.286 419.804 312.767 419.232L313.352 419.856C312.741 420.597 311.792 421.039 310.609 421.039C308.62 421.039 307.216 419.622 307.216 417.581C307.216 415.54 308.633 414.123 310.609 414.123ZM315.543 411.484C315.92 411.484 316.206 411.783 316.206 412.186C316.206 412.589 315.92 412.888 315.543 412.888C315.166 412.888 314.88 412.589 314.88 412.186C314.88 411.783 315.166 411.484 315.543 411.484ZM316.05 421H315.049V414.149H316.05V421ZM322.09 414.11C324.027 414.11 325.379 415.54 325.379 417.594C325.379 419.622 324.053 421.039 322.116 421.039C320.894 421.039 319.958 420.48 319.451 419.531V421H318.437V411.354H319.451V415.631C319.958 414.669 320.894 414.11 322.09 414.11ZM321.908 420.116C323.338 420.116 324.352 419.05 324.352 417.568C324.352 416.099 323.338 415.02 321.908 415.02C320.465 415.02 319.451 416.086 319.451 417.568C319.451 419.063 320.465 420.116 321.908 420.116ZM327.508 411.484C327.885 411.484 328.171 411.783 328.171 412.186C328.171 412.589 327.885 412.888 327.508 412.888C327.131 412.888 326.845 412.589 326.845 412.186C326.845 411.783 327.131 411.484 327.508 411.484ZM328.015 421H327.014V414.149H328.015V421ZM336.629 411.354V421H335.615V419.531C335.108 420.493 334.172 421.052 332.95 421.052C331 421.052 329.648 419.609 329.648 417.568C329.648 415.514 331 414.097 332.937 414.097C334.159 414.097 335.108 414.656 335.615 415.631V411.354H336.629ZM333.145 420.142C334.588 420.142 335.615 419.076 335.615 417.594C335.615 416.099 334.588 415.02 333.145 415.02C331.689 415.02 330.662 416.099 330.662 417.594C330.662 419.076 331.689 420.142 333.145 420.142ZM343.268 421V419.947C342.722 420.688 341.851 421.052 340.759 421.052C339.342 421.052 338.432 420.142 338.432 418.959C338.432 417.763 339.381 417.009 340.993 416.996H343.242V416.593C343.242 415.592 342.618 414.994 341.409 414.994C340.655 414.994 339.953 415.28 339.238 415.774L338.809 415.033C339.693 414.448 340.434 414.11 341.604 414.11C343.294 414.11 344.23 415.007 344.243 416.476L344.256 421H343.268ZM340.954 420.168C342.111 420.168 342.995 419.583 343.255 418.634V417.815H341.123C339.979 417.815 339.381 418.166 339.381 418.92C339.381 419.674 339.992 420.168 340.954 420.168ZM348.197 414.11C349.016 414.11 349.809 414.344 350.381 414.734L349.991 415.54C349.458 415.202 348.769 414.981 348.132 414.981C347.365 414.981 346.78 415.254 346.78 415.891C346.78 417.412 350.602 416.632 350.602 419.089C350.602 420.441 349.406 421.039 348.093 421.039C347.118 421.039 346.117 420.701 345.467 420.077L345.857 419.31C346.442 419.856 347.326 420.181 348.132 420.181C348.938 420.181 349.588 419.882 349.601 419.206C349.64 417.555 345.805 418.4 345.818 415.969C345.818 414.656 346.949 414.11 348.197 414.11Z" fill="#353E5C"/>
</g>
<g filter="url(#filter2_dd_1796_50196)">
<rect x="383" y="262" width="189" height="215" rx="20" fill="white" shape-rendering="crispEdges"/>
<path d="M433.382 434.123H431.685L427.688 428.829V434.123H425.908V425.87H427.605L431.614 431.175V425.87H433.382V434.123ZM441.188 427.78V434.123H439.384V433.003C438.948 433.804 438.217 434.194 437.262 434.194C435.859 434.194 434.975 433.262 434.975 431.765V427.78H436.79V431.246C436.79 432.048 437.25 432.531 437.981 432.531C438.854 432.519 439.384 431.836 439.384 430.916V427.78H441.188ZM445.67 427.721C447.898 427.721 448.935 429.195 448.782 431.506H444.231C444.444 432.307 445.057 432.779 445.87 432.779C446.471 432.779 447.037 432.543 447.474 432.107L448.429 433.074C447.792 433.781 446.861 434.194 445.717 434.194C443.689 434.194 442.404 432.897 442.404 430.975C442.404 429.018 443.736 427.721 445.67 427.721ZM444.196 430.433H447.085C447.061 429.596 446.519 429.053 445.682 429.053C444.88 429.053 444.338 429.596 444.196 430.433ZM453.134 434.123H451.271L448.866 427.792L450.74 427.78L452.238 432.402L453.723 427.78H455.527L453.134 434.123ZM458.982 427.721C461.01 427.721 462.378 429.006 462.378 430.951C462.378 432.885 461.01 434.194 458.982 434.194C456.943 434.194 455.575 432.885 455.575 430.951C455.575 429.006 456.943 427.721 458.982 427.721ZM458.982 429.23C458.039 429.23 457.403 429.938 457.403 430.975C457.403 432.012 458.039 432.72 458.982 432.72C459.914 432.72 460.562 432.012 460.562 430.975C460.562 429.938 459.914 429.23 458.982 429.23ZM465.724 427.698C466.596 427.698 467.492 427.957 468.199 428.405L467.575 429.643C466.879 429.254 466.172 429.03 465.641 429.03C465.217 429.03 464.91 429.171 464.91 429.501C464.91 430.456 468.258 429.973 468.247 432.213C468.247 433.51 467.103 434.194 465.665 434.194C464.639 434.194 463.637 433.887 462.918 433.309L463.507 432.083C464.167 432.59 465.016 432.873 465.712 432.873C466.172 432.873 466.514 432.72 466.514 432.378C466.514 431.364 463.224 431.906 463.224 429.678C463.224 428.37 464.344 427.698 465.724 427.698ZM476.184 427.721C477.964 427.721 479.166 429.03 479.166 430.987C479.166 432.908 477.999 434.194 476.219 434.194C475.335 434.194 474.639 433.84 474.18 433.203V436.41H472.364V427.78H474.18V428.711C474.628 428.075 475.323 427.721 476.184 427.721ZM475.759 432.684C476.691 432.684 477.327 431.965 477.327 430.928C477.327 429.914 476.691 429.183 475.759 429.183C474.828 429.183 474.18 429.902 474.18 430.928C474.18 431.977 474.828 432.684 475.759 432.684ZM484.043 434.123V433.38C483.618 433.911 482.934 434.205 482.05 434.205C480.694 434.205 479.869 433.38 479.869 432.225C479.869 431.034 480.73 430.327 482.286 430.315H484.031V430.197C484.031 429.525 483.583 429.136 482.71 429.136C482.144 429.136 481.484 429.324 480.824 429.69L480.258 428.44C481.201 427.969 482.015 427.709 483.123 427.709C484.821 427.709 485.799 428.558 485.811 429.985L485.823 434.123H484.043ZM482.557 432.908C483.323 432.908 483.925 432.496 484.031 431.954V431.388H482.604C481.909 431.388 481.567 431.6 481.567 432.107C481.567 432.59 481.944 432.908 482.557 432.908ZM490.099 427.721C491.313 427.721 492.28 428.204 492.846 429.053L491.62 429.938C491.278 429.513 490.794 429.254 490.17 429.266C489.285 429.266 488.66 429.949 488.66 430.963C488.66 431.989 489.285 432.684 490.17 432.684C490.818 432.684 491.325 432.437 491.643 431.942L492.893 432.791C492.362 433.675 491.372 434.194 490.075 434.194C488.154 434.194 486.845 432.897 486.845 430.975C486.845 429.03 488.154 427.721 490.099 427.721ZM494.938 424.962C495.516 424.962 495.917 425.387 495.917 425.976C495.917 426.566 495.516 426.99 494.938 426.99C494.36 426.99 493.96 426.566 493.96 425.976C493.96 425.387 494.36 424.962 494.938 424.962ZM495.846 434.123H494.03V427.78H495.846V434.123ZM500.311 427.721C502.539 427.721 503.577 429.195 503.424 431.506H498.873C499.085 432.307 499.698 432.779 500.512 432.779C501.113 432.779 501.679 432.543 502.115 432.107L503.07 433.074C502.433 433.781 501.502 434.194 500.358 434.194C498.331 434.194 497.046 432.897 497.046 430.975C497.046 429.018 498.378 427.721 500.311 427.721ZM498.838 430.433H501.726C501.702 429.596 501.16 429.053 500.323 429.053C499.521 429.053 498.979 429.596 498.838 430.433ZM508.631 427.709C510.046 427.709 510.953 428.652 510.953 430.138V434.123H509.138V430.668C509.138 429.867 508.666 429.372 507.888 429.372C506.98 429.383 506.438 430.067 506.438 430.999V434.123H504.622V427.78H506.438V428.888C506.886 428.098 507.641 427.721 508.631 427.709ZM516.069 432.437L516.446 433.769C515.975 434.04 515.385 434.205 514.796 434.205C513.664 434.205 512.803 433.557 512.803 432.248V429.313H511.919V428.063H512.803V426.318H514.607V428.063H516.328V429.324H514.607V431.942C514.607 432.472 514.831 432.684 515.22 432.673C515.456 432.673 515.739 432.59 516.069 432.437ZM520.218 427.721C522.446 427.721 523.483 429.195 523.33 431.506H518.779C518.991 432.307 519.604 432.779 520.418 432.779C521.019 432.779 521.585 432.543 522.021 432.107L522.976 433.074C522.34 433.781 521.408 434.194 520.265 434.194C518.237 434.194 516.952 432.897 516.952 430.975C516.952 429.018 518.284 427.721 520.218 427.721ZM518.744 430.433H521.632C521.609 429.596 521.066 429.053 520.229 429.053C519.428 429.053 518.885 429.596 518.744 430.433ZM526.674 427.698C527.547 427.698 528.443 427.957 529.15 428.405L528.525 429.643C527.83 429.254 527.122 429.03 526.592 429.03C526.167 429.03 525.861 429.171 525.861 429.501C525.861 430.456 529.209 429.973 529.197 432.213C529.197 433.51 528.054 434.194 526.615 434.194C525.59 434.194 524.588 433.887 523.868 433.309L524.458 432.083C525.118 432.59 525.967 432.873 526.663 432.873C527.122 432.873 527.464 432.72 527.464 432.378C527.464 431.364 524.175 431.906 524.175 429.678C524.175 428.37 525.295 427.698 526.674 427.698Z" fill="#353E5C"/>
<path d="M443.33 448.901H446.691V450.088H442.021V442.322H443.33V448.901ZM450.399 444.141C452.218 444.141 453.472 445.35 453.472 447.137C453.472 448.912 452.218 450.132 450.399 450.132C448.568 450.132 447.315 448.912 447.315 447.137C447.315 445.35 448.568 444.141 450.399 444.141ZM450.399 445.239C449.334 445.239 448.59 446.016 448.59 447.148C448.59 448.29 449.334 449.067 450.399 449.067C451.453 449.067 452.196 448.29 452.196 447.148C452.196 446.016 451.453 445.239 450.399 445.239ZM456.079 444.185V445.361C456.479 444.563 457.189 444.141 458.121 444.141V445.361C456.933 445.295 456.179 445.994 456.079 447.003V450.088H454.803V444.185H456.079ZM461.599 444.141C463.674 444.141 464.517 445.495 464.362 447.625H459.902C460.101 448.534 460.8 449.1 461.732 449.1C462.376 449.1 462.964 448.856 463.396 448.412L464.073 449.134C463.496 449.766 462.653 450.132 461.632 450.132C459.813 450.132 458.615 448.923 458.615 447.148C458.615 445.361 459.846 444.152 461.599 444.141ZM459.88 446.693H463.252C463.208 445.739 462.575 445.162 461.61 445.162C460.678 445.162 460.024 445.75 459.88 446.693ZM473.391 444.141C474.745 444.141 475.555 445.006 475.555 446.415V450.088H474.279V446.77C474.279 445.872 473.746 445.328 472.881 445.328C471.871 445.361 471.261 446.138 471.261 447.17V450.088H469.985V446.77C469.985 445.872 469.464 445.328 468.598 445.328C467.578 445.361 466.957 446.138 466.957 447.17V450.088H465.692V444.185H466.957V445.328C467.367 444.496 468.121 444.141 469.098 444.141C470.152 444.141 470.873 444.663 471.15 445.561C471.527 444.574 472.315 444.141 473.391 444.141ZM480.755 441.723C481.177 441.723 481.499 442.044 481.499 442.499C481.499 442.943 481.177 443.265 480.755 443.265C480.334 443.265 480.012 442.943 480.012 442.499C480.012 442.044 480.334 441.723 480.755 441.723ZM481.388 450.088H480.123V444.185H481.388V450.088ZM486.671 444.141C488.346 444.141 489.489 445.361 489.489 447.159C489.489 448.923 488.379 450.132 486.693 450.132C485.75 450.132 485.04 449.755 484.607 449.067V452.24H483.331V444.185H484.607V445.206C485.04 444.518 485.75 444.141 486.671 444.141ZM486.404 449.045C487.458 449.045 488.202 448.246 488.202 447.114C488.202 446.016 487.458 445.206 486.404 445.206C485.35 445.206 484.607 446.005 484.607 447.114C484.607 448.257 485.35 449.045 486.404 449.045ZM492.58 444.13C493.324 444.13 494.111 444.352 494.644 444.729L494.178 445.672C493.657 445.35 493.002 445.151 492.481 445.151C491.981 445.151 491.615 445.317 491.615 445.739C491.615 446.826 494.755 446.238 494.744 448.379C494.744 449.588 493.668 450.132 492.481 450.132C491.615 450.132 490.694 449.844 490.106 449.311L490.561 448.401C491.072 448.856 491.893 449.134 492.536 449.134C493.08 449.134 493.501 448.945 493.501 448.501C493.501 447.292 490.395 447.969 490.406 445.839C490.406 444.64 491.449 444.13 492.58 444.13ZM501.386 444.185V450.088H500.11V448.934C499.711 449.755 498.968 450.121 498.003 450.132C496.649 450.132 495.839 449.267 495.839 447.858V444.185H497.115V447.503C497.115 448.39 497.636 448.934 498.491 448.934C499.511 448.912 500.11 448.124 500.11 447.092V444.185H501.386ZM510.975 444.141C512.329 444.141 513.139 445.006 513.139 446.415V450.088H511.863V446.77C511.863 445.872 511.33 445.328 510.465 445.328C509.455 445.361 508.845 446.138 508.845 447.17V450.088H507.569V446.77C507.569 445.872 507.048 445.328 506.183 445.328C505.162 445.361 504.541 446.138 504.541 447.17V450.088H503.276V444.185H504.541V445.328C504.951 444.496 505.706 444.141 506.682 444.141C507.736 444.141 508.457 444.663 508.734 445.561C509.111 444.574 509.899 444.141 510.975 444.141Z" fill="#6E7191"/>
<path opacity="0.2" d="M424.964 390.769C419.66 381.387 416.914 370.776 417.002 359.999C417.09 349.221 420.008 338.656 425.465 329.362C430.922 320.068 438.725 312.371 448.094 307.042C457.462 301.713 468.066 298.94 478.844 299.001C489.621 299.061 500.194 301.952 509.502 307.385C518.81 312.818 526.527 320.602 531.88 329.957C537.233 339.311 540.033 349.908 540 360.686C539.968 371.464 537.103 382.044 531.694 391.366" stroke="#E5D4C0" stroke-width="26.3055" stroke-linecap="round"/>
<path d="M424.878 390.619C417.055 376.692 414.958 360.267 419.031 344.821C423.104 329.374 433.026 316.119 446.699 307.859C460.372 299.6 476.723 296.984 492.29 300.566C507.857 304.148 521.42 313.647 530.108 327.051" stroke="url(#paint0_linear_1796_50196)" stroke-width="26.3055" stroke-linecap="round"/>
<path d="M461.552 363.181H457.603V350.8H454.74V347.627H461.552V363.181ZM470.519 347.472C473.603 347.472 475.822 349.069 475.822 351.532C475.822 353.218 474.579 354.971 472.893 356.702L469.742 360.053H476.288V363.181H464.661V360.629L470.208 354.749C471.074 353.84 471.695 352.797 471.695 352.087C471.695 351.199 471.051 350.667 469.942 350.667C468.677 350.667 467.124 351.421 465.704 352.642L464.217 349.801C466.17 348.337 468.3 347.472 470.519 347.472ZM482.07 347.583C484.733 347.583 486.397 349.38 486.397 352.264C486.397 355.171 484.733 356.968 482.07 356.968C479.408 356.968 477.721 355.171 477.721 352.264C477.721 349.38 479.408 347.583 482.07 347.583ZM480.983 363.181L492.077 347.627H495.672L484.578 363.181H480.983ZM482.07 349.624C480.894 349.624 480.184 350.622 480.184 352.264C480.184 353.906 480.894 354.905 482.07 354.905C483.246 354.905 483.956 353.906 483.956 352.264C483.956 350.622 483.246 349.624 482.07 349.624ZM494.718 353.862C497.381 353.862 499.045 355.659 499.045 358.544C499.045 361.45 497.381 363.27 494.718 363.27C492.055 363.27 490.369 361.45 490.369 358.544C490.369 355.659 492.055 353.862 494.718 353.862ZM494.718 355.903C493.542 355.903 492.832 356.902 492.832 358.544C492.832 360.208 493.542 361.206 494.718 361.206C495.894 361.206 496.604 360.208 496.604 358.544C496.604 356.902 495.894 355.903 494.718 355.903Z" fill="#3541B4"/>
<path d="M451.942 379.795H450.851V373.323H451.942V379.795ZM456.451 374.84C457.597 374.84 458.282 375.561 458.282 376.735V379.795H457.218V377.031C457.218 376.291 456.775 375.838 456.035 375.838C455.221 375.847 454.713 376.411 454.639 377.179V379.795H453.576V374.877H454.639V375.82C454.99 375.136 455.619 374.84 456.451 374.84ZM461.722 374.84C462.609 374.84 463.302 375.126 463.755 375.644L463.173 376.328C462.831 375.977 462.359 375.764 461.768 375.773C460.917 375.773 460.307 376.411 460.307 377.345C460.307 378.279 460.917 378.917 461.768 378.917C462.387 378.917 462.886 378.713 463.219 378.325L463.811 378.917C463.367 379.499 462.655 379.832 461.722 379.832C460.261 379.832 459.244 378.824 459.244 377.345C459.244 375.857 460.261 374.84 461.722 374.84ZM465.988 374.877V375.857C466.321 375.191 466.912 374.84 467.689 374.84V375.857C466.7 375.801 466.071 376.384 465.988 377.225V379.795H464.925V374.877H465.988ZM470.588 374.84C472.317 374.84 473.019 375.968 472.89 377.743H469.173C469.34 378.501 469.922 378.972 470.699 378.972C471.235 378.972 471.725 378.769 472.086 378.399L472.65 379C472.169 379.527 471.466 379.832 470.616 379.832C469.099 379.832 468.101 378.824 468.101 377.345C468.101 375.857 469.127 374.849 470.588 374.84ZM469.155 376.966H471.965C471.928 376.171 471.401 375.69 470.597 375.69C469.82 375.69 469.275 376.18 469.155 376.966ZM480.415 374.84C481.542 374.84 482.217 375.561 482.217 376.735V379.795H481.154V377.031C481.154 376.282 480.71 375.829 479.989 375.829C479.148 375.857 478.639 376.504 478.639 377.364V379.795H477.576V377.031C477.576 376.282 477.142 375.829 476.421 375.829C475.57 375.857 475.052 376.504 475.052 377.364V379.795H473.998V374.877H475.052V375.829C475.394 375.136 476.023 374.84 476.837 374.84C477.715 374.84 478.316 375.274 478.547 376.023C478.861 375.2 479.518 374.84 480.415 374.84ZM485.666 374.84C487.394 374.84 488.097 375.968 487.968 377.743H484.251C484.417 378.501 485 378.972 485.776 378.972C486.313 378.972 486.803 378.769 487.163 378.399L487.727 379C487.246 379.527 486.544 379.832 485.693 379.832C484.177 379.832 483.179 378.824 483.179 377.345C483.179 375.857 484.205 374.849 485.666 374.84ZM484.233 376.966H487.043C487.006 376.171 486.479 375.69 485.675 375.69C484.898 375.69 484.353 376.18 484.233 376.966ZM491.951 374.84C493.098 374.84 493.782 375.561 493.782 376.735V379.795H492.719V377.031C492.719 376.291 492.275 375.838 491.535 375.838C490.722 375.847 490.213 376.411 490.139 377.179V379.795H489.076V374.877H490.139V375.82C490.491 375.136 491.119 374.84 491.951 374.84ZM497.721 378.667L497.989 379.481C497.601 379.712 497.194 379.841 496.778 379.841C496.038 379.841 495.401 379.416 495.401 378.408V375.857H494.707V375.062H495.401V373.712H496.455V375.062H497.906V375.857H496.455V378.214C496.455 378.723 496.649 378.88 496.981 378.88C497.203 378.88 497.435 378.806 497.721 378.667ZM501.025 374.84C502.541 374.84 503.586 375.847 503.586 377.336C503.586 378.815 502.541 379.832 501.025 379.832C499.5 379.832 498.455 378.815 498.455 377.336C498.455 375.847 499.5 374.84 501.025 374.84ZM501.025 375.755C500.138 375.755 499.518 376.402 499.518 377.345C499.518 378.297 500.138 378.945 501.025 378.945C501.903 378.945 502.523 378.297 502.523 377.345C502.523 376.402 501.903 375.755 501.025 375.755Z" fill="#6D758F"/>
</g>
<g filter="url(#filter3_dd_1796_50196)">
<rect x="343" y="90" width="252" height="92" rx="20" fill="white"/>
<rect x="353" y="100" width="72" height="72" rx="36" fill="#F6F1EB" fill-opacity="0.94"/>
<path d="M383.9 124.875C382.581 124.879 381.316 125.404 380.383 126.338C379.449 127.271 378.923 128.536 378.92 129.855V141.145C378.923 142.464 379.449 143.729 380.383 144.662C381.316 145.596 382.581 146.121 383.9 146.125H394.857V124.875H383.9Z" fill="#3541B4"/>
<path d="M390.09 134.716C390.585 134.219 390.862 133.546 390.862 132.844C390.862 132.142 390.585 131.469 390.09 130.971C389.592 130.476 388.919 130.199 388.217 130.199C387.515 130.199 386.842 130.476 386.344 130.971C386.066 131.209 385.841 131.502 385.681 131.832C385.522 132.161 385.432 132.52 385.418 132.886C385.404 133.252 385.466 133.617 385.599 133.958C385.733 134.298 385.935 134.608 386.194 134.867C386.453 135.126 386.762 135.328 387.103 135.462C387.444 135.595 387.809 135.657 388.175 135.643C388.541 135.629 388.9 135.539 389.229 135.38C389.559 135.22 389.852 134.995 390.09 134.716ZM387.553 132.844C387.552 132.734 387.577 132.625 387.628 132.528C387.679 132.43 387.753 132.347 387.844 132.285C387.935 132.224 388.039 132.185 388.149 132.174C388.258 132.163 388.368 132.179 388.47 132.22C388.572 132.262 388.661 132.329 388.731 132.414C388.8 132.499 388.848 132.6 388.869 132.707C388.89 132.815 388.884 132.927 388.851 133.032C388.819 133.137 388.76 133.232 388.682 133.309C388.558 133.43 388.391 133.498 388.217 133.498C388.043 133.498 387.876 133.43 387.752 133.309C387.689 133.249 387.638 133.177 387.604 133.097C387.569 133.017 387.552 132.931 387.553 132.844Z" fill="#F8FAFF"/>
<path d="M384.325 139.405C384.268 139.524 384.235 139.653 384.229 139.785C384.222 139.917 384.243 140.049 384.289 140.173C384.334 140.297 384.405 140.411 384.496 140.507C384.586 140.603 384.696 140.68 384.817 140.733C384.936 140.788 385.065 140.82 385.197 140.825C385.329 140.831 385.46 140.81 385.583 140.764C385.707 140.719 385.82 140.649 385.917 140.559C386.013 140.469 386.091 140.361 386.145 140.241C386.333 139.842 386.624 139.499 386.988 139.25C387.352 139 387.776 138.852 388.217 138.82C388.658 138.848 389.084 138.993 389.451 139.241C389.817 139.488 390.111 139.829 390.302 140.228C390.378 140.404 390.504 140.553 390.665 140.657C390.826 140.761 391.014 140.815 391.205 140.812C391.348 140.813 391.489 140.782 391.617 140.72C391.738 140.667 391.847 140.59 391.938 140.494C392.029 140.397 392.099 140.284 392.145 140.16C392.191 140.036 392.211 139.904 392.205 139.772C392.199 139.64 392.166 139.51 392.108 139.391C391.76 138.646 391.212 138.012 390.525 137.56C389.838 137.107 389.039 136.854 388.217 136.828C387.393 136.855 386.593 137.11 385.906 137.565C385.219 138.02 384.672 138.657 384.325 139.405Z" fill="#F8FAFF"/>
<path d="M399.402 125.456C399.186 125.27 398.929 125.124 398.646 125.024C398.363 124.924 398.061 124.874 397.755 124.875H396.759V126.571V128.29C396.759 128.441 396.829 128.586 396.953 128.693C397.078 128.799 397.247 128.859 397.423 128.859H400.079V126.867C400.081 126.605 400.022 126.346 399.905 126.103C399.789 125.861 399.618 125.641 399.402 125.456Z" fill="#3541B4"/>
<path d="M399.402 145.543C399.186 145.728 398.929 145.875 398.646 145.975C398.363 146.075 398.061 146.125 397.755 146.124H396.759V144.428V142.709C396.759 142.558 396.829 142.413 396.953 142.306C397.078 142.199 397.247 142.139 397.423 142.139H400.079V144.132C400.081 144.394 400.022 144.653 399.905 144.896C399.789 145.138 399.618 145.358 399.402 145.543Z" fill="#3541B4"/>
<path d="M399.415 130.63H397.423C397.056 130.63 396.759 130.885 396.759 131.199V134.045C396.759 134.359 397.056 134.614 397.423 134.614H399.415C399.782 134.614 400.079 134.359 400.079 134.045V131.199C400.079 130.885 399.782 130.63 399.415 130.63Z" fill="#3541B4"/>
<path d="M399.415 136.385H397.423C397.056 136.385 396.759 136.639 396.759 136.954V139.8C396.759 140.114 397.056 140.369 397.423 140.369H399.415C399.782 140.369 400.079 140.114 400.079 139.8V136.954C400.079 136.639 399.782 136.385 399.415 136.385Z" fill="#3541B4"/>
<path d="M441.12 119.84C443.9 119.84 445.9 121.28 445.9 123.5C445.9 125.02 444.78 126.6 443.26 128.16L440.42 131.18H446.32V134H435.84V131.7L440.84 126.4C441.62 125.58 442.18 124.64 442.18 124C442.18 123.2 441.6 122.72 440.6 122.72C439.46 122.72 438.06 123.4 436.78 124.5L435.44 121.94C437.2 120.62 439.12 119.84 441.12 119.84ZM453.645 119.88C457.605 119.88 459.825 122.42 459.825 126.98C459.825 131.56 457.605 134.1 453.645 134.1C449.645 134.1 447.425 131.56 447.425 126.98C447.425 122.42 449.645 119.88 453.645 119.88ZM453.645 122.48C451.845 122.48 451.085 123.78 451.085 126.98C451.085 130.18 451.845 131.5 453.645 131.5C455.405 131.5 456.185 130.18 456.185 126.98C456.185 123.78 455.405 122.48 453.645 122.48ZM466.4 119.84C469.18 119.84 471.18 121.28 471.18 123.5C471.18 125.02 470.06 126.6 468.54 128.16L465.7 131.18H471.6V134H461.12V131.7L466.12 126.4C466.9 125.58 467.46 124.64 467.46 124C467.46 123.2 466.88 122.72 465.88 122.72C464.74 122.72 463.34 123.4 462.06 124.5L460.72 121.94C462.48 120.62 464.4 119.84 466.4 119.84Z" fill="#19213D"/>
<path d="M440.265 145.874C441.513 145.874 442.722 146.381 443.593 147.2L442.969 147.993C442.267 147.278 441.279 146.849 440.278 146.849C438.224 146.849 436.573 148.435 436.573 150.437C436.573 152.426 438.224 154.025 440.278 154.025C441.279 154.025 442.254 153.609 442.969 152.933L443.606 153.648C442.709 154.493 441.487 155.052 440.226 155.052C437.6 155.052 435.52 153.011 435.52 150.437C435.52 147.889 437.626 145.874 440.265 145.874ZM445.444 145.484C445.821 145.484 446.107 145.783 446.107 146.186C446.107 146.589 445.821 146.888 445.444 146.888C445.067 146.888 444.781 146.589 444.781 146.186C444.781 145.783 445.067 145.484 445.444 145.484ZM445.951 155H444.95V148.149H445.951V155ZM451.279 153.713L451.565 154.532C451.084 154.857 450.564 155.039 450.018 155.052C449.017 155.052 448.276 154.454 448.276 153.102V149.189H447.288V148.37H448.276V146.563H449.277V148.37L451.448 148.357V149.189H449.277V152.92C449.277 153.752 449.602 154.064 450.187 154.064C450.538 154.064 450.902 153.947 451.279 153.713ZM456.958 155V153.947C456.412 154.688 455.541 155.052 454.449 155.052C453.032 155.052 452.122 154.142 452.122 152.959C452.122 151.763 453.071 151.009 454.683 150.996H456.932V150.593C456.932 149.592 456.308 148.994 455.099 148.994C454.345 148.994 453.643 149.28 452.928 149.774L452.499 149.033C453.383 148.448 454.124 148.11 455.294 148.11C456.984 148.11 457.92 149.007 457.933 150.476L457.946 155H456.958ZM454.644 154.168C455.801 154.168 456.685 153.583 456.945 152.634V151.815H454.813C453.669 151.815 453.071 152.166 453.071 152.92C453.071 153.674 453.682 154.168 454.644 154.168ZM461.643 148.11C462.462 148.11 463.255 148.344 463.827 148.734L463.437 149.54C462.904 149.202 462.215 148.981 461.578 148.981C460.811 148.981 460.226 149.254 460.226 149.891C460.226 151.412 464.048 150.632 464.048 153.089C464.048 154.441 462.852 155.039 461.539 155.039C460.564 155.039 459.563 154.701 458.913 154.077L459.303 153.31C459.888 153.856 460.772 154.181 461.578 154.181C462.384 154.181 463.034 153.882 463.047 153.206C463.086 151.555 459.251 152.4 459.264 149.969C459.264 148.656 460.395 148.11 461.643 148.11ZM468.649 145.9H472.068C474.317 145.9 475.617 147.018 475.617 148.955C475.617 150.97 474.317 152.127 472.068 152.127H469.689V155H468.649V145.9ZM469.689 146.901V151.126H472.029C473.667 151.126 474.616 150.398 474.616 148.981C474.616 147.603 473.667 146.901 472.029 146.901H469.689ZM479.519 148.123C481.729 148.11 482.821 149.644 482.717 151.971H477.127C477.309 153.31 478.284 154.155 479.61 154.155C480.455 154.155 481.196 153.856 481.729 153.297L482.288 153.895C481.638 154.623 480.676 155.039 479.532 155.039C477.517 155.039 476.126 153.622 476.126 151.581C476.126 149.54 477.53 148.123 479.519 148.123ZM477.127 151.139H481.807C481.742 149.826 480.858 148.994 479.519 148.994C478.219 148.994 477.283 149.839 477.127 151.139ZM487.737 148.11C489.375 148.11 490.337 149.124 490.337 150.775V155H489.323V151.048C489.323 149.839 488.595 149.124 487.386 149.124C486.034 149.137 485.202 150.021 485.085 151.321V155H484.071V148.149H485.085V149.657C485.566 148.617 486.489 148.123 487.737 148.11ZM498.507 145.354V155H497.493V153.531C496.986 154.493 496.05 155.052 494.828 155.052C492.878 155.052 491.526 153.609 491.526 151.568C491.526 149.514 492.878 148.097 494.815 148.097C496.037 148.097 496.986 148.656 497.493 149.631V145.354H498.507ZM495.023 154.142C496.466 154.142 497.493 153.076 497.493 151.594C497.493 150.099 496.466 149.02 495.023 149.02C493.567 149.02 492.54 150.099 492.54 151.594C492.54 153.076 493.567 154.142 495.023 154.142ZM501.145 145.484C501.522 145.484 501.808 145.783 501.808 146.186C501.808 146.589 501.522 146.888 501.145 146.888C500.768 146.888 500.482 146.589 500.482 146.186C500.482 145.783 500.768 145.484 501.145 145.484ZM501.652 155H500.651V148.149H501.652V155ZM506.433 148.123C508.643 148.11 509.735 149.644 509.631 151.971H504.041C504.223 153.31 505.198 154.155 506.524 154.155C507.369 154.155 508.11 153.856 508.643 153.297L509.202 153.895C508.552 154.623 507.59 155.039 506.446 155.039C504.431 155.039 503.04 153.622 503.04 151.581C503.04 149.54 504.444 148.123 506.433 148.123ZM504.041 151.139H508.721C508.656 149.826 507.772 148.994 506.433 148.994C505.133 148.994 504.197 149.839 504.041 151.139ZM514.651 148.11C516.289 148.11 517.251 149.124 517.251 150.775V155H516.237V151.048C516.237 149.839 515.509 149.124 514.3 149.124C512.948 149.137 512.116 150.021 511.999 151.321V155H510.985V148.149H511.999V149.657C512.48 148.617 513.403 148.123 514.651 148.11ZM522.379 153.713L522.665 154.532C522.184 154.857 521.664 155.039 521.118 155.052C520.117 155.052 519.376 154.454 519.376 153.102V149.189H518.388V148.37H519.376V146.563H520.377V148.37L522.548 148.357V149.189H520.377V152.92C520.377 153.752 520.702 154.064 521.287 154.064C521.638 154.064 522.002 153.947 522.379 153.713ZM526.409 148.123C528.619 148.11 529.711 149.644 529.607 151.971H524.017C524.199 153.31 525.174 154.155 526.5 154.155C527.345 154.155 528.086 153.856 528.619 153.297L529.178 153.895C528.528 154.623 527.566 155.039 526.422 155.039C524.407 155.039 523.016 153.622 523.016 151.581C523.016 149.54 524.42 148.123 526.409 148.123ZM524.017 151.139H528.697C528.632 149.826 527.748 148.994 526.409 148.994C525.109 148.994 524.173 149.839 524.017 151.139ZM532.781 148.11C533.6 148.11 534.393 148.344 534.965 148.734L534.575 149.54C534.042 149.202 533.353 148.981 532.716 148.981C531.949 148.981 531.364 149.254 531.364 149.891C531.364 151.412 535.186 150.632 535.186 153.089C535.186 154.441 533.99 155.039 532.677 155.039C531.702 155.039 530.701 154.701 530.051 154.077L530.441 153.31C531.026 153.856 531.91 154.181 532.716 154.181C533.522 154.181 534.172 153.882 534.185 153.206C534.224 151.555 530.389 152.4 530.402 149.969C530.402 148.656 531.533 148.11 532.781 148.11Z" fill="#353E5C"/>
</g>
<defs>
<filter id="filter0_d_1796_50196" x="62.1" y="117.1" width="499.8" height="258.736" filterUnits="userSpaceOnUse" color-interpolation-filters="sRGB">
<feFlood flood-opacity="0" result="BackgroundImageFix"/>
<feColorMatrix in="SourceAlpha" type="matrix" values="0 0 0 0 0 0 0 0 0 0 0 0 0 0 0 0 0 0 127 0" result="hardAlpha"/>
<feOffset dy="4"/>
<feGaussianBlur stdDeviation="13.45"/>
<feComposite in2="hardAlpha" operator="out"/>
<feColorMatrix type="matrix" values="0 0 0 0 0 0 0 0 0 0 0 0 0 0 0 0 0 0 0.1 0"/>
<feBlend mode="normal" in2="BackgroundImageFix" result="effect1_dropShadow_1796_50196"/>
<feBlend mode="normal" in="SourceGraphic" in2="effect1_dropShadow_1796_50196" result="shape"/>
</filter>
<filter id="filter1_d_1796_50196" x="123" y="340" width="270" height="132" filterUnits="userSpaceOnUse" color-interpolation-filters="sRGB">
<feFlood flood-opacity="0" result="BackgroundImageFix"/>
<feColorMatrix in="SourceAlpha" type="matrix" values="0 0 0 0 0 0 0 0 0 0 0 0 0 0 0 0 0 0 127 0" result="hardAlpha"/>
<feOffset dy="4"/>
<feGaussianBlur stdDeviation="10"/>
<feComposite in2="hardAlpha" operator="out"/>
<feColorMatrix type="matrix" values="0 0 0 0 0 0 0 0 0 0 0 0 0 0 0 0 0 0 0.1 0"/>
<feBlend mode="normal" in2="BackgroundImageFix" result="effect1_dropShadow_1796_50196"/>
<feBlend mode="normal" in="SourceGraphic" in2="effect1_dropShadow_1796_50196" result="shape"/>
</filter>
<filter id="filter2_dd_1796_50196" x="295.4" y="181.4" width="317.9" height="336.9" filterUnits="userSpaceOnUse" color-interpolation-filters="sRGB">
<feFlood flood-opacity="0" result="BackgroundImageFix"/>
<feColorMatrix in="SourceAlpha" type="matrix" values="0 0 0 0 0 0 0 0 0 0 0 0 0 0 0 0 0 0 127 0" result="hardAlpha"/>
<feOffset dx="-28" dy="-24"/>
<feGaussianBlur stdDeviation="24.8"/>
<feComposite in2="hardAlpha" operator="out"/>
<feColorMatrix type="matrix" values="0 0 0 0 0 0 0 0 0 0 0 0 0 0 0 0 0 0 0.1 0"/>
<feBlend mode="normal" in2="BackgroundImageFix" result="effect1_dropShadow_1796_50196"/>
<feColorMatrix in="SourceAlpha" type="matrix" values="0 0 0 0 0 0 0 0 0 0 0 0 0 0 0 0 0 0 127 0" result="hardAlpha"/>
<feOffset dx="6" dy="18"/>
<feGaussianBlur stdDeviation="11.65"/>
<feComposite in2="hardAlpha" operator="out"/>
<feColorMatrix type="matrix" values="0 0 0 0 0 0 0 0 0 0 0 0 0 0 0 0 0 0 0.06 0"/>
<feBlend mode="normal" in2="effect1_dropShadow_1796_50196" result="effect2_dropShadow_1796_50196"/>
<feBlend mode="normal" in="SourceGraphic" in2="effect2_dropShadow_1796_50196" result="shape"/>
</filter>
<filter id="filter3_dd_1796_50196" x="290.5" y="60.4" width="332.1" height="179.1" filterUnits="userSpaceOnUse" color-interpolation-filters="sRGB">
<feFlood flood-opacity="0" result="BackgroundImageFix"/>
<feColorMatrix in="SourceAlpha" type="matrix" values="0 0 0 0 0 0 0 0 0 0 0 0 0 0 0 0 0 0 127 0" result="hardAlpha"/>
<feOffset dx="-13" dy="18"/>
<feGaussianBlur stdDeviation="19.75"/>
<feComposite in2="hardAlpha" operator="out"/>
<feColorMatrix type="matrix" values="0 0 0 0 0 0 0 0 0 0 0 0 0 0 0 0 0 0 0.1 0"/>
<feBlend mode="normal" in2="BackgroundImageFix" result="effect1_dropShadow_1796_50196"/>
<feColorMatrix in="SourceAlpha" type="matrix" values="0 0 0 0 0 0 0 0 0 0 0 0 0 0 0 0 0 0 127 0" result="hardAlpha"/>
<feOffset dx="-1" dy="-1"/>
<feGaussianBlur stdDeviation="14.3"/>
<feComposite in2="hardAlpha" operator="out"/>
<feColorMatrix type="matrix" values="0 0 0 0 0 0 0 0 0 0 0 0 0 0 0 0 0 0 0.1 0"/>
<feBlend mode="normal" in2="effect1_dropShadow_1796_50196" result="effect2_dropShadow_1796_50196"/>
<feBlend mode="normal" in="SourceGraphic" in2="effect2_dropShadow_1796_50196" result="shape"/>
</filter>
<linearGradient id="paint0_linear_1796_50196" x1="436.691" y1="338.67" x2="487.199" y2="286.356" gradientUnits="userSpaceOnUse">
<stop stop-color="#3541B4"/>
<stop offset="1" stop-color="#0CADBB"/>
</linearGradient>
</defs>
</svg>
