<svg width="22" height="23" viewBox="0 0 22 23" fill="none" xmlns="http://www.w3.org/2000/svg">
<path d="M6.07227 2.40094C4.91082 2.40402 3.79783 2.86677 2.97656 3.68804C2.15529 4.50931 1.69254 5.62231 1.68945 6.78375L1.68945 16.7181C1.69254 17.8796 2.15529 18.9926 2.97656 19.8138C3.79783 20.6351 4.91082 21.0979 6.07227 21.1009H15.7145V2.40094H6.07227Z" fill="#3541B4"/>
<path d="M11.5192 11.0613C11.9545 10.6233 12.1989 10.0309 12.1989 9.41336C12.1989 8.79582 11.9545 8.20338 11.5192 7.76542C11.0812 7.33006 10.4888 7.08569 9.87125 7.08569C9.25371 7.08569 8.66127 7.33006 8.22331 7.76542C7.97861 7.97497 7.77988 8.23284 7.63957 8.52284C7.49927 8.81284 7.42043 9.12872 7.40799 9.45063C7.39556 9.77255 7.4498 10.0936 7.56732 10.3935C7.68483 10.6935 7.86309 10.9659 8.09089 11.1937C8.31869 11.4215 8.59112 11.5998 8.89108 11.7173C9.19104 11.8348 9.51205 11.889 9.83397 11.8766C10.1559 11.8642 10.4718 11.7853 10.7618 11.645C11.0518 11.5047 11.3096 11.306 11.5192 11.0613ZM9.28687 9.41336C9.28551 9.31668 9.30817 9.22117 9.3528 9.13539C9.39744 9.04962 9.46266 8.97626 9.54262 8.9219C9.62258 8.86753 9.71478 8.83385 9.81096 8.82389C9.90713 8.81392 10.0043 8.82798 10.0937 8.86479C10.1831 8.90161 10.262 8.96003 10.3232 9.03483C10.3845 9.10963 10.4263 9.19847 10.4448 9.29337C10.4633 9.38828 10.4579 9.48629 10.4292 9.57863C10.4005 9.67096 10.3494 9.75473 10.2803 9.82242C10.1711 9.92949 10.0242 9.98947 9.87125 9.98947C9.71828 9.98947 9.57142 9.92949 9.46218 9.82242C9.40604 9.77024 9.36144 9.70689 9.33124 9.63644C9.30105 9.56599 9.28594 9.49 9.28687 9.41336Z" fill="white"/>
<path d="M6.4455 15.1871C6.39488 15.2918 6.36593 15.4057 6.36036 15.5219C6.3548 15.6381 6.37274 15.7543 6.41312 15.8634C6.45349 15.9725 6.51547 16.0724 6.59534 16.157C6.6752 16.2416 6.77132 16.3092 6.87794 16.3558C6.98297 16.4048 7.09668 16.4324 7.21247 16.4372C7.32827 16.4419 7.44385 16.4237 7.55254 16.3835C7.66123 16.3432 7.76087 16.2819 7.84569 16.2029C7.93051 16.1239 7.99882 16.0289 8.04669 15.9234C8.21197 15.5716 8.46804 15.2703 8.78852 15.0505C9.109 14.8307 9.48229 14.7003 9.86994 14.6728C10.2584 14.6972 10.6333 14.8249 10.9559 15.0427C11.2785 15.2605 11.537 15.5605 11.7049 15.9117C11.7718 16.0663 11.883 16.1976 12.0244 16.2891C12.1658 16.3806 12.3312 16.4282 12.4996 16.4259C12.6251 16.4268 12.749 16.3988 12.8619 16.3441C12.9686 16.2975 13.0647 16.2299 13.1445 16.1453C13.2244 16.0607 13.2864 15.9608 13.3268 15.8517C13.3671 15.7426 13.3851 15.6265 13.3795 15.5102C13.3739 15.394 13.345 15.2801 13.2944 15.1754C12.9879 14.5196 12.5056 13.9616 11.9011 13.5634C11.2965 13.1652 10.5935 12.9424 9.86994 12.9197C9.14515 12.9434 8.4412 13.168 7.83656 13.5683C7.23191 13.9687 6.75033 14.5291 6.4455 15.1871Z" fill="white"/>
<path d="M19.7125 2.91187C19.5224 2.74879 19.2964 2.61966 19.0476 2.53196C18.7989 2.44427 18.5323 2.39974 18.2633 2.40096H17.3867V3.89361V5.4063C17.3867 5.53914 17.4483 5.66655 17.5579 5.76048C17.6675 5.85442 17.8161 5.90719 17.9711 5.90719H20.3086V4.15408C20.31 3.92352 20.2581 3.69502 20.1558 3.48179C20.0534 3.26856 19.9028 3.07485 19.7125 2.91187Z" fill="#3541B4"/>
<path d="M19.7125 20.5889C19.5224 20.752 19.2964 20.8811 19.0476 20.9688C18.7989 21.0565 18.5323 21.101 18.2633 21.0998H17.3867V19.6071V18.0945C17.3867 17.9616 17.4483 17.8342 17.5579 17.7403C17.6675 17.6463 17.8161 17.5936 17.9711 17.5936H20.3086V19.3467C20.31 19.5772 20.2581 19.8057 20.1558 20.019C20.0534 20.2322 19.9028 20.4259 19.7125 20.5889Z" fill="#3541B4"/>
<path d="M19.7242 7.46515H17.9711C17.6484 7.46515 17.3867 7.68941 17.3867 7.96604V10.4705C17.3867 10.7471 17.6484 10.9714 17.9711 10.9714H19.7242C20.047 10.9714 20.3086 10.7471 20.3086 10.4705V7.96604C20.3086 7.68941 20.047 7.46515 19.7242 7.46515Z" fill="#3541B4"/>
<path d="M19.7242 12.5294H17.9711C17.6484 12.5294 17.3867 12.7536 17.3867 13.0303V15.5347C17.3867 15.8113 17.6484 16.0356 17.9711 16.0356H19.7242C20.047 16.0356 20.3086 15.8113 20.3086 15.5347V13.0303C20.3086 12.7536 20.047 12.5294 19.7242 12.5294Z" fill="#3541B4"/>
</svg>
