<svg width="20" height="21" viewBox="0 0 20 21" fill="none" xmlns="http://www.w3.org/2000/svg">
<path d="M7.7482 3.1837C8.99183 1.94007 11.0082 1.94007 12.2518 3.1837L17.5673 8.49918C18.8109 9.74281 18.8109 11.7591 17.5673 13.0028L12.2518 18.3183C11.0082 19.5619 8.99184 19.5619 7.7482 18.3183L2.43273 13.0028C1.18909 11.7591 1.18909 9.74281 2.43272 8.49918L7.7482 3.1837Z" fill="#0CADBB"/>
<path d="M9.99535 13.2722C9.55567 13.2722 9.19922 13.6286 9.19922 14.0683C9.19922 14.508 9.55567 14.8644 9.99535 14.8644V13.2722ZM10.006 14.8644C10.4456 14.8644 10.8021 14.508 10.8021 14.0683C10.8021 13.6286 10.4456 13.2722 10.006 13.2722V14.8644ZM9.99535 14.8644H10.006V13.2722H9.99535V14.8644Z" fill="white"/>
<path fill-rule="evenodd" clip-rule="evenodd" d="M9.99535 6.63779C10.435 6.63779 10.7915 6.99423 10.7915 7.43392V11.1492C10.7915 11.5889 10.435 11.9453 9.99535 11.9453C9.55566 11.9453 9.19922 11.5889 9.19922 11.1492V7.43392C9.19922 6.99423 9.55566 6.63779 9.99535 6.63779Z" fill="white"/>
</svg>
