<svg width="147" height="73" viewBox="0 0 147 73" fill="none" xmlns="http://www.w3.org/2000/svg">
<path d="M89.2456 23.1064H85.1706V45.897C88.874 46.0245 92.5618 46.2113 96.2346 46.4562V42.4409C93.9113 42.2859 91.5818 42.1546 89.2456 42.0458V23.1064ZM121.631 23.1088H117.154L114.204 29.948L111.553 23.1088H107.143L111.882 35.3295L106.709 47.3184C108.14 47.458 109.567 47.6069 110.993 47.7642L114.001 40.7935L116.98 48.4777C118.532 48.6772 120.079 48.8854 121.624 49.1059L121.631 49.1033L116.322 35.412L121.631 23.1088ZM71.1822 45.6979L75.2574 45.697V36.4264H80.7816V32.4111H75.2574V27.1604H82.5584V23.109H71.1822V45.6979ZM55.9646 27.1601H60.2296V45.9366C61.5857 45.8854 62.9445 45.8432 64.3047 45.8076V27.1601H68.5696V23.1088H55.9646V27.1601ZM42.0326 47.1036C45.7886 46.7623 49.5618 46.481 53.3522 46.2627V42.247C50.9304 42.3869 48.5155 42.5527 46.1077 42.742V36.663C47.6876 36.6473 49.768 36.5991 51.611 36.622V32.6064C50.1386 32.6028 47.7721 32.6269 46.1077 32.6482V27.1604H53.3522V23.109H42.0326V47.1036ZM34.0389 37.8209L28.7313 23.1088H24.8584V49.1064C26.2142 48.9134 27.5725 48.7286 28.9335 48.5514V34.4139L33.6528 47.9709C35.1371 47.7988 36.6241 47.6357 38.114 47.4825V23.1088H34.0389V37.8209ZM99.5942 46.6979C100.955 46.802 102.313 46.9137 103.67 47.0344V23.1088H99.5942V46.6979Z" fill="white"/>
</svg>
