<svg width="65" height="65" viewBox="0 0 65 65" fill="none" xmlns="http://www.w3.org/2000/svg">
<rect x="-0.000244141" width="65" height="65" rx="32.5" fill="#3541B4" fill-opacity="0.15"/>
<rect x="8" y="8" width="50" height="50" rx="25" fill="#3541B4" fill-opacity="0.15"/>
<rect x="11.9998" y="12.0002" width="42" height="42" rx="21" fill="#3541B4"/>
<path d="M28.75 36.25L36.25 28.75M29.327 29.3222L29.3122 29.3073M35.6921 35.7528L35.6774 35.7379M29.975 24.2112L27.9564 23.7689C27.6338 23.6983 27.3106 23.8849 27.2105 24.1996L26.5843 26.1689C26.5214 26.3665 26.3665 26.5214 26.1689 26.5843L24.1996 27.2105C23.8849 27.3106 23.6983 27.6338 23.7689 27.9564L24.2112 29.975C24.2556 30.1776 24.199 30.3891 24.0592 30.5424L22.6669 32.0694C22.4444 32.3134 22.4444 32.6866 22.6669 32.9306L24.0592 34.4576C24.199 34.6109 24.2556 34.8224 24.2112 35.025L23.7689 37.0436C23.6983 37.3662 23.8849 37.6894 24.1996 37.7895L26.1689 38.4157C26.3665 38.4786 26.5214 38.6335 26.5843 38.8311L27.2105 40.8004C27.3106 41.1151 27.6338 41.3017 27.9564 41.2311L29.975 40.7887C30.1776 40.7444 30.3891 40.801 30.5424 40.9408L32.0694 42.3331C32.3134 42.5556 32.6866 42.5556 32.9306 42.3331L34.4576 40.9408C34.6109 40.801 34.8224 40.7444 35.025 40.7887L37.0436 41.2311C37.3662 41.3017 37.6894 41.1151 37.7895 40.8004L38.4157 38.8311C38.4786 38.6335 38.6335 38.4786 38.8311 38.4157L40.8004 37.7895C41.1151 37.6894 41.3017 37.3662 41.2311 37.0436L40.7887 35.025C40.7444 34.8224 40.801 34.6109 40.9408 34.4576L42.3331 32.9306C42.5556 32.6866 42.5556 32.3134 42.3331 32.0694L40.9408 30.5424C40.801 30.3891 40.7444 30.1776 40.7887 29.975L41.2311 27.9564C41.3017 27.6338 41.1151 27.3106 40.8004 27.2105L38.8311 26.5843C38.6335 26.5214 38.4786 26.3665 38.4157 26.1689L37.7895 24.1996C37.6894 23.8849 37.3662 23.6983 37.0436 23.7689L35.025 24.2112C34.8224 24.2556 34.6109 24.199 34.4576 24.0592L32.9306 22.6669C32.6866 22.4444 32.3134 22.4444 32.0694 22.6669L30.5424 24.0592C30.3891 24.199 30.1776 24.2556 29.975 24.2112Z" stroke="white" stroke-width="1.8" stroke-linecap="round"/>
</svg>
