<svg xmlns="http://www.w3.org/2000/svg" width="18" height="18" viewBox="0 0 18 18" fill="none">
<path d="M4.52148 0.5C3.46562 0.502804 2.45381 0.923486 1.7072 1.67009C0.960595 2.4167 0.539914 3.42852 0.537109 4.48438L0.537109 13.5156C0.539914 14.5715 0.960595 15.5833 1.7072 16.3299C2.45381 17.0765 3.46562 17.4972 4.52148 17.5H13.2871V0.5H4.52148Z" fill="#3541B4"/>
<path d="M9.47341 8.3731C9.86919 7.97495 10.0913 7.43637 10.0913 6.87497C10.0913 6.31358 9.86919 5.77499 9.47341 5.37685C9.07526 4.98106 8.53668 4.75891 7.97528 4.75891C7.41389 4.75891 6.8753 4.98106 6.47716 5.37685C6.25471 5.56735 6.07404 5.80177 5.94649 6.06541C5.81894 6.32905 5.74726 6.6162 5.73596 6.90886C5.72465 7.20151 5.77397 7.49334 5.8808 7.76603C5.98763 8.03872 6.14968 8.28639 6.35677 8.49348C6.56386 8.70057 6.81153 8.86262 7.08422 8.96945C7.35691 9.07628 7.64874 9.1256 7.94139 9.11429C8.23405 9.10299 8.5212 9.03131 8.78484 8.90376C9.04848 8.77621 9.28291 8.59554 9.47341 8.3731ZM7.44403 6.87497C7.4428 6.78708 7.46339 6.70025 7.50397 6.62227C7.54454 6.5443 7.60384 6.47761 7.67653 6.42819C7.74922 6.37876 7.83304 6.34815 7.92047 6.33909C8.00791 6.33003 8.09622 6.3428 8.1775 6.37627C8.25878 6.40974 8.33049 6.46286 8.38619 6.53086C8.4419 6.59885 8.47986 6.67961 8.49667 6.76589C8.51348 6.85217 8.50862 6.94127 8.48253 7.02521C8.45644 7.10915 8.40992 7.18531 8.34716 7.24685C8.24785 7.34418 8.11434 7.39871 7.97528 7.39871C7.83622 7.39871 7.70271 7.34418 7.60341 7.24685C7.55237 7.19941 7.51182 7.14182 7.48437 7.07777C7.45692 7.01373 7.44318 6.94464 7.44403 6.87497Z" fill="white"/>
<path d="M4.8615 12.1237C4.81548 12.219 4.78916 12.3225 4.7841 12.4282C4.77904 12.5338 4.79536 12.6394 4.83206 12.7386C4.86876 12.8378 4.92511 12.9286 4.99771 13.0055C5.07032 13.0824 5.1577 13.1439 5.25462 13.1862C5.35011 13.2308 5.45348 13.2559 5.55874 13.2602C5.66401 13.2645 5.76909 13.2479 5.8679 13.2114C5.96671 13.1748 6.05729 13.119 6.1344 13.0472C6.21151 12.9754 6.27361 12.8891 6.31712 12.7931C6.46738 12.4734 6.70017 12.1995 6.99151 11.9996C7.28286 11.7998 7.62222 11.6813 7.97462 11.6562C8.32777 11.6784 8.66859 11.7945 8.96185 11.9925C9.25511 12.1905 9.49017 12.4632 9.64275 12.7825C9.70357 12.923 9.80464 13.0424 9.93322 13.1256C10.0618 13.2088 10.2121 13.2521 10.3652 13.25C10.4793 13.2508 10.592 13.2253 10.6946 13.1756C10.7915 13.1333 10.8789 13.0718 10.9515 12.9949C11.0241 12.918 11.0805 12.8272 11.1172 12.728C11.1539 12.6288 11.1702 12.5232 11.1651 12.4176C11.1601 12.3119 11.1338 12.2084 11.0877 12.1131C10.8091 11.5169 10.3707 11.0097 9.82111 10.6477C9.27154 10.2857 8.63238 10.0831 7.97462 10.0625C7.31573 10.0841 6.67577 10.2882 6.1261 10.6522C5.57642 11.0161 5.13862 11.5256 4.8615 12.1237Z" fill="white"/>
<path d="M16.923 0.964483C16.7501 0.816228 16.5447 0.698839 16.3185 0.619113C16.0924 0.539387 15.85 0.498909 15.6055 0.500022H14.8086V1.85698V3.23215C14.8086 3.35291 14.8646 3.46873 14.9642 3.55413C15.0638 3.63953 15.1989 3.6875 15.3398 3.6875H17.4648V2.09376C17.4661 1.88417 17.4189 1.67643 17.3259 1.48259C17.2329 1.28875 17.0959 1.11264 16.923 0.964483Z" fill="#3541B4"/>
<path d="M16.923 17.0345C16.7501 17.1828 16.5447 17.3002 16.3185 17.3799C16.0924 17.4596 15.85 17.5001 15.6055 17.499H14.8086V16.142V14.7669C14.8086 14.6461 14.8646 14.5303 14.9642 14.4449C15.0638 14.3595 15.1989 14.3115 15.3398 14.3115H17.4648V15.9053C17.4661 16.1149 17.4189 16.3226 17.3259 16.5164C17.2329 16.7103 17.0959 16.8864 16.923 17.0345Z" fill="#3541B4"/>
<path d="M16.9336 5.10376H15.3398C15.0464 5.10376 14.8086 5.30763 14.8086 5.55912V7.8359C14.8086 8.08739 15.0464 8.29126 15.3398 8.29126H16.9336C17.227 8.29126 17.4648 8.08739 17.4648 7.8359V5.55912C17.4648 5.30763 17.227 5.10376 16.9336 5.10376Z" fill="#3541B4"/>
<path d="M16.9336 9.70764H15.3398C15.0464 9.70764 14.8086 9.91151 14.8086 10.163V12.4398C14.8086 12.6913 15.0464 12.8951 15.3398 12.8951H16.9336C17.227 12.8951 17.4648 12.6913 17.4648 12.4398V10.163C17.4648 9.91151 17.227 9.70764 16.9336 9.70764Z" fill="#3541B4"/>
</svg>