<svg xmlns="http://www.w3.org/2000/svg" width="47" height="47" viewBox="0 0 47 47" fill="none">
  <path d="M3.91675 43.084C3.91675 38.9289 5.56734 34.944 8.50541 32.006C11.4435 29.0679 15.4284 27.4173 19.5834 27.4173C23.7385 27.4173 27.7234 29.0679 30.6614 32.006C33.5995 34.944 35.2501 38.9289 35.2501 43.084H3.91675ZM19.5834 25.459C13.0915 25.459 7.83341 20.2009 7.83341 13.709C7.83341 7.21711 13.0915 1.95898 19.5834 1.95898C26.0753 1.95898 31.3334 7.21711 31.3334 13.709C31.3334 20.2009 26.0753 25.459 19.5834 25.459ZM34.0026 29.8319C36.9982 30.6019 39.6745 32.2972 41.6506 34.6765C43.6266 37.0559 44.8017 39.998 45.0085 43.084H39.1667C39.1667 37.9727 37.2084 33.3197 34.0026 29.8319ZM30.0409 25.3748C31.682 23.907 32.9944 22.1089 33.8921 20.0985C34.7898 18.0881 35.2526 15.9107 35.2501 13.709C35.2542 11.0329 34.5697 8.40067 33.2624 6.06561C35.4804 6.5113 37.4757 7.71134 38.9091 9.46174C40.3425 11.2121 41.1255 13.4049 41.1251 15.6673C41.1256 17.0626 40.8279 18.4418 40.2519 19.7126C39.6759 20.9834 38.8349 22.1164 37.7853 23.0356C36.7356 23.9549 35.5017 24.6391 34.166 25.0426C32.8304 25.446 31.4239 25.5593 30.0409 25.3748V25.3748Z" fill="#C2C6E9"/>
</svg>