<svg width="65" height="65" viewBox="0 0 65 65" fill="none" xmlns="http://www.w3.org/2000/svg">
<rect x="-0.000244141" width="65" height="65" rx="32.5" fill="#3541B4" fill-opacity="0.15"/>
<rect x="8" y="8" width="50" height="50" rx="25" fill="#3541B4" fill-opacity="0.15"/>
<rect x="11.9998" y="12.0002" width="42" height="42" rx="21" fill="#3541B4"/>
<path d="M24.3057 38.7764C24.6796 40.5033 25.6882 42.0325 27.1373 43.0695C28.5864 44.1065 30.3733 44.5777 32.1537 44.3924C33.934 44.2071 35.5819 43.3783 36.7796 42.0659C37.9773 40.7535 38.6402 39.0502 38.6404 37.2844V34.414C40.3078 34.1125 41.8156 33.2445 42.9018 31.9608C43.9881 30.6771 44.5843 29.0587 44.5869 27.3866V23.7208C44.5859 23.1864 44.3702 22.6741 43.9871 22.2962C43.604 21.9183 43.0846 21.7056 42.5428 21.7046H39.5695V24.2707H41.9853V27.3866C41.9853 28.6019 41.4958 29.7675 40.6246 30.6268C39.7534 31.4861 38.5717 31.9689 37.3396 31.9689C36.1075 31.9689 34.9259 31.4861 34.0546 30.6268C33.1834 29.7675 32.6939 28.6019 32.6939 27.3866V24.2707H35.1097V21.7046H32.1364C31.5946 21.7056 31.0753 21.9183 30.6921 22.2962C30.309 22.6741 30.0933 23.1864 30.0923 23.7208V27.3866C30.095 29.0587 30.6911 30.6771 31.7774 31.9608C32.8637 33.2445 34.3714 34.1125 36.0388 34.414V37.2844C36.0396 38.38 35.6423 39.4397 34.9189 40.2712C34.1956 41.1028 33.1942 41.6512 32.0962 41.817C30.9981 41.9828 29.8762 41.755 28.9338 41.175C27.9914 40.595 27.2909 39.7011 26.9593 38.6554C27.9103 38.3 28.7017 37.6217 29.1912 36.7425C29.6807 35.8632 29.8364 34.8406 29.6302 33.8584C29.424 32.8761 28.8694 31.9986 28.0661 31.3834C27.2629 30.7682 26.2635 30.4557 25.2476 30.502C24.2317 30.5483 23.2658 30.9504 22.5235 31.636C21.7812 32.3217 21.3111 33.246 21.1976 34.2428C21.0841 35.2396 21.3347 36.2437 21.9044 37.0747C22.4741 37.9056 23.3255 38.509 24.3057 38.7764ZM25.4467 33.0687C25.7774 33.0687 26.1008 33.1654 26.3758 33.3467C26.6509 33.5279 26.8652 33.7856 26.9918 34.087C27.1184 34.3884 27.1515 34.7201 27.087 35.0401C27.0224 35.3601 26.8632 35.6541 26.6293 35.8848C26.3954 36.1155 26.0974 36.2726 25.7729 36.3362C25.4485 36.3999 25.1122 36.3672 24.8066 36.2424C24.501 36.1175 24.2398 35.9061 24.0561 35.6348C23.8723 35.3635 23.7742 35.0446 23.7742 34.7183C23.7742 34.2808 23.9504 33.8612 24.2641 33.5518C24.5777 33.2425 25.0031 33.0687 25.4467 33.0687Z" fill="white"/>
</svg>
