<svg xmlns="http://www.w3.org/2000/svg" width="16" height="15" viewBox="0 0 16 15" fill="none">
<g clip-path="url(#clip0_6248_22539)">
<path d="M14.8663 5.80593C14.8595 5.96766 14.774 6.15236 14.6081 6.29823C13.9439 6.88169 13.2793 7.46461 12.6144 8.04699C12.304 8.31939 11.9931 8.59137 11.6818 8.86293C11.6373 8.90158 11.626 8.93586 11.6397 8.99585C11.8787 10.0401 12.1157 11.0848 12.3508 12.13C12.3984 12.34 12.4452 12.5504 12.4966 12.7598C12.5716 13.0697 12.4759 13.376 12.2343 13.5494C11.9684 13.7402 11.6862 13.7526 11.4052 13.5859C10.5102 13.0539 9.61632 12.5197 8.72362 11.9834C8.51521 11.8588 8.30425 11.7372 8.09931 11.6081C8.03075 11.5649 7.98098 11.5646 7.9106 11.6069C6.82498 12.2585 5.737 12.9062 4.65266 13.5576C4.42238 13.6959 4.18717 13.7478 3.93263 13.6433C3.59586 13.5051 3.41991 13.151 3.5036 12.7831C3.74027 11.7416 3.9773 10.7001 4.2147 9.65863C4.26466 9.43983 4.30933 9.21939 4.36348 9.00223C4.37916 8.93951 4.36822 8.90249 4.32063 8.8611C3.91269 8.50628 3.50579 8.15025 3.09991 7.793C2.53121 7.29377 1.96033 6.798 1.39491 6.29513C1.16408 6.09018 1.07656 5.82854 1.17119 5.52933C1.26582 5.23012 1.47733 5.04997 1.79276 5.01752C2.3518 4.96026 2.91174 4.91231 3.47132 4.86108C4.02489 4.81039 4.57845 4.76006 5.13202 4.7101C5.31654 4.69351 5.50106 4.67491 5.68576 4.66087C5.7452 4.6565 5.77693 4.63042 5.79918 4.57627C6.30059 3.39803 6.80286 2.22028 7.30598 1.04301C7.44492 0.717549 7.69307 0.535762 8.00851 0.543967C8.32395 0.552172 8.5515 0.706244 8.67658 0.995972C9.017 1.7842 9.35303 2.57425 9.69053 3.36394C9.86229 3.76507 10.0344 4.1673 10.2033 4.57025C10.2291 4.63225 10.2662 4.65632 10.3309 4.66142C10.7758 4.6991 11.2206 4.73861 11.6652 4.77994C12.3126 4.83877 12.96 4.89809 13.6072 4.95789C13.8129 4.97613 14.0188 4.99436 14.2239 5.01733C14.5969 5.06146 14.8692 5.3727 14.8663 5.80593Z" fill="#FFD835"/>
</g>
<defs>
<clipPath id="clip0_6248_22539">
<rect width="15.6987" height="14.6521" fill="white" transform="translate(0 0.174072)"/>
</clipPath>
</defs>
</svg>