<svg width="148" height="73" viewBox="0 0 148 73" fill="none" xmlns="http://www.w3.org/2000/svg">
<path fill-rule="evenodd" clip-rule="evenodd" d="M109.071 36.5904C109.071 31.6345 106.67 27.7239 102.082 27.7239C97.4744 27.7239 94.6866 31.6345 94.6866 36.5517C94.6866 42.3788 97.9778 45.3214 102.702 45.3214C105.005 45.3214 106.748 44.7987 108.064 44.0631V40.1912C106.748 40.8494 105.238 41.256 103.321 41.256C101.443 41.256 99.7782 40.5978 99.5653 38.3134H109.032C109.032 38.0617 109.071 37.055 109.071 36.5904ZM99.5072 34.7513C99.5072 32.5637 100.843 31.6538 102.063 31.6538C103.244 31.6538 104.502 32.5637 104.502 34.7513H99.5072ZM87.2137 27.7239C85.3165 27.7239 84.0968 28.6145 83.4192 29.2339L83.1675 28.0337H78.9084V50.6064L83.7483 49.5804L83.7677 44.1018C84.4646 44.6051 85.4907 45.3214 87.1944 45.3214C90.6598 45.3214 93.8154 42.5337 93.8154 36.3968C93.796 30.7827 90.6017 27.7239 87.2137 27.7239ZM86.0521 41.0624C84.9099 41.0624 84.2323 40.6558 83.7677 40.1525L83.7483 32.9703C84.2517 32.4088 84.9486 32.0217 86.0521 32.0217C87.8139 32.0217 89.0335 33.9963 89.0335 36.5323C89.0335 39.1265 87.8332 41.0624 86.0521 41.0624ZM72.2486 26.5817L77.1079 25.5364V21.6064L72.2486 22.6325V26.5817ZM72.2486 28.053H77.1079V44.9923H72.2486V28.053ZM67.0408 29.4856L66.7311 28.053H62.5494V44.9923H67.3893V33.5123C68.5315 32.0217 70.4675 32.2927 71.0677 32.5056V28.053C70.4482 27.8207 68.1831 27.3948 67.0408 29.4856ZM57.361 23.8521L52.6372 24.8588L52.6178 40.3655C52.6178 43.2306 54.7667 45.3408 57.632 45.3408C59.2195 45.3408 60.3811 45.0504 61.02 44.7019V40.772C60.4004 41.0237 57.3416 41.9142 57.3416 39.049V32.1765H61.02V28.053H57.3416L57.361 23.8521ZM44.2738 32.9703C44.2738 32.2153 44.8933 31.9249 45.9193 31.9249C47.3907 31.9249 49.2492 32.3701 50.7206 33.1639V28.6145C49.1137 27.9756 47.5262 27.7239 45.9193 27.7239C41.9893 27.7239 39.3757 29.776 39.3757 33.2026C39.3757 38.5457 46.7324 37.6939 46.7324 39.9976C46.7324 40.8882 45.9581 41.1785 44.8739 41.1785C43.267 41.1785 41.2149 40.5203 39.5887 39.6298V44.2373C41.3891 45.0117 43.209 45.3408 44.8739 45.3408C48.9007 45.3408 51.6692 43.3468 51.6692 39.8815C51.6498 34.1125 44.2738 35.1385 44.2738 32.9703Z" fill="white"/>
</svg>
