<svg xmlns="http://www.w3.org/2000/svg" width="18" height="18" viewBox="0 0 18 18" fill="none">
<path d="M3.42188 4.48438L4.3156 14.7623C4.41108 15.8603 5.33036 16.7031 6.43261 16.7031H11.5674C12.6697 16.7031 13.5889 15.8603 13.6844 14.7623L14.5781 4.48438" fill="#3541B4"/>
<path fill-rule="evenodd" clip-rule="evenodd" d="M14.6472 3.69054C15.0857 3.72867 15.4102 4.11501 15.3721 4.55346L14.4783 14.8313C14.4783 14.8313 14.4783 14.8313 14.4783 14.8313C14.3471 16.3413 13.083 17.5 11.5675 17.5H6.43265C4.91708 17.5 3.65306 16.3412 3.52177 14.8313L4.31564 14.7623L3.52177 14.8313L2.62804 4.55345C2.58992 4.11501 2.91444 3.72867 3.35289 3.69054C3.79134 3.65242 4.17768 3.97694 4.2158 4.41539L5.10952 14.6933C5.1692 15.3796 5.74373 15.9063 6.43265 15.9063H11.5675C12.2564 15.9063 12.8309 15.3796 12.8905 14.6933L12.8905 14.6933L13.7843 4.41539C13.8224 3.97694 14.2088 3.65242 14.6472 3.69054Z" fill="#3541B4"/>
<path fill-rule="evenodd" clip-rule="evenodd" d="M8.73438 2.09375C8.00085 2.09375 7.40625 2.68836 7.40625 3.42188V4.21875C7.40625 4.65885 7.04948 5.01562 6.60938 5.01562C6.16927 5.01562 5.8125 4.65885 5.8125 4.21875V3.42188C5.8125 1.80818 7.12063 0.5 8.73438 0.5H9.26562C10.8794 0.5 12.1875 1.80818 12.1875 3.42188V4.21875C12.1875 4.65885 11.8307 5.01562 11.3906 5.01562C10.9505 5.01562 10.5938 4.65885 10.5938 4.21875V3.42188C10.5938 2.68836 9.99915 2.09375 9.26562 2.09375H8.73438Z" fill="#3541B4"/>
<path fill-rule="evenodd" clip-rule="evenodd" d="M0.765625 4.48438C0.765625 4.04427 1.1224 3.6875 1.5625 3.6875H16.4375C16.8776 3.6875 17.2344 4.04427 17.2344 4.48438C17.2344 4.92448 16.8776 5.28125 16.4375 5.28125H1.5625C1.1224 5.28125 0.765625 4.92448 0.765625 4.48438Z" fill="#3541B4"/>
</svg>