<svg xmlns="http://www.w3.org/2000/svg" width="17" height="18" viewBox="0 0 17 18" fill="none">
<path d="M1.83411 16.7031H9.73551C10.3353 16.7031 10.8073 16.2056 10.6877 15.6178C10.3578 13.995 9.28013 11.125 5.78482 11.125C2.28953 11.125 1.21187 13.995 0.881905 15.6178C0.762384 16.2056 1.23433 16.7031 1.83411 16.7031Z" fill="#3541B4"/>
<path fill-rule="evenodd" clip-rule="evenodd" d="M1.52766 12.2604C2.41647 11.1662 3.78147 10.3281 5.78465 10.3281C7.78783 10.3281 9.15284 11.1662 10.0417 12.2604C10.9042 13.3223 11.2913 14.5877 11.4684 15.459C11.704 16.6173 10.7576 17.5 9.73534 17.5H1.83393C0.811616 17.5 -0.134693 16.6173 0.100836 15.459C0.277986 14.5878 0.66513 13.3223 1.52766 12.2604ZM2.76473 13.2653C2.13211 14.0441 1.81544 15.025 1.66263 15.7766L1.66262 15.7766C1.65803 15.7992 1.66047 15.8112 1.66217 15.8172C1.66425 15.8245 1.66905 15.8352 1.68049 15.8479C1.70423 15.8743 1.75522 15.9062 1.83393 15.9062H9.73534C9.81405 15.9062 9.86506 15.8743 9.88879 15.8479C9.90024 15.8352 9.90504 15.8244 9.90712 15.8172C9.90881 15.8112 9.91126 15.7992 9.90666 15.7766L9.90665 15.7765C9.75387 15.025 9.43721 14.0441 8.80459 13.2653C8.19827 12.5188 7.27678 11.9219 5.78465 11.9219C4.29253 11.9219 3.37105 12.5188 2.76473 13.2653Z" fill="#3541B4"/>
<path d="M12.4258 11.125C14.6345 11.125 15.5391 13.4071 15.9043 15.052C16.1015 15.9402 15.383 16.7031 14.4731 16.7031H13.4883" stroke="#3541B4" stroke-width="1.5" stroke-linecap="round" stroke-linejoin="round"/>
<path d="M5.78516 7.14062C7.39886 7.14062 8.70703 5.83246 8.70703 4.21875C8.70703 2.60504 7.39886 1.29688 5.78516 1.29688C4.17145 1.29688 2.86328 2.60504 2.86328 4.21875C2.86328 5.83246 4.17145 7.14062 5.78516 7.14062Z" fill="#3541B4"/>
<path fill-rule="evenodd" clip-rule="evenodd" d="M5.78516 2.09375C4.61155 2.09375 3.66016 3.04514 3.66016 4.21875C3.66016 5.39235 4.61155 6.34375 5.78516 6.34375C6.95876 6.34375 7.91016 5.39235 7.91016 4.21875C7.91016 3.04514 6.95876 2.09375 5.78516 2.09375ZM2.06641 4.21875C2.06641 2.16494 3.73135 0.5 5.78516 0.5C7.83897 0.5 9.50391 2.16494 9.50391 4.21875C9.50391 6.27256 7.83897 7.9375 5.78516 7.9375C3.73135 7.9375 2.06641 6.27256 2.06641 4.21875Z" fill="#3541B4"/>
<path d="M11.3633 7.14062C12.977 7.14062 14.0195 5.83245 14.0195 4.21875C14.0195 2.60505 12.977 1.29688 11.3633 1.29688" stroke="#3541B4" stroke-width="1.5" stroke-linecap="round" stroke-linejoin="round"/>
</svg>